RecursiveMonoVar-StrictMedium.ufo
<glyph name="exclam" format="1">
  <advance width="600"/>
  <unicode hex="0021"/>
  <outline>
    <contour>
      <point x="338" y="264" type="line"/>
      <point x="346" y="343"/>
      <point x="354" y="423"/>
      <point x="362" y="502" type="curve"/>
      <point x="362" y="689" type="line" smooth="yes"/>
      <point x="362" y="696"/>
      <point x="357" y="700"/>
      <point x="351" y="700" type="curve" smooth="yes"/>
      <point x="305" y="700"/>
      <point x="269" y="700"/>
      <point x="238" y="700" type="curve"/>
      <point x="238" y="662"/>
      <point x="238" y="627"/>
      <point x="238" y="590" type="curve" smooth="yes"/>
      <point x="238" y="502" type="line"/>
      <point x="259" y="276"/>
      <point x="260" y="271"/>
      <point x="264" y="267" type="curve" smooth="yes"/>
      <point x="266" y="265"/>
      <point x="268" y="264"/>
      <point x="272" y="264" type="curve"/>
    </contour>
    <contour>
      <point x="380" y="-7" type="curve"/>
      <point x="380" y="140" type="line" smooth="yes"/>
      <point x="380" y="146"/>
      <point x="375" y="151"/>
      <point x="369" y="151" type="curve" smooth="yes"/>
      <point x="323" y="151"/>
      <point x="266" y="151"/>
      <point x="220" y="151" type="curve"/>
      <point x="220" y="4" type="line" smooth="yes"/>
      <point x="220" y="-2"/>
      <point x="225" y="-7"/>
      <point x="231" y="-7" type="curve" smooth="yes"/>
      <point x="277" y="-7"/>
      <point x="334" y="-7"/>
    </contour>
  </outline>
</glyph>
<glyph name="dollar" format="1">
  <advance width="600"/>
  <unicode hex="0024"/>
  <outline>
    <contour>
      <point x="320" y="718" type="curve" smooth="yes"/>
      <point x="173" y="718"/>
      <point x="76" y="643"/>
      <point x="76" y="537" type="curve" smooth="yes"/>
      <point x="76" y="492" type="line" smooth="yes"/>
      <point x="76" y="475"/>
      <point x="117" y="459"/>
      <point x="170" y="459" type="curve"/>
      <point x="170" y="485"/>
      <point x="170" y="509"/>
      <point x="170" y="532" type="curve" smooth="yes"/>
      <point x="170" y="585"/>
      <point x="221" y="622"/>
      <point x="315" y="622" type="curve" smooth="yes"/>
      <point x="394" y="622"/>
      <point x="446" y="607"/>
      <point x="499" y="564" type="curve"/>
      <point x="515" y="564" type="line"/>
      <point x="515" y="583"/>
      <point x="515" y="618"/>
      <point x="515" y="658" type="curve" smooth="yes"/>
      <point x="515" y="661"/>
      <point x="514" y="664"/>
      <point x="512" y="666" type="curve" smooth="yes"/>
      <point x="478" y="700"/>
      <point x="403" y="718"/>
    </contour>
    <contour>
      <point x="377" y="384" type="curve" smooth="yes"/>
      <point x="281" y="412" type="line" smooth="yes"/>
      <point x="194" y="438"/>
      <point x="170" y="458"/>
      <point x="170" y="507" type="curve" smooth="yes"/>
      <point x="170" y="531"/>
      <point x="170" y="546"/>
      <point x="170" y="583" type="curve"/>
      <point x="118" y="577"/>
      <point x="76" y="559"/>
      <point x="76" y="492" type="curve" smooth="yes"/>
      <point x="76" y="427"/>
      <point x="118" y="364"/>
      <point x="246" y="325" type="curve" smooth="yes"/>
      <point x="343" y="296" type="line" smooth="yes"/>
      <point x="427" y="271"/>
      <point x="444" y="249"/>
      <point x="444" y="198" type="curve" smooth="yes"/>
      <point x="444" y="176"/>
      <point x="444" y="138"/>
      <point x="444" y="110" type="curve"/>
      <point x="483" y="110"/>
      <point x="536" y="168"/>
      <point x="536" y="213" type="curve"/>
      <point x="536" y="293"/>
      <point x="496" y="349"/>
    </contour>
    <contour>
      <point x="289" y="-18" type="curve" smooth="yes"/>
      <point x="439" y="-18"/>
      <point x="536" y="57"/>
      <point x="536" y="163" type="curve" smooth="yes"/>
      <point x="536" y="213" type="line" smooth="yes"/>
      <point x="536" y="230"/>
      <point x="496" y="246"/>
      <point x="444" y="246" type="curve"/>
      <point x="444" y="219"/>
      <point x="444" y="194"/>
      <point x="444" y="168" type="curve" smooth="yes"/>
      <point x="444" y="115"/>
      <point x="393" y="78"/>
      <point x="295" y="78" type="curve" smooth="yes"/>
      <point x="206" y="78"/>
      <point x="146" y="98"/>
      <point x="86" y="147" type="curve"/>
      <point x="70" y="147" type="line"/>
      <point x="70" y="128"/>
      <point x="70" y="93"/>
      <point x="70" y="53" type="curve" smooth="yes"/>
      <point x="70" y="50"/>
      <point x="71" y="47"/>
      <point x="73" y="45" type="curve" smooth="yes"/>
      <point x="113" y="5"/>
      <point x="196" y="-18"/>
    </contour>
    <contour>
      <point x="347" y="463" type="line"/>
      <point x="378" y="774" type="line" smooth="yes"/>
      <point x="379" y="783"/>
      <point x="374" y="787"/>
      <point x="368" y="787" type="curve" smooth="yes"/>
      <point x="336" y="787"/>
      <point x="322" y="787"/>
      <point x="290" y="787" type="curve"/>
      <point x="290" y="756"/>
      <point x="290" y="726"/>
      <point x="290" y="695" type="curve"/>
      <point x="290" y="489" type="line" smooth="yes"/>
      <point x="290" y="481"/>
      <point x="293" y="476"/>
      <point x="300" y="475" type="curve" smooth="yes"/>
    </contour>
    <contour>
      <point x="267" y="246" type="line"/>
      <point x="234" y="-72" type="line" smooth="yes"/>
      <point x="233" y="-82"/>
      <point x="238" y="-86"/>
      <point x="244" y="-86" type="curve" smooth="yes"/>
      <point x="277" y="-86"/>
      <point x="292" y="-86"/>
      <point x="325" y="-86" type="curve"/>
      <point x="325" y="-57"/>
      <point x="325" y="-24"/>
      <point x="325" y="5" type="curve"/>
      <point x="325" y="218" type="line" smooth="yes"/>
      <point x="325" y="227"/>
      <point x="322" y="232"/>
      <point x="314" y="234" type="curve" smooth="yes"/>
    </contour>
  </outline>
</glyph>
<glyph name="quotesingle" format="1">
  <advance width="600"/>
  <unicode hex="0027"/>
  <outline>
    <contour>
      <point x="348" y="450" type="curve"/>
      <point x="371" y="737" type="line" smooth="yes"/>
      <point x="372" y="746"/>
      <point x="367" y="750"/>
      <point x="361" y="750" type="curve" smooth="yes"/>
      <point x="321" y="750"/>
      <point x="277" y="750"/>
      <point x="228" y="750" type="curve"/>
      <point x="231" y="714"/>
      <point x="233" y="683"/>
      <point x="236" y="648" type="curve" smooth="yes"/>
      <point x="251" y="461" type="line" smooth="yes"/>
      <point x="252" y="454"/>
      <point x="257" y="450"/>
      <point x="263" y="450" type="curve" smooth="yes"/>
      <point x="292" y="450"/>
      <point x="320" y="450"/>
    </contour>
  </outline>
</glyph>
<glyph name="parenleft" format="1">
  <advance width="600"/>
  <unicode hex="0028"/>
  <outline>
    <contour>
      <point x="379" y="747" type="curve" smooth="yes"/>
      <point x="260" y="628"/>
      <point x="204" y="476"/>
      <point x="204" y="311" type="curve" smooth="yes"/>
      <point x="204" y="303" type="line" smooth="yes"/>
      <point x="204" y="139"/>
      <point x="261" y="-11"/>
      <point x="379" y="-130" type="curve" smooth="yes"/>
      <point x="385" y="-136"/>
      <point x="392" y="-138"/>
      <point x="399" y="-138" type="curve" smooth="yes"/>
      <point x="435" y="-138"/>
      <point x="463" y="-138"/>
      <point x="501" y="-138" type="curve"/>
      <point x="501" y="-122" type="line"/>
      <point x="373" y="-1"/>
      <point x="307" y="140"/>
      <point x="307" y="303" type="curve" smooth="yes"/>
      <point x="307" y="311" type="line" smooth="yes"/>
      <point x="307" y="475"/>
      <point x="371" y="621"/>
      <point x="498" y="739" type="curve"/>
      <point x="498" y="755" type="line"/>
      <point x="461" y="755"/>
      <point x="434" y="755"/>
      <point x="399" y="755" type="curve" smooth="yes"/>
      <point x="392" y="755"/>
      <point x="385" y="754"/>
    </contour>
  </outline>
</glyph>
<glyph name="parenright" format="1">
  <advance width="600"/>
  <unicode hex="0029"/>
  <outline>
    <contour>
      <point x="221" y="-130" type="curve" smooth="yes"/>
      <point x="340" y="-11"/>
      <point x="396" y="141"/>
      <point x="396" y="306" type="curve" smooth="yes"/>
      <point x="396" y="314" type="line" smooth="yes"/>
      <point x="396" y="478"/>
      <point x="339" y="629"/>
      <point x="221" y="747" type="curve" smooth="yes"/>
      <point x="215" y="754"/>
      <point x="208" y="755"/>
      <point x="201" y="755" type="curve" smooth="yes"/>
      <point x="165" y="755"/>
      <point x="137" y="755"/>
      <point x="99" y="755" type="curve"/>
      <point x="99" y="739" type="line"/>
      <point x="227" y="618"/>
      <point x="293" y="477"/>
      <point x="293" y="314" type="curve" smooth="yes"/>
      <point x="293" y="306" type="line" smooth="yes"/>
      <point x="293" y="142"/>
      <point x="229" y="-4"/>
      <point x="102" y="-122" type="curve"/>
      <point x="102" y="-138" type="line"/>
      <point x="139" y="-138"/>
      <point x="166" y="-138"/>
      <point x="201" y="-138" type="curve" smooth="yes"/>
      <point x="208" y="-138"/>
      <point x="215" y="-136"/>
    </contour>
  </outline>
</glyph>
<glyph name="asterisk" format="1">
  <advance width="600"/>
  <unicode hex="002A"/>
  <outline>
    <contour>
      <point x="247" y="568" type="curve"/>
      <point x="252" y="536"/>
      <point x="257" y="504"/>
      <point x="262" y="472" type="curve" smooth="yes"/>
      <point x="283" y="309" type="line"/>
      <point x="248" y="60" type="line" smooth="yes"/>
      <point x="248" y="54"/>
      <point x="251" y="50"/>
      <point x="257" y="50" type="curve"/>
      <point x="289" y="50"/>
      <point x="320" y="50"/>
      <point x="352" y="50" type="curve"/>
      <point x="347" y="82"/>
      <point x="342" y="114"/>
      <point x="337" y="146" type="curve" smooth="yes"/>
      <point x="316" y="309" type="line"/>
      <point x="351" y="558" type="line" smooth="yes"/>
      <point x="351" y="564"/>
      <point x="348" y="568"/>
      <point x="342" y="568" type="curve" smooth="yes"/>
      <point x="310" y="568"/>
      <point x="279" y="568"/>
    </contour>
    <contour>
      <point x="497" y="484" type="curve"/>
      <point x="291" y="323" type="line"/>
      <point x="58" y="230" type="line" smooth="yes"/>
      <point x="53" y="227"/>
      <point x="50" y="222"/>
      <point x="54" y="215" type="curve"/>
      <point x="70" y="187"/>
      <point x="86" y="161"/>
      <point x="102" y="134" type="curve"/>
      <point x="308" y="294" type="line"/>
      <point x="540" y="388" type="line" smooth="yes"/>
      <point x="546" y="391"/>
      <point x="548" y="396"/>
      <point x="544" y="402" type="curve" smooth="yes"/>
      <point x="529" y="430"/>
      <point x="513" y="456"/>
    </contour>
    <contour>
      <point x="550" y="226" type="curve"/>
      <point x="308" y="323" type="line"/>
      <point x="110" y="479" type="line" smooth="yes"/>
      <point x="105" y="482"/>
      <point x="100" y="481"/>
      <point x="96" y="475" type="curve"/>
      <point x="80" y="447"/>
      <point x="64" y="421"/>
      <point x="49" y="393" type="curve"/>
      <point x="292" y="295" type="line"/>
      <point x="489" y="140" type="line" smooth="yes"/>
      <point x="494" y="136"/>
      <point x="500" y="137"/>
      <point x="503" y="144" type="curve"/>
      <point x="519" y="171"/>
      <point x="534" y="198"/>
    </contour>
  </outline>
</glyph>
<glyph name="plus" format="1">
  <advance width="600"/>
  <unicode hex="002B"/>
  <outline>
    <contour>
      <point x="68" y="349" type="line"/>
      <point x="68" y="320"/>
      <point x="68" y="291"/>
      <point x="68" y="262" type="curve" smooth="yes"/>
      <point x="68" y="259"/>
      <point x="69" y="256"/>
      <point x="71" y="254" type="curve" smooth="yes"/>
      <point x="73" y="252"/>
      <point x="76" y="251"/>
      <point x="79" y="251" type="curve"/>
      <point x="532" y="251" type="line"/>
      <point x="532" y="280"/>
      <point x="532" y="309"/>
      <point x="532" y="338" type="curve" smooth="yes"/>
      <point x="532" y="344"/>
      <point x="527" y="349"/>
      <point x="521" y="349" type="curve"/>
    </contour>
    <contour>
      <point x="349" y="69" type="curve"/>
      <point x="349" y="521" type="line" smooth="yes"/>
      <point x="349" y="524"/>
      <point x="348" y="527"/>
      <point x="346" y="529" type="curve" smooth="yes"/>
      <point x="344" y="531"/>
      <point x="341" y="532"/>
      <point x="338" y="532" type="curve" smooth="yes"/>
      <point x="310" y="532"/>
      <point x="284" y="532"/>
      <point x="251" y="532" type="curve"/>
      <point x="251" y="510"/>
      <point x="251" y="475"/>
      <point x="251" y="433" type="curve" smooth="yes"/>
      <point x="251" y="80" type="line" smooth="yes"/>
      <point x="251" y="74"/>
      <point x="256" y="69"/>
      <point x="262" y="69" type="curve" smooth="yes"/>
      <point x="293" y="69"/>
      <point x="318" y="69"/>
    </contour>
  </outline>
</glyph>
<glyph name="hyphen" format="1">
  <advance width="600"/>
  <unicode hex="002D"/>
  <outline>
    <contour>
      <point x="118" y="347" type="line"/>
      <point x="118" y="318"/>
      <point x="118" y="292"/>
      <point x="118" y="263" type="curve" smooth="yes"/>
      <point x="118" y="260"/>
      <point x="119" y="257"/>
      <point x="121" y="255" type="curve" smooth="yes"/>
      <point x="123" y="253"/>
      <point x="126" y="252"/>
      <point x="129" y="252" type="curve"/>
      <point x="482" y="252" type="line"/>
      <point x="482" y="281"/>
      <point x="482" y="307"/>
      <point x="482" y="336" type="curve" smooth="yes"/>
      <point x="482" y="342"/>
      <point x="477" y="347"/>
      <point x="471" y="347" type="curve"/>
    </contour>
  </outline>
</glyph>
<glyph name="period" format="1">
  <advance width="600"/>
  <unicode hex="002E"/>
  <outline>
    <contour>
      <point x="380" y="-7" type="curve"/>
      <point x="380" y="140" type="line" smooth="yes"/>
      <point x="380" y="146"/>
      <point x="375" y="151"/>
      <point x="369" y="151" type="curve" smooth="yes"/>
      <point x="323" y="151"/>
      <point x="266" y="151"/>
      <point x="220" y="151" type="curve"/>
      <point x="220" y="4" type="line" smooth="yes"/>
      <point x="220" y="-2"/>
      <point x="225" y="-7"/>
      <point x="231" y="-7" type="curve" smooth="yes"/>
      <point x="277" y="-7"/>
      <point x="334" y="-7"/>
    </contour>
  </outline>
</glyph>
<glyph name="zero" format="1">
  <advance width="600"/>
  <unicode hex="0030"/>
  <outline>
    <contour>
      <point x="300" y="720" type="curve" smooth="yes"/>
      <point x="162" y="720"/>
      <point x="63" y="617"/>
      <point x="63" y="445" type="curve" smooth="yes"/>
      <point x="63" y="255" type="line" smooth="yes"/>
      <point x="63" y="87"/>
      <point x="158" y="-20"/>
      <point x="300" y="-20" type="curve"/>
      <point x="313" y="-20"/>
      <point x="320" y="-10"/>
      <point x="300" y="72" type="curve"/>
      <point x="217" y="72"/>
      <point x="161" y="127"/>
      <point x="161" y="255" type="curve" smooth="yes"/>
      <point x="161" y="445" type="line" smooth="yes"/>
      <point x="161" y="574"/>
      <point x="216" y="628"/>
      <point x="300" y="628" type="curve" smooth="yes"/>
      <point x="341" y="628"/>
      <point x="377" y="628"/>
      <point x="405" y="628" type="curve"/>
      <point x="405" y="682"/>
      <point x="375" y="720"/>
    </contour>
    <contour>
      <point x="300" y="-20" type="curve" smooth="yes"/>
      <point x="438" y="-20"/>
      <point x="537" y="83"/>
      <point x="537" y="255" type="curve" smooth="yes"/>
      <point x="537" y="445" type="line" smooth="yes"/>
      <point x="537" y="613"/>
      <point x="442" y="720"/>
      <point x="300" y="720" type="curve"/>
      <point x="287" y="720"/>
      <point x="280" y="710"/>
      <point x="300" y="628" type="curve"/>
      <point x="383" y="628"/>
      <point x="439" y="574"/>
      <point x="439" y="445" type="curve" smooth="yes"/>
      <point x="439" y="255" type="line" smooth="yes"/>
      <point x="439" y="127"/>
      <point x="384" y="72"/>
      <point x="293" y="72" type="curve" smooth="yes"/>
      <point x="246" y="72"/>
      <point x="223" y="72"/>
      <point x="195" y="72" type="curve"/>
      <point x="195" y="18"/>
      <point x="225" y="-20"/>
    </contour>
    <contour>
      <point x="148" y="146" type="curve"/>
      <point x="249" y="252"/>
      <point x="352" y="358"/>
      <point x="454" y="464" type="curve"/>
      <point x="475" y="484"/>
      <point x="473" y="509"/>
      <point x="448" y="558" type="curve"/>
      <point x="343" y="449"/>
      <point x="237" y="341"/>
      <point x="131" y="232" type="curve" smooth="yes"/>
      <point x="114" y="217"/>
      <point x="121" y="189"/>
    </contour>
  </outline>
</glyph>
<glyph name="one" format="1">
  <advance width="600"/>
  <unicode hex="0031"/>
  <outline>
    <contour>
      <point x="384" y="25" type="curve"/>
      <point x="384" y="250"/>
      <point x="384" y="475"/>
      <point x="384" y="699" type="curve" smooth="yes"/>
      <point x="384" y="706"/>
      <point x="380" y="710"/>
      <point x="373" y="710" type="curve" smooth="yes"/>
      <point x="286" y="710" type="line"/>
      <point x="286" y="496"/>
      <point x="286" y="277"/>
      <point x="286" y="63" type="curve" smooth="yes"/>
      <point x="286" y="33"/>
      <point x="327" y="25"/>
    </contour>
    <contour>
      <point x="85" y="93" type="line"/>
      <point x="85" y="66"/>
      <point x="85" y="41"/>
      <point x="85" y="11" type="curve" smooth="yes"/>
      <point x="85" y="8"/>
      <point x="86" y="5"/>
      <point x="88" y="3" type="curve" smooth="yes"/>
      <point x="90" y="1"/>
      <point x="93" y="0"/>
      <point x="96" y="0" type="curve" smooth="yes"/>
      <point x="545" y="0" type="line"/>
      <point x="545" y="25"/>
      <point x="545" y="51"/>
      <point x="545" y="82" type="curve" smooth="yes"/>
      <point x="545" y="89"/>
      <point x="541" y="93"/>
      <point x="534" y="93" type="curve" smooth="yes"/>
    </contour>
    <contour>
      <point x="105" y="455" type="curve" smooth="yes"/>
      <point x="114" y="455"/>
      <point x="119" y="457"/>
      <point x="311" y="619" type="curve" smooth="yes"/>
      <point x="335" y="637"/>
      <point x="358" y="655"/>
      <point x="358" y="662" type="curve" smooth="yes"/>
      <point x="358" y="682"/>
      <point x="346" y="710"/>
      <point x="295" y="710" type="curve"/>
      <point x="275" y="710" type="line"/>
      <point x="246" y="686"/>
      <point x="217" y="661"/>
      <point x="188" y="637" type="curve"/>
      <point x="158" y="612"/>
      <point x="129" y="587"/>
      <point x="99" y="563" type="curve"/>
      <point x="99" y="464" type="line" smooth="yes"/>
      <point x="99" y="458"/>
      <point x="101" y="455"/>
    </contour>
  </outline>
</glyph>
<glyph name="two" format="1">
  <advance width="600"/>
  <unicode hex="0032"/>
  <outline>
    <contour>
      <point x="426" y="609" type="curve"/>
      <point x="426" y="580"/>
      <point x="426" y="566"/>
      <point x="426" y="528" type="curve" smooth="yes"/>
      <point x="426" y="478"/>
      <point x="404" y="449"/>
      <point x="280" y="367" type="curve" smooth="yes"/>
      <point x="125" y="264"/>
      <point x="65" y="191"/>
      <point x="65" y="73" type="curve" smooth="yes"/>
      <point x="65" y="61"/>
      <point x="91" y="58"/>
      <point x="165" y="58" type="curve"/>
      <point x="165" y="160"/>
      <point x="189" y="192"/>
      <point x="332" y="289" type="curve" smooth="yes"/>
      <point x="467" y="378"/>
      <point x="524" y="432"/>
      <point x="524" y="523" type="curve" smooth="yes"/>
      <point x="524" y="553" type="line" smooth="yes"/>
      <point x="524" y="582"/>
      <point x="497" y="609"/>
    </contour>
    <contour>
      <point x="540" y="0" type="line"/>
      <point x="540" y="25"/>
      <point x="540" y="51"/>
      <point x="540" y="82" type="curve" smooth="yes"/>
      <point x="540" y="89"/>
      <point x="536" y="93"/>
      <point x="529" y="93" type="curve" smooth="yes"/>
      <point x="149" y="93" type="line" smooth="yes"/>
      <point x="120" y="93"/>
      <point x="92" y="88"/>
      <point x="65" y="73" type="curve"/>
      <point x="65" y="52"/>
      <point x="65" y="40"/>
      <point x="65" y="11" type="curve" smooth="yes"/>
      <point x="65" y="4"/>
      <point x="69" y="0"/>
      <point x="76" y="0" type="curve" smooth="yes"/>
    </contour>
    <contour>
      <point x="300" y="720" type="curve" smooth="yes"/>
      <point x="199" y="720"/>
      <point x="117" y="688"/>
      <point x="87" y="659" type="curve" smooth="yes"/>
      <point x="85" y="656"/>
      <point x="84" y="654"/>
      <point x="84" y="649" type="curve" smooth="yes"/>
      <point x="84" y="610"/>
      <point x="84" y="584"/>
      <point x="84" y="559" type="curve"/>
      <point x="99" y="559" type="line"/>
      <point x="159" y="604"/>
      <point x="218" y="623"/>
      <point x="299" y="623" type="curve" smooth="yes"/>
      <point x="384" y="623"/>
      <point x="426" y="601"/>
      <point x="426" y="544" type="curve" smooth="yes"/>
      <point x="426" y="518"/>
      <point x="426" y="499"/>
      <point x="426" y="479" type="curve"/>
      <point x="491" y="480"/>
      <point x="524" y="512"/>
      <point x="524" y="553" type="curve" smooth="yes"/>
      <point x="524" y="656"/>
      <point x="439" y="720"/>
    </contour>
  </outline>
</glyph>
<glyph name="three" format="1">
  <advance width="600"/>
  <unicode hex="0033"/>
  <outline>
    <contour>
      <point x="283" y="623" type="curve" smooth="yes"/>
      <point x="386" y="623"/>
      <point x="429" y="580"/>
      <point x="429" y="524" type="curve" smooth="yes"/>
      <point x="429" y="500"/>
      <point x="429" y="481"/>
      <point x="429" y="461" type="curve"/>
      <point x="481" y="461"/>
      <point x="527" y="484"/>
      <point x="527" y="530" type="curve" smooth="yes"/>
      <point x="527" y="555" type="line" smooth="yes"/>
      <point x="527" y="646"/>
      <point x="436" y="720"/>
      <point x="286" y="720" type="curve" smooth="yes"/>
      <point x="190" y="720"/>
      <point x="107" y="694"/>
      <point x="83" y="671" type="curve" smooth="yes"/>
      <point x="81" y="669"/>
      <point x="80" y="667"/>
      <point x="80" y="663" type="curve" smooth="yes"/>
      <point x="80" y="626"/>
      <point x="80" y="596"/>
      <point x="80" y="575" type="curve"/>
      <point x="96" y="575" type="line"/>
      <point x="154" y="609"/>
      <point x="201" y="623"/>
    </contour>
    <contour>
      <point x="173" y="339" type="curve" smooth="yes"/>
      <point x="389" y="339"/>
      <point x="527" y="398"/>
      <point x="527" y="530" type="curve" smooth="yes"/>
      <point x="527" y="559"/>
      <point x="476" y="587"/>
      <point x="427" y="587" type="curve"/>
      <point x="427" y="562"/>
      <point x="427" y="539"/>
      <point x="427" y="517" type="curve" smooth="yes"/>
      <point x="427" y="451"/>
      <point x="368" y="403"/>
      <point x="162" y="403" type="curve"/>
      <point x="162" y="387"/>
      <point x="162" y="365"/>
      <point x="162" y="350" type="curve" smooth="yes"/>
      <point x="162" y="344"/>
      <point x="166" y="339"/>
    </contour>
    <contour>
      <point x="173" y="311" type="curve" smooth="yes"/>
      <point x="357" y="311"/>
      <point x="436" y="272"/>
      <point x="436" y="189" type="curve" smooth="yes"/>
      <point x="436" y="166"/>
      <point x="436" y="151"/>
      <point x="436" y="122" type="curve"/>
      <point x="494" y="122"/>
      <point x="537" y="149"/>
      <point x="537" y="193" type="curve" smooth="yes"/>
      <point x="537" y="316"/>
      <point x="403" y="376"/>
      <point x="162" y="376" type="curve"/>
      <point x="162" y="359"/>
      <point x="162" y="339"/>
      <point x="162" y="322" type="curve" smooth="yes"/>
      <point x="162" y="314"/>
      <point x="166" y="311"/>
    </contour>
    <contour>
      <point x="278" y="77" type="curve" smooth="yes"/>
      <point x="191" y="77"/>
      <point x="143" y="90"/>
      <point x="81" y="129" type="curve"/>
      <point x="65" y="129" type="line"/>
      <point x="65" y="105"/>
      <point x="65" y="74"/>
      <point x="65" y="37" type="curve" smooth="yes"/>
      <point x="65" y="33"/>
      <point x="66" y="31"/>
      <point x="68" y="29" type="curve" smooth="yes"/>
      <point x="92" y="5"/>
      <point x="180" y="-20"/>
      <point x="280" y="-20" type="curve" smooth="yes"/>
      <point x="442" y="-20"/>
      <point x="537" y="57"/>
      <point x="537" y="165" type="curve" smooth="yes"/>
      <point x="537" y="193" type="line" smooth="yes"/>
      <point x="537" y="230"/>
      <point x="488" y="256"/>
      <point x="438" y="255" type="curve"/>
      <point x="438" y="228"/>
      <point x="438" y="210"/>
      <point x="438" y="187" type="curve" smooth="yes"/>
      <point x="438" y="126"/>
      <point x="391" y="77"/>
    </contour>
  </outline>
</glyph>
<glyph name="four" format="1">
  <advance width="600"/>
  <unicode hex="0034"/>
  <outline>
    <contour>
      <point x="137" y="207" type="curve"/>
      <point x="240" y="367"/>
      <point x="344" y="527"/>
      <point x="447" y="687" type="curve"/>
      <point x="447" y="700" type="line"/>
      <point x="394" y="700"/>
      <point x="358" y="700"/>
      <point x="348" y="700" type="curve" smooth="yes"/>
      <point x="342" y="700"/>
      <point x="335" y="700"/>
      <point x="330" y="691" type="curve" smooth="yes"/>
      <point x="199" y="484"/>
      <point x="48" y="240"/>
      <point x="48" y="235" type="curve" smooth="yes"/>
      <point x="48" y="215"/>
      <point x="101" y="207"/>
    </contour>
    <contour>
      <point x="560" y="152" type="line"/>
      <point x="560" y="179"/>
      <point x="560" y="206"/>
      <point x="560" y="234" type="curve" smooth="yes"/>
      <point x="560" y="240"/>
      <point x="555" y="245"/>
      <point x="549" y="245" type="curve" smooth="yes"/>
      <point x="392" y="245" type="line"/>
      <point x="328" y="245"/>
      <point x="182" y="240"/>
      <point x="48" y="235" type="curve"/>
      <point x="48" y="163" type="line" smooth="yes"/>
      <point x="48" y="160"/>
      <point x="49" y="157"/>
      <point x="51" y="155" type="curve" smooth="yes"/>
      <point x="53" y="153"/>
      <point x="56" y="152"/>
      <point x="59" y="152" type="curve" smooth="yes"/>
    </contour>
    <contour>
      <point x="485" y="0" type="curve"/>
      <point x="485" y="31"/>
      <point x="485" y="65"/>
      <point x="485" y="99" type="curve" smooth="yes"/>
      <point x="485" y="374" type="line" smooth="yes"/>
      <point x="485" y="381"/>
      <point x="481" y="385"/>
      <point x="474" y="385" type="curve" smooth="yes"/>
      <point x="402" y="385" type="line"/>
      <point x="396" y="333"/>
      <point x="391" y="283"/>
      <point x="386" y="231" type="curve"/>
      <point x="386" y="11" type="line" smooth="yes"/>
      <point x="386" y="5"/>
      <point x="391" y="0"/>
      <point x="397" y="0" type="curve" smooth="yes"/>
      <point x="426" y="0"/>
      <point x="456" y="0"/>
    </contour>
  </outline>
</glyph>
<glyph name="seven" format="1">
  <advance width="600"/>
  <unicode hex="0037"/>
  <outline>
    <contour>
      <point x="469" y="607" type="line" smooth="yes"/>
      <point x="494" y="607"/>
      <point x="519" y="609"/>
      <point x="545" y="615" type="curve"/>
      <point x="545" y="689" type="line"/>
      <point x="545" y="695"/>
      <point x="540" y="700"/>
      <point x="534" y="700" type="curve"/>
      <point x="65" y="700" type="line"/>
      <point x="65" y="658" type="line" smooth="yes"/>
      <point x="65" y="624"/>
      <point x="78" y="607"/>
      <point x="96" y="607" type="curve" smooth="yes"/>
    </contour>
    <contour>
      <point x="301" y="0" type="line"/>
      <point x="452" y="377"/>
      <point x="545" y="606"/>
      <point x="545" y="615" type="curve" smooth="yes"/>
      <point x="545" y="642"/>
      <point x="516" y="648"/>
      <point x="455" y="647" type="curve"/>
      <point x="299" y="265"/>
      <point x="199" y="20"/>
      <point x="199" y="11" type="curve" smooth="yes"/>
      <point x="199" y="4"/>
      <point x="203" y="0"/>
      <point x="210" y="0" type="curve" smooth="yes"/>
    </contour>
    <contour>
      <point x="164" y="485" type="curve"/>
      <point x="164" y="537"/>
      <point x="164" y="617"/>
      <point x="164" y="669" type="curve"/>
      <point x="164" y="692"/>
      <point x="140" y="700"/>
      <point x="77" y="700" type="curve" smooth="yes"/>
      <point x="65" y="700" type="line"/>
      <point x="65" y="643"/>
      <point x="65" y="553"/>
      <point x="65" y="496" type="curve"/>
      <point x="65" y="490"/>
      <point x="70" y="485"/>
      <point x="76" y="485" type="curve" smooth="yes"/>
      <point x="105" y="485"/>
      <point x="135" y="485"/>
    </contour>
  </outline>
</glyph>
<glyph name="nine" format="1">
  <advance width="600"/>
  <unicode hex="0039"/>
  <outline>
    <contour>
      <point x="393" y="629" type="curve"/>
      <point x="393" y="685"/>
      <point x="365" y="720"/>
      <point x="293" y="720" type="curve"/>
      <point x="157" y="720"/>
      <point x="61" y="634"/>
      <point x="61" y="512" type="curve" smooth="yes"/>
      <point x="61" y="441" type="line" smooth="yes"/>
      <point x="61" y="405"/>
      <point x="104" y="377"/>
      <point x="158" y="377" type="curve"/>
      <point x="158" y="402"/>
      <point x="158" y="421"/>
      <point x="158" y="450" type="curve" smooth="yes"/>
      <point x="158" y="503" type="line" smooth="yes"/>
      <point x="158" y="581"/>
      <point x="211" y="629"/>
      <point x="299" y="629" type="curve" smooth="yes"/>
      <point x="345" y="629"/>
      <point x="368" y="629"/>
    </contour>
    <contour>
      <point x="363" y="77" type="curve"/>
      <point x="332" y="77"/>
      <point x="310" y="77"/>
      <point x="266" y="77" type="curve" smooth="yes"/>
      <point x="199" y="77"/>
      <point x="160" y="87"/>
      <point x="103" y="121" type="curve"/>
      <point x="88" y="121" type="line"/>
      <point x="88" y="98"/>
      <point x="88" y="68"/>
      <point x="88" y="31" type="curve" smooth="yes"/>
      <point x="88" y="27"/>
      <point x="88" y="25"/>
      <point x="90" y="23" type="curve" smooth="yes"/>
      <point x="113" y="0"/>
      <point x="192" y="-20"/>
      <point x="265" y="-20" type="curve" smooth="yes"/>
      <point x="332" y="-20"/>
      <point x="363" y="13"/>
    </contour>
    <contour>
      <point x="539" y="280" type="curve" smooth="yes"/>
      <point x="539" y="437" type="line" smooth="yes"/>
      <point x="539" y="626"/>
      <point x="458" y="720"/>
      <point x="293" y="720" type="curve" smooth="yes"/>
      <point x="278" y="720"/>
      <point x="278" y="687"/>
      <point x="299" y="629" type="curve"/>
      <point x="397" y="629"/>
      <point x="439" y="576"/>
      <point x="439" y="439" type="curve" smooth="yes"/>
      <point x="439" y="278" type="line" smooth="yes"/>
      <point x="439" y="141"/>
      <point x="384" y="77"/>
      <point x="266" y="77" type="curve"/>
      <point x="247" y="27"/>
      <point x="247" y="-20"/>
      <point x="265" y="-20" type="curve" smooth="yes"/>
      <point x="442" y="-20"/>
      <point x="539" y="86"/>
    </contour>
    <contour>
      <point x="267" y="256" type="curve" smooth="yes"/>
      <point x="338" y="256"/>
      <point x="403" y="282"/>
      <point x="439" y="318" type="curve" smooth="yes"/>
      <point x="449" y="328"/>
      <point x="453" y="349"/>
      <point x="453" y="406" type="curve"/>
      <point x="403" y="363"/>
      <point x="350" y="346"/>
      <point x="286" y="346" type="curve" smooth="yes"/>
      <point x="199" y="346"/>
      <point x="158" y="380"/>
      <point x="158" y="450" type="curve" smooth="yes"/>
      <point x="158" y="464"/>
      <point x="158" y="482"/>
      <point x="158" y="491" type="curve"/>
      <point x="97" y="488"/>
      <point x="61" y="469"/>
      <point x="61" y="441" type="curve" smooth="yes"/>
      <point x="61" y="325"/>
      <point x="141" y="256"/>
    </contour>
  </outline>
</glyph>
<glyph name="colon" format="1">
  <advance width="600"/>
  <unicode hex="003A"/>
  <outline>
    <contour>
      <point x="380" y="381" type="curve"/>
      <point x="380" y="529" type="line" smooth="yes"/>
      <point x="380" y="535"/>
      <point x="375" y="540"/>
      <point x="369" y="540" type="curve" smooth="yes"/>
      <point x="323" y="540"/>
      <point x="266" y="540"/>
      <point x="220" y="540" type="curve"/>
      <point x="220" y="392" type="line" smooth="yes"/>
      <point x="220" y="386"/>
      <point x="225" y="381"/>
      <point x="231" y="381" type="curve" smooth="yes"/>
      <point x="277" y="381"/>
      <point x="334" y="381"/>
    </contour>
    <contour>
      <point x="380" y="-7" type="curve"/>
      <point x="380" y="140" type="line" smooth="yes"/>
      <point x="380" y="146"/>
      <point x="375" y="151"/>
      <point x="369" y="151" type="curve" smooth="yes"/>
      <point x="323" y="151"/>
      <point x="266" y="151"/>
      <point x="220" y="151" type="curve"/>
      <point x="220" y="4" type="line" smooth="yes"/>
      <point x="220" y="-2"/>
      <point x="225" y="-7"/>
      <point x="231" y="-7" type="curve" smooth="yes"/>
      <point x="277" y="-7"/>
      <point x="334" y="-7"/>
    </contour>
  </outline>
</glyph>
<glyph name="semicolon" format="1">
  <advance width="600"/>
  <unicode hex="003B"/>
  <outline>
    <contour>
      <point x="380" y="381" type="curve"/>
      <point x="380" y="529" type="line" smooth="yes"/>
      <point x="380" y="535"/>
      <point x="375" y="540"/>
      <point x="369" y="540" type="curve" smooth="yes"/>
      <point x="323" y="540"/>
      <point x="266" y="540"/>
      <point x="220" y="540" type="curve"/>
      <point x="220" y="392" type="line" smooth="yes"/>
      <point x="220" y="386"/>
      <point x="225" y="381"/>
      <point x="231" y="381" type="curve" smooth="yes"/>
      <point x="277" y="381"/>
      <point x="334" y="381"/>
    </contour>
    <contour>
      <point x="282" y="-214" type="curve" smooth="yes"/>
      <point x="287" y="-214"/>
      <point x="290" y="-213"/>
      <point x="292" y="-207" type="curve"/>
      <point x="333" y="-106"/>
      <point x="377" y="4"/>
      <point x="414" y="94" type="curve"/>
      <point x="417" y="102"/>
      <point x="414" y="107"/>
      <point x="406" y="107" type="curve" smooth="yes"/>
      <point x="354" y="107"/>
      <point x="323" y="107"/>
      <point x="262" y="107" type="curve"/>
      <point x="238" y="0"/>
      <point x="214" y="-107"/>
      <point x="190" y="-214" type="curve"/>
      <point x="214" y="-214"/>
      <point x="242" y="-214"/>
    </contour>
  </outline>
</glyph>
<glyph name="equal" format="1">
  <advance width="600"/>
  <unicode hex="003D"/>
  <outline>
    <contour>
      <point x="68" y="474" type="line"/>
      <point x="68" y="445"/>
      <point x="68" y="420"/>
      <point x="68" y="391" type="curve" smooth="yes"/>
      <point x="68" y="388"/>
      <point x="69" y="385"/>
      <point x="71" y="383" type="curve" smooth="yes"/>
      <point x="73" y="381"/>
      <point x="76" y="380"/>
      <point x="79" y="380" type="curve"/>
      <point x="532" y="380" type="line"/>
      <point x="532" y="409"/>
      <point x="532" y="434"/>
      <point x="532" y="463" type="curve" smooth="yes"/>
      <point x="532" y="469"/>
      <point x="527" y="474"/>
      <point x="521" y="474" type="curve"/>
    </contour>
    <contour>
      <point x="532" y="125" type="line"/>
      <point x="532" y="154"/>
      <point x="532" y="179"/>
      <point x="532" y="208" type="curve" smooth="yes"/>
      <point x="532" y="211"/>
      <point x="531" y="214"/>
      <point x="529" y="216" type="curve" smooth="yes"/>
      <point x="527" y="218"/>
      <point x="524" y="219"/>
      <point x="521" y="219" type="curve"/>
      <point x="68" y="219" type="line"/>
      <point x="68" y="190"/>
      <point x="68" y="165"/>
      <point x="68" y="136" type="curve" smooth="yes"/>
      <point x="68" y="130"/>
      <point x="73" y="125"/>
      <point x="79" y="125" type="curve"/>
    </contour>
  </outline>
</glyph>
<glyph name="question" format="1">
  <advance width="600"/>
  <unicode hex="003F"/>
  <outline>
    <contour>
      <point x="297" y="720" type="curve" smooth="yes"/>
      <point x="204" y="720"/>
      <point x="120" y="694"/>
      <point x="87" y="661" type="curve" smooth="yes"/>
      <point x="85" y="658"/>
      <point x="84" y="656"/>
      <point x="84" y="651" type="curve" smooth="yes"/>
      <point x="84" y="612"/>
      <point x="84" y="578"/>
      <point x="84" y="561" type="curve"/>
      <point x="99" y="561" type="line"/>
      <point x="163" y="606"/>
      <point x="223" y="623"/>
      <point x="297" y="623" type="curve" smooth="yes"/>
      <point x="395" y="623"/>
      <point x="426" y="593"/>
      <point x="426" y="542" type="curve" smooth="yes"/>
      <point x="426" y="521"/>
      <point x="426" y="503"/>
      <point x="426" y="479" type="curve"/>
      <point x="493" y="479"/>
      <point x="524" y="516"/>
      <point x="524" y="557" type="curve" smooth="yes"/>
      <point x="524" y="647"/>
      <point x="452" y="720"/>
    </contour>
    <contour>
      <point x="426" y="615" type="curve"/>
      <point x="426" y="594"/>
      <point x="426" y="563"/>
      <point x="426" y="529" type="curve" smooth="yes"/>
      <point x="426" y="489"/>
      <point x="412" y="474"/>
      <point x="356" y="436" type="curve" smooth="yes"/>
      <point x="322" y="412" type="line" smooth="yes"/>
      <point x="246" y="361"/>
      <point x="227" y="329"/>
      <point x="227" y="271" type="curve" smooth="yes"/>
      <point x="227" y="255" type="line" smooth="yes"/>
      <point x="227" y="246"/>
      <point x="230" y="244"/>
      <point x="238" y="244" type="curve" smooth="yes"/>
      <point x="326" y="244" type="line"/>
      <point x="326" y="251" type="line" smooth="yes"/>
      <point x="326" y="293"/>
      <point x="334" y="306"/>
      <point x="390" y="344" type="curve" smooth="yes"/>
      <point x="428" y="370" type="line" smooth="yes"/>
      <point x="501" y="420"/>
      <point x="524" y="457"/>
      <point x="524" y="527" type="curve" smooth="yes"/>
      <point x="524" y="557" type="line" smooth="yes"/>
      <point x="524" y="592"/>
      <point x="502" y="615"/>
    </contour>
    <contour>
      <point x="362" y="-7" type="curve"/>
      <point x="362" y="135" type="line" smooth="yes"/>
      <point x="362" y="141"/>
      <point x="357" y="146"/>
      <point x="351" y="146" type="curve" smooth="yes"/>
      <point x="305" y="146"/>
      <point x="248" y="146"/>
      <point x="202" y="146" type="curve"/>
      <point x="202" y="4" type="line" smooth="yes"/>
      <point x="202" y="-2"/>
      <point x="207" y="-7"/>
      <point x="213" y="-7" type="curve" smooth="yes"/>
      <point x="259" y="-7"/>
      <point x="316" y="-7"/>
    </contour>
  </outline>
</glyph>
<glyph name="at" format="1">
  <advance width="600"/>
  <unicode hex="0040"/>
  <outline>
    <contour>
      <point x="460" y="507" type="curve" smooth="yes"/>
      <point x="446" y="524"/>
      <point x="409" y="542"/>
      <point x="364" y="542" type="curve" smooth="yes"/>
      <point x="328" y="542"/>
      <point x="300" y="532"/>
      <point x="279" y="512" type="curve" smooth="yes"/>
      <point x="261" y="494"/>
      <point x="266" y="478"/>
      <point x="330" y="402" type="curve"/>
      <point x="330" y="451"/>
      <point x="353" y="466"/>
      <point x="392" y="466" type="curve" smooth="yes"/>
      <point x="420" y="466"/>
      <point x="442" y="462"/>
      <point x="468" y="449" type="curve"/>
      <point x="474" y="478"/>
      <point x="470" y="495"/>
    </contour>
    <contour>
      <point x="477" y="170" type="curve"/>
      <point x="446" y="126"/>
      <point x="401" y="104"/>
      <point x="365" y="104" type="curve" smooth="yes"/>
      <point x="344" y="104"/>
      <point x="330" y="120"/>
      <point x="330" y="145" type="curve" smooth="yes"/>
      <point x="330" y="402" type="line" smooth="yes"/>
      <point x="330" y="442"/>
      <point x="338" y="466"/>
      <point x="366" y="499" type="curve"/>
      <point x="313" y="527"/>
      <point x="298" y="531"/>
      <point x="279" y="512" type="curve" smooth="yes"/>
      <point x="253" y="486"/>
      <point x="243" y="453"/>
      <point x="243" y="408" type="curve" smooth="yes"/>
      <point x="243" y="130" type="line" smooth="yes"/>
      <point x="243" y="62"/>
      <point x="283" y="20"/>
      <point x="343" y="20" type="curve" smooth="yes"/>
      <point x="391" y="20"/>
      <point x="428" y="40"/>
      <point x="473" y="99" type="curve" smooth="yes"/>
      <point x="479" y="107"/>
      <point x="480" y="115"/>
    </contour>
    <contour>
      <point x="531" y="30" type="line"/>
      <point x="531" y="66"/>
      <point x="531" y="101"/>
      <point x="531" y="136" type="curve"/>
      <point x="531" y="543" type="line" smooth="yes"/>
      <point x="531" y="657"/>
      <point x="464" y="760"/>
      <point x="305" y="760" type="curve" smooth="yes"/>
      <point x="292" y="760"/>
      <point x="287" y="748"/>
      <point x="307" y="690" type="curve"/>
      <point x="385" y="690"/>
      <point x="445" y="658"/>
      <point x="445" y="543" type="curve" smooth="yes"/>
      <point x="445" y="110" type="line" smooth="yes"/>
      <point x="445" y="105"/>
      <point x="486" y="30"/>
      <point x="493" y="30" type="curve" smooth="yes"/>
    </contour>
    <contour>
      <point x="69" y="506" type="curve" smooth="yes"/>
      <point x="69" y="98" type="line" smooth="yes"/>
      <point x="69" y="-9"/>
      <point x="88" y="-75"/>
      <point x="138" y="-125" type="curve" smooth="yes"/>
      <point x="166" y="-153"/>
      <point x="272" y="-164"/>
      <point x="324" y="-121" type="curve"/>
      <point x="181" y="-121"/>
      <point x="143" y="-27"/>
      <point x="143" y="82" type="curve" smooth="yes"/>
      <point x="143" y="490" type="line" smooth="yes"/>
      <point x="143" y="613"/>
      <point x="199" y="690"/>
      <point x="307" y="690" type="curve" smooth="yes"/>
      <point x="368" y="690"/>
      <point x="415" y="669"/>
      <point x="446" y="636" type="curve"/>
      <point x="457" y="642"/>
      <point x="460" y="649"/>
      <point x="460" y="665" type="curve" smooth="yes"/>
      <point x="460" y="715"/>
      <point x="386" y="760"/>
      <point x="305" y="760" type="curve" smooth="yes"/>
      <point x="162" y="760"/>
      <point x="69" y="658"/>
    </contour>
    <contour>
      <point x="317" y="-190" type="curve" smooth="yes"/>
      <point x="382" y="-190"/>
      <point x="449" y="-174"/>
      <point x="464" y="-159" type="curve" smooth="yes"/>
      <point x="466" y="-157"/>
      <point x="467" y="-154"/>
      <point x="467" y="-151" type="curve" smooth="yes"/>
      <point x="467" y="-94" type="line"/>
      <point x="450" y="-94" type="line"/>
      <point x="412" y="-113"/>
      <point x="372" y="-121"/>
      <point x="324" y="-121" type="curve" smooth="yes"/>
      <point x="237" y="-121"/>
      <point x="193" y="-94"/>
      <point x="143" y="-38" type="curve"/>
      <point x="117" y="-72"/>
      <point x="117" y="-104"/>
      <point x="138" y="-125" type="curve"/>
      <point x="177" y="-164"/>
      <point x="239" y="-190"/>
    </contour>
  </outline>
</glyph>
<glyph name="B" format="1">
  <advance width="600"/>
  <unicode hex="0042"/>
  <outline>
    <contour>
      <point x="189" y="8" type="curve"/>
      <point x="189" y="661" type="line" smooth="yes"/>
      <point x="189" y="671"/>
      <point x="157" y="675"/>
      <point x="88" y="675" type="curve"/>
      <point x="88" y="11" type="line"/>
      <point x="88" y="10"/>
      <point x="132" y="8"/>
    </contour>
    <contour>
      <point x="30" y="700" type="curve"/>
      <point x="30" y="677"/>
      <point x="30" y="647"/>
      <point x="30" y="618" type="curve" smooth="yes"/>
      <point x="30" y="615"/>
      <point x="31" y="612"/>
      <point x="33" y="610" type="curve" smooth="yes"/>
      <point x="35" y="608"/>
      <point x="38" y="607"/>
      <point x="41" y="607" type="curve" smooth="yes"/>
      <point x="58" y="607"/>
      <point x="81" y="607"/>
      <point x="103" y="607" type="curve" smooth="yes"/>
      <point x="166" y="607"/>
      <point x="250" y="607"/>
      <point x="312" y="607" type="curve" smooth="yes"/>
      <point x="378" y="607"/>
      <point x="391" y="607"/>
      <point x="431" y="607" type="curve"/>
      <point x="432" y="657"/>
      <point x="397" y="700"/>
      <point x="307" y="700" type="curve" smooth="yes"/>
      <point x="221" y="700"/>
      <point x="118" y="700"/>
    </contour>
    <contour>
      <point x="525" y="506" type="curve" smooth="yes"/>
      <point x="525" y="533" type="line" smooth="yes"/>
      <point x="525" y="623"/>
      <point x="465" y="700"/>
      <point x="307" y="700" type="curve" smooth="yes"/>
      <point x="290" y="700"/>
      <point x="290" y="686"/>
      <point x="312" y="607" type="curve"/>
      <point x="392" y="607"/>
      <point x="424" y="577"/>
      <point x="424" y="519" type="curve" smooth="yes"/>
      <point x="424" y="490" type="line" smooth="yes"/>
      <point x="424" y="431"/>
      <point x="396" y="392"/>
      <point x="295" y="392" type="curve" smooth="yes"/>
      <point x="246" y="392"/>
      <point x="207" y="392"/>
      <point x="159" y="392" type="curve"/>
      <point x="159" y="380"/>
      <point x="159" y="366"/>
      <point x="159" y="354" type="curve" smooth="yes"/>
      <point x="159" y="348"/>
      <point x="164" y="343"/>
      <point x="172" y="343" type="curve" smooth="yes"/>
      <point x="311" y="343" type="line" smooth="yes"/>
      <point x="452" y="343"/>
      <point x="525" y="404"/>
    </contour>
    <contour>
      <point x="532" y="182" type="curve" smooth="yes"/>
      <point x="532" y="212" type="line" smooth="yes"/>
      <point x="532" y="310"/>
      <point x="447" y="368"/>
      <point x="306" y="368" type="curve" smooth="yes"/>
      <point x="172" y="368" type="line" smooth="yes"/>
      <point x="166" y="368"/>
      <point x="159" y="363"/>
      <point x="159" y="358" type="curve"/>
      <point x="159" y="317" type="line"/>
      <point x="291" y="317" type="line"/>
      <point x="399" y="317"/>
      <point x="431" y="280"/>
      <point x="431" y="226" type="curve" smooth="yes"/>
      <point x="431" y="194" type="line" smooth="yes"/>
      <point x="431" y="131"/>
      <point x="395" y="93"/>
      <point x="313" y="93" type="curve" smooth="yes"/>
      <point x="262" y="93"/>
      <point x="201" y="93"/>
      <point x="140" y="93" type="curve"/>
      <point x="90" y="26"/>
      <point x="88" y="17"/>
      <point x="88" y="11" type="curve" smooth="yes"/>
      <point x="88" y="4"/>
      <point x="92" y="0"/>
      <point x="99" y="0" type="curve" smooth="yes"/>
      <point x="327" y="0" type="line" smooth="yes"/>
      <point x="450" y="0"/>
      <point x="532" y="60"/>
    </contour>
  </outline>
</glyph>
<glyph name="C" format="1">
  <advance width="600"/>
  <unicode hex="0043"/>
  <outline>
    <contour>
      <point x="332" y="626" type="curve" smooth="yes"/>
      <point x="407" y="626"/>
      <point x="448" y="604"/>
      <point x="483" y="569" type="curve"/>
      <point x="527" y="615"/>
      <point x="533" y="625"/>
      <point x="533" y="637" type="curve" smooth="yes"/>
      <point x="533" y="648"/>
      <point x="532" y="651"/>
      <point x="527" y="656" type="curve" smooth="yes"/>
      <point x="492" y="691"/>
      <point x="429" y="720"/>
      <point x="334" y="720" type="curve" smooth="yes"/>
      <point x="158" y="720"/>
      <point x="63" y="616"/>
      <point x="63" y="443" type="curve" smooth="yes"/>
      <point x="63" y="250" type="line" smooth="yes"/>
      <point x="63" y="178"/>
      <point x="104" y="119"/>
      <point x="167" y="119" type="curve"/>
      <point x="167" y="160"/>
      <point x="167" y="193"/>
      <point x="167" y="250" type="curve" smooth="yes"/>
      <point x="167" y="443" type="line" smooth="yes"/>
      <point x="167" y="569"/>
      <point x="224" y="626"/>
    </contour>
    <contour>
      <point x="332" y="-20" type="curve" smooth="yes"/>
      <point x="423" y="-20"/>
      <point x="501" y="4"/>
      <point x="534" y="37" type="curve" smooth="yes"/>
      <point x="536" y="39"/>
      <point x="537" y="42"/>
      <point x="537" y="45" type="curve" smooth="yes"/>
      <point x="537" y="74"/>
      <point x="537" y="103"/>
      <point x="537" y="133" type="curve"/>
      <point x="521" y="133" type="line"/>
      <point x="466" y="94"/>
      <point x="410" y="77"/>
      <point x="332" y="77" type="curve" smooth="yes"/>
      <point x="227" y="77"/>
      <point x="167" y="139"/>
      <point x="167" y="262" type="curve"/>
      <point x="94" y="267"/>
      <point x="63" y="259"/>
      <point x="63" y="250" type="curve" smooth="yes"/>
      <point x="63" y="83"/>
      <point x="156" y="-20"/>
    </contour>
    <contour>
      <point x="533" y="480" type="curve"/>
      <point x="533" y="637" type="line" smooth="yes"/>
      <point x="533" y="650"/>
      <point x="510" y="656"/>
      <point x="440" y="656" type="curve"/>
      <point x="440" y="642"/>
      <point x="440" y="628"/>
      <point x="440" y="617" type="curve" smooth="yes"/>
      <point x="440" y="491" type="line"/>
      <point x="440" y="488"/>
      <point x="441" y="485"/>
      <point x="443" y="483" type="curve" smooth="yes"/>
      <point x="445" y="481"/>
      <point x="448" y="480"/>
      <point x="451" y="480" type="curve"/>
      <point x="478" y="480"/>
      <point x="506" y="480"/>
    </contour>
    <contour>
      <point x="318" y="711" type="move" name="top"/>
    </contour>
    <contour>
      <point x="328" y="-1" type="move" name="bottom"/>
    </contour>
  </outline>
</glyph>
<glyph name="E" format="1">
  <advance width="600"/>
  <unicode hex="0045"/>
  <outline>
    <contour>
      <point x="30" y="700" type="line"/>
      <point x="30" y="671"/>
      <point x="30" y="647"/>
      <point x="30" y="618" type="curve" smooth="yes"/>
      <point x="30" y="615"/>
      <point x="31" y="612"/>
      <point x="33" y="610" type="curve" smooth="yes"/>
      <point x="35" y="608"/>
      <point x="38" y="607"/>
      <point x="41" y="607" type="curve" smooth="yes"/>
      <point x="535" y="607" type="line"/>
      <point x="535" y="636"/>
      <point x="535" y="660"/>
      <point x="535" y="689" type="curve" smooth="yes"/>
      <point x="535" y="692"/>
      <point x="534" y="695"/>
      <point x="532" y="697" type="curve" smooth="yes"/>
      <point x="530" y="699"/>
      <point x="527" y="700"/>
      <point x="524" y="700" type="curve" smooth="yes"/>
    </contour>
    <contour>
      <point x="191" y="62" type="curve"/>
      <point x="191" y="660" type="line" smooth="yes"/>
      <point x="191" y="666"/>
      <point x="186" y="671"/>
      <point x="88" y="671" type="curve"/>
      <point x="88" y="93" type="line"/>
      <point x="88" y="80"/>
      <point x="105" y="62"/>
    </contour>
    <contour>
      <point x="88" y="93" type="line"/>
      <point x="88" y="11" type="line" smooth="yes"/>
      <point x="88" y="5"/>
      <point x="93" y="0"/>
      <point x="99" y="0" type="curve" smooth="yes"/>
      <point x="535" y="0" type="line"/>
      <point x="535" y="29"/>
      <point x="535" y="53"/>
      <point x="535" y="82" type="curve" smooth="yes"/>
      <point x="535" y="88"/>
      <point x="530" y="93"/>
      <point x="524" y="93" type="curve" smooth="yes"/>
    </contour>
    <contour>
      <point x="132" y="399" type="line"/>
      <point x="132" y="313"/>
      <point x="137" y="308"/>
      <point x="143" y="308" type="curve" smooth="yes"/>
      <point x="480" y="308" type="line"/>
      <point x="480" y="334"/>
      <point x="480" y="358"/>
      <point x="480" y="388" type="curve" smooth="yes"/>
      <point x="480" y="391"/>
      <point x="479" y="394"/>
      <point x="477" y="396" type="curve" smooth="yes"/>
      <point x="475" y="398"/>
      <point x="472" y="399"/>
      <point x="469" y="399" type="curve" smooth="yes"/>
    </contour>
    <contour>
      <point x="300" y="711" type="move" name="top"/>
    </contour>
    <contour>
      <point x="536" y="0" type="move" name="ogonek"/>
    </contour>
    <contour>
      <point x="320" y="-1" type="move" name="bottom"/>
    </contour>
  </outline>
</glyph>
<glyph name="F" format="1">
  <advance width="600"/>
  <unicode hex="0046"/>
  <outline>
    <contour>
      <point x="214" y="0" type="curve"/>
      <point x="214" y="32"/>
      <point x="214" y="65"/>
      <point x="214" y="98" type="curve" smooth="yes"/>
      <point x="214" y="655" type="line"/>
      <point x="214" y="663"/>
      <point x="204" y="669"/>
      <point x="110" y="669" type="curve"/>
      <point x="110" y="11" type="line" smooth="yes"/>
      <point x="110" y="5"/>
      <point x="115" y="0"/>
      <point x="121" y="0" type="curve" smooth="yes"/>
      <point x="152" y="0"/>
      <point x="183" y="0"/>
    </contour>
    <contour>
      <point x="53" y="700" type="line"/>
      <point x="53" y="671"/>
      <point x="53" y="647"/>
      <point x="53" y="618" type="curve" smooth="yes"/>
      <point x="53" y="615"/>
      <point x="54" y="612"/>
      <point x="56" y="610" type="curve" smooth="yes"/>
      <point x="58" y="608"/>
      <point x="61" y="607"/>
      <point x="64" y="607" type="curve"/>
      <point x="535" y="607" type="line"/>
      <point x="535" y="636"/>
      <point x="535" y="660"/>
      <point x="535" y="689" type="curve" smooth="yes"/>
      <point x="535" y="692"/>
      <point x="534" y="695"/>
      <point x="532" y="697" type="curve" smooth="yes"/>
      <point x="530" y="699"/>
      <point x="527" y="700"/>
      <point x="524" y="700" type="curve"/>
    </contour>
    <contour>
      <point x="155" y="375" type="line"/>
      <point x="155" y="292"/>
      <point x="158" y="282"/>
      <point x="166" y="282" type="curve"/>
      <point x="490" y="282" type="line"/>
      <point x="490" y="311"/>
      <point x="490" y="335"/>
      <point x="490" y="364" type="curve"/>
      <point x="490" y="367"/>
      <point x="489" y="370"/>
      <point x="487" y="372" type="curve" smooth="yes"/>
      <point x="485" y="374"/>
      <point x="482" y="375"/>
      <point x="479" y="375" type="curve"/>
    </contour>
  </outline>
</glyph>
<glyph name="H" format="1">
  <advance width="600"/>
  <unicode hex="0048"/>
  <outline>
    <contour>
      <point x="76" y="700" type="curve"/>
      <point x="76" y="666"/>
      <point x="76" y="632"/>
      <point x="76" y="597" type="curve" smooth="yes"/>
      <point x="76" y="11" type="line" smooth="yes"/>
      <point x="76" y="5"/>
      <point x="81" y="0"/>
      <point x="87" y="0" type="curve" smooth="yes"/>
      <point x="118" y="0"/>
      <point x="149" y="0"/>
      <point x="179" y="0" type="curve"/>
      <point x="179" y="689" type="line" smooth="yes"/>
      <point x="179" y="692"/>
      <point x="178" y="695"/>
      <point x="176" y="697" type="curve" smooth="yes"/>
      <point x="174" y="699"/>
      <point x="171" y="700"/>
      <point x="168" y="700" type="curve" smooth="yes"/>
      <point x="138" y="700"/>
      <point x="107" y="700"/>
    </contour>
    <contour>
      <point x="524" y="0" type="curve"/>
      <point x="524" y="33"/>
      <point x="524" y="68"/>
      <point x="524" y="105" type="curve" smooth="yes"/>
      <point x="524" y="689" type="line" smooth="yes"/>
      <point x="524" y="695"/>
      <point x="519" y="700"/>
      <point x="513" y="700" type="curve" smooth="yes"/>
      <point x="482" y="700"/>
      <point x="451" y="700"/>
      <point x="421" y="700" type="curve"/>
      <point x="421" y="11" type="line" smooth="yes"/>
      <point x="421" y="8"/>
      <point x="422" y="5"/>
      <point x="424" y="3" type="curve" smooth="yes"/>
      <point x="426" y="1"/>
      <point x="429" y="0"/>
      <point x="432" y="0" type="curve" smooth="yes"/>
      <point x="462" y="0"/>
      <point x="493" y="0"/>
    </contour>
    <contour>
      <point x="126" y="399" type="line"/>
      <point x="126" y="317" type="line" smooth="yes"/>
      <point x="126" y="314"/>
      <point x="127" y="311"/>
      <point x="129" y="309" type="curve" smooth="yes"/>
      <point x="131" y="307"/>
      <point x="134" y="306"/>
      <point x="137" y="306" type="curve"/>
      <point x="480" y="306" type="line"/>
      <point x="480" y="399"/>
      <point x="475" y="399"/>
      <point x="469" y="399" type="curve" smooth="yes"/>
    </contour>
    <contour>
      <point x="300" y="711" type="move" name="top"/>
    </contour>
  </outline>
</glyph>
<glyph name="I" format="1">
  <advance width="600"/>
  <unicode hex="0049"/>
  <outline>
    <contour>
      <point x="352" y="35" type="curve"/>
      <point x="352" y="654" type="line" smooth="yes"/>
      <point x="352" y="660"/>
      <point x="347" y="665"/>
      <point x="248" y="665" type="curve"/>
      <point x="248" y="46" type="line" smooth="yes"/>
      <point x="248" y="40"/>
      <point x="253" y="35"/>
    </contour>
    <contour>
      <point x="80" y="700" type="line"/>
      <point x="80" y="671"/>
      <point x="80" y="647"/>
      <point x="80" y="618" type="curve"/>
      <point x="80" y="615"/>
      <point x="81" y="612"/>
      <point x="83" y="610" type="curve" smooth="yes"/>
      <point x="85" y="608"/>
      <point x="88" y="607"/>
      <point x="91" y="607" type="curve" smooth="yes"/>
      <point x="520" y="607" type="line"/>
      <point x="520" y="636"/>
      <point x="520" y="660"/>
      <point x="520" y="689" type="curve" smooth="yes"/>
      <point x="520" y="695"/>
      <point x="515" y="700"/>
      <point x="509" y="700" type="curve" smooth="yes"/>
    </contour>
    <contour>
      <point x="80" y="93" type="line"/>
      <point x="80" y="64"/>
      <point x="80" y="40"/>
      <point x="80" y="11" type="curve"/>
      <point x="80" y="8"/>
      <point x="81" y="5"/>
      <point x="83" y="3" type="curve" smooth="yes"/>
      <point x="85" y="1"/>
      <point x="88" y="0"/>
      <point x="91" y="0" type="curve" smooth="yes"/>
      <point x="520" y="0" type="line"/>
      <point x="520" y="29"/>
      <point x="520" y="54"/>
      <point x="520" y="82" type="curve" smooth="yes"/>
      <point x="520" y="88"/>
      <point x="515" y="93"/>
      <point x="509" y="93" type="curve" smooth="yes"/>
    </contour>
    <contour>
      <point x="300" y="711" type="move" name="top"/>
    </contour>
    <contour>
      <point x="521" y="0" type="move" name="ogonek"/>
    </contour>
    <contour>
      <point x="300" y="-1" type="move" name="bottom"/>
    </contour>
  </outline>
</glyph>
<glyph name="J" format="1">
  <advance width="600"/>
  <unicode hex="004A"/>
  <outline>
    <contour>
      <point x="131" y="700" type="line"/>
      <point x="131" y="671"/>
      <point x="131" y="647"/>
      <point x="131" y="618" type="curve" smooth="yes"/>
      <point x="131" y="615"/>
      <point x="132" y="612"/>
      <point x="134" y="610" type="curve" smooth="yes"/>
      <point x="136" y="608"/>
      <point x="139" y="607"/>
      <point x="142" y="607" type="curve" smooth="yes"/>
      <point x="460" y="607" type="line"/>
      <point x="460" y="654"/>
      <point x="448" y="700"/>
      <point x="418" y="700" type="curve"/>
    </contour>
    <contour>
      <point x="500" y="232" type="curve" smooth="yes"/>
      <point x="500" y="689" type="line" smooth="yes"/>
      <point x="500" y="696"/>
      <point x="496" y="700"/>
      <point x="489" y="700" type="curve" smooth="yes"/>
      <point x="395" y="700" type="line"/>
      <point x="395" y="226" type="line" smooth="yes"/>
      <point x="395" y="170"/>
      <point x="395" y="144"/>
      <point x="395" y="110" type="curve"/>
      <point x="471" y="110"/>
      <point x="500" y="155"/>
    </contour>
    <contour>
      <point x="253" y="74" type="curve" smooth="yes"/>
      <point x="202" y="74"/>
      <point x="160" y="86"/>
      <point x="111" y="113" type="curve"/>
      <point x="95" y="113" type="line"/>
      <point x="95" y="82"/>
      <point x="95" y="58"/>
      <point x="95" y="28" type="curve"/>
      <point x="95" y="24"/>
      <point x="96" y="22"/>
      <point x="98" y="20" type="curve" smooth="yes"/>
      <point x="118" y="0"/>
      <point x="184" y="-20"/>
      <point x="244" y="-20" type="curve" smooth="yes"/>
      <point x="261" y="-20" type="line" smooth="yes"/>
      <point x="424" y="-20"/>
      <point x="500" y="85"/>
      <point x="500" y="232" type="curve"/>
      <point x="500" y="245"/>
      <point x="494" y="255"/>
      <point x="395" y="226" type="curve"/>
      <point x="395" y="124"/>
      <point x="353" y="74"/>
    </contour>
    <contour>
      <point x="298" y="711" type="move" name="top"/>
    </contour>
  </outline>
</glyph>
<glyph name="K" format="1">
  <advance width="600"/>
  <unicode hex="004B"/>
  <outline>
    <contour>
      <point x="80" y="700" type="curve"/>
      <point x="80" y="666"/>
      <point x="80" y="632"/>
      <point x="80" y="597" type="curve" smooth="yes"/>
      <point x="80" y="11" type="line" smooth="yes"/>
      <point x="80" y="5"/>
      <point x="85" y="0"/>
      <point x="91" y="0" type="curve" smooth="yes"/>
      <point x="122" y="0"/>
      <point x="153" y="0"/>
      <point x="184" y="0" type="curve"/>
      <point x="184" y="689" type="line" smooth="yes"/>
      <point x="184" y="692"/>
      <point x="183" y="695"/>
      <point x="181" y="697" type="curve" smooth="yes"/>
      <point x="179" y="699"/>
      <point x="176" y="700"/>
      <point x="173" y="700" type="curve" smooth="yes"/>
      <point x="142" y="700"/>
      <point x="111" y="700"/>
    </contour>
    <contour>
      <point x="540" y="700" type="curve"/>
      <point x="435" y="700" type="line"/>
      <point x="334" y="553"/>
      <point x="223" y="393"/>
      <point x="127" y="252" type="curve"/>
      <point x="118" y="241"/>
      <point x="118" y="232"/>
      <point x="158" y="156" type="curve"/>
      <point x="298" y="345"/>
      <point x="421" y="511"/>
      <point x="507" y="629" type="curve" smooth="yes"/>
      <point x="547" y="683"/>
      <point x="549" y="687"/>
      <point x="549" y="693" type="curve" smooth="yes"/>
      <point x="549" y="697"/>
      <point x="545" y="700"/>
    </contour>
    <contour>
      <point x="299" y="401" type="line"/>
      <point x="237" y="322"/>
      <point x="235" y="312"/>
      <point x="242" y="303" type="curve" smooth="yes"/>
      <point x="401" y="62" type="line" smooth="yes"/>
      <point x="435" y="11"/>
      <point x="459" y="-5"/>
      <point x="520" y="-5" type="curve" smooth="yes"/>
      <point x="554" y="-5" type="line" smooth="yes"/>
      <point x="561" y="-5"/>
      <point x="565" y="-1"/>
      <point x="565" y="6" type="curve" smooth="yes"/>
      <point x="565" y="35"/>
      <point x="565" y="65"/>
      <point x="565" y="94" type="curve"/>
      <point x="557" y="94" type="line"/>
      <point x="550" y="94"/>
      <point x="545" y="94"/>
      <point x="535" y="94" type="curve" smooth="yes"/>
      <point x="507" y="94"/>
      <point x="497" y="99"/>
      <point x="480" y="125" type="curve" smooth="yes"/>
    </contour>
    <contour>
      <point x="323" y="-1" type="move" name="bottom"/>
    </contour>
  </outline>
</glyph>
<glyph name="L" format="1">
  <advance width="600"/>
  <unicode hex="004C"/>
  <outline>
    <contour>
      <point x="184" y="62" type="curve"/>
      <point x="184" y="689" type="line" smooth="yes"/>
      <point x="184" y="692"/>
      <point x="183" y="695"/>
      <point x="181" y="697" type="curve" smooth="yes"/>
      <point x="179" y="699"/>
      <point x="176" y="700"/>
      <point x="173" y="700" type="curve" smooth="yes"/>
      <point x="142" y="700"/>
      <point x="111" y="700"/>
      <point x="80" y="700" type="curve"/>
      <point x="80" y="667"/>
      <point x="80" y="634"/>
      <point x="80" y="601" type="curve" smooth="yes"/>
      <point x="80" y="93" type="line" smooth="yes"/>
      <point x="80" y="87"/>
      <point x="85" y="62"/>
    </contour>
    <contour>
      <point x="80" y="93" type="line"/>
      <point x="80" y="11" type="line" smooth="yes"/>
      <point x="80" y="4"/>
      <point x="85" y="0"/>
      <point x="91" y="0" type="curve" smooth="yes"/>
      <point x="535" y="0" type="line"/>
      <point x="535" y="29"/>
      <point x="535" y="53"/>
      <point x="535" y="82" type="curve" smooth="yes"/>
      <point x="535" y="88"/>
      <point x="530" y="93"/>
      <point x="524" y="93" type="curve" smooth="yes"/>
    </contour>
    <contour>
      <point x="417" y="550" type="move" name="caronslovak"/>
    </contour>
    <contour>
      <point x="132" y="711" type="move" name="top"/>
    </contour>
    <contour>
      <point x="394" y="400" type="move" name="dot"/>
    </contour>
    <contour>
      <point x="308" y="-1" type="move" name="bottom"/>
    </contour>
  </outline>
</glyph>
<glyph name="M" format="1">
  <advance width="600"/>
  <unicode hex="004D"/>
  <outline>
    <contour>
      <point x="161" y="0" type="curve"/>
      <point x="161" y="54"/>
      <point x="161" y="108"/>
      <point x="161" y="162" type="curve" smooth="yes"/>
      <point x="161" y="271"/>
      <point x="141" y="553"/>
      <point x="141" y="689" type="curve" smooth="yes"/>
      <point x="141" y="692"/>
      <point x="140" y="695"/>
      <point x="138" y="697" type="curve" smooth="yes"/>
      <point x="136" y="699"/>
      <point x="133" y="700"/>
      <point x="130" y="700" type="curve" smooth="yes"/>
      <point x="108" y="700"/>
      <point x="80" y="700"/>
      <point x="62" y="700" type="curve"/>
      <point x="62" y="667"/>
      <point x="62" y="633"/>
      <point x="62" y="600" type="curve" smooth="yes"/>
      <point x="62" y="11" type="line" smooth="yes"/>
      <point x="62" y="8"/>
      <point x="63" y="5"/>
      <point x="65" y="3" type="curve" smooth="yes"/>
      <point x="67" y="1"/>
      <point x="70" y="0"/>
      <point x="73" y="0" type="curve" smooth="yes"/>
      <point x="102" y="0"/>
      <point x="132" y="0"/>
    </contour>
    <contour>
      <point x="538" y="0" type="curve"/>
      <point x="538" y="34"/>
      <point x="538" y="68"/>
      <point x="538" y="101" type="curve" smooth="yes"/>
      <point x="538" y="689" type="line" smooth="yes"/>
      <point x="538" y="692"/>
      <point x="537" y="695"/>
      <point x="535" y="697" type="curve" smooth="yes"/>
      <point x="533" y="699"/>
      <point x="530" y="700"/>
      <point x="527" y="700" type="curve" smooth="yes"/>
      <point x="459" y="700" type="line"/>
      <point x="459" y="697"/>
      <point x="459" y="695"/>
      <point x="459" y="691" type="curve" smooth="yes"/>
      <point x="459" y="594"/>
      <point x="439" y="269"/>
      <point x="439" y="162" type="curve" smooth="yes"/>
      <point x="439" y="112"/>
      <point x="439" y="61"/>
      <point x="439" y="11" type="curve" smooth="yes"/>
      <point x="439" y="8"/>
      <point x="440" y="5"/>
      <point x="442" y="3" type="curve" smooth="yes"/>
      <point x="444" y="1"/>
      <point x="447" y="0"/>
      <point x="450" y="0" type="curve"/>
      <point x="479" y="0"/>
      <point x="509" y="0"/>
    </contour>
    <contour>
      <point x="84" y="700" type="line"/>
      <point x="151" y="522"/>
      <point x="218" y="345"/>
      <point x="285" y="169" type="curve"/>
      <point x="288" y="164"/>
      <point x="293" y="162"/>
      <point x="297" y="162" type="curve"/>
      <point x="309" y="162"/>
      <point x="315" y="231"/>
      <point x="315" y="289" type="curve"/>
      <point x="265" y="423"/>
      <point x="217" y="555"/>
      <point x="168" y="689" type="curve"/>
      <point x="165" y="697"/>
      <point x="161" y="700"/>
      <point x="153" y="700" type="curve"/>
    </contour>
    <contour>
      <point x="464" y="700" type="curve" smooth="yes"/>
      <point x="455" y="700"/>
      <point x="447" y="700"/>
      <point x="438" y="700" type="curve"/>
      <point x="388" y="563"/>
      <point x="336" y="423"/>
      <point x="285" y="287" type="curve"/>
      <point x="271" y="246"/>
      <point x="284" y="162"/>
      <point x="297" y="162" type="curve"/>
      <point x="308" y="162" type="line"/>
      <point x="373" y="326"/>
      <point x="438" y="490"/>
      <point x="502" y="654" type="curve"/>
      <point x="512" y="679"/>
      <point x="497" y="700"/>
    </contour>
  </outline>
</glyph>
<glyph name="N" format="1">
  <advance width="600"/>
  <unicode hex="004E"/>
  <outline>
    <contour>
      <point x="170" y="0" type="curve"/>
      <point x="170" y="434" type="line"/>
      <point x="170" y="455"/>
      <point x="151" y="694"/>
      <point x="147" y="697" type="curve" smooth="yes"/>
      <point x="145" y="699"/>
      <point x="142" y="700"/>
      <point x="139" y="700" type="curve"/>
      <point x="118" y="700"/>
      <point x="80" y="700"/>
      <point x="71" y="700" type="curve"/>
      <point x="71" y="653"/>
      <point x="71" y="607"/>
      <point x="71" y="560" type="curve" smooth="yes"/>
      <point x="71" y="11" type="line"/>
      <point x="71" y="5"/>
      <point x="76" y="0"/>
      <point x="82" y="0" type="curve"/>
      <point x="111" y="0"/>
      <point x="141" y="0"/>
    </contour>
    <contour>
      <point x="529" y="0" type="line"/>
      <point x="529" y="689" type="line"/>
      <point x="529" y="695"/>
      <point x="524" y="700"/>
      <point x="518" y="700" type="curve"/>
      <point x="430" y="700" type="line"/>
      <point x="430" y="245" type="line"/>
      <point x="430" y="229"/>
      <point x="451" y="5"/>
      <point x="453" y="3" type="curve" smooth="yes"/>
      <point x="455" y="1"/>
      <point x="458" y="0"/>
      <point x="461" y="0" type="curve"/>
    </contour>
    <contour>
      <point x="139" y="700" type="line"/>
      <point x="93" y="695"/>
      <point x="96" y="683"/>
      <point x="102" y="670" type="curve" smooth="yes"/>
      <point x="209" y="449"/>
      <point x="315" y="228"/>
      <point x="423" y="7" type="curve"/>
      <point x="426" y="2"/>
      <point x="430" y="0"/>
      <point x="436" y="0" type="curve" smooth="yes"/>
      <point x="450" y="0"/>
      <point x="459" y="0"/>
      <point x="472" y="0" type="curve"/>
      <point x="479" y="6"/>
      <point x="477" y="64"/>
      <point x="473" y="98" type="curve"/>
      <point x="378" y="296"/>
      <point x="283" y="495"/>
      <point x="190" y="690" type="curve"/>
      <point x="186" y="698"/>
      <point x="183" y="700"/>
      <point x="173" y="700" type="curve"/>
    </contour>
    <contour>
      <point x="300" y="711" type="move" name="top"/>
    </contour>
    <contour>
      <point x="300" y="-1" type="move" name="bottom"/>
    </contour>
  </outline>
</glyph>
<glyph name="O" format="1">
  <advance width="600"/>
  <unicode hex="004F"/>
  <outline>
    <contour>
      <point x="298" y="720" type="curve" smooth="yes"/>
      <point x="164" y="720"/>
      <point x="61" y="633"/>
      <point x="61" y="467" type="curve" smooth="yes"/>
      <point x="61" y="223" type="line" smooth="yes"/>
      <point x="61" y="63"/>
      <point x="151" y="-20"/>
      <point x="302" y="-20" type="curve" smooth="yes"/>
      <point x="316" y="-20"/>
      <point x="326" y="-5"/>
      <point x="300" y="73" type="curve"/>
      <point x="187" y="73"/>
      <point x="160" y="143"/>
      <point x="160" y="226" type="curve" smooth="yes"/>
      <point x="160" y="466" type="line" smooth="yes"/>
      <point x="160" y="567"/>
      <point x="207" y="627"/>
      <point x="300" y="627" type="curve" smooth="yes"/>
      <point x="347" y="627"/>
      <point x="374" y="627"/>
      <point x="395" y="627" type="curve"/>
      <point x="395" y="677"/>
      <point x="380" y="720"/>
    </contour>
    <contour>
      <point x="302" y="-20" type="curve" smooth="yes"/>
      <point x="435" y="-20"/>
      <point x="538" y="67"/>
      <point x="538" y="233" type="curve" smooth="yes"/>
      <point x="538" y="477" type="line" smooth="yes"/>
      <point x="538" y="637"/>
      <point x="448" y="720"/>
      <point x="298" y="720" type="curve" smooth="yes"/>
      <point x="284" y="720"/>
      <point x="274" y="705"/>
      <point x="300" y="627" type="curve"/>
      <point x="413" y="627"/>
      <point x="440" y="556"/>
      <point x="440" y="474" type="curve" smooth="yes"/>
      <point x="440" y="234" type="line" smooth="yes"/>
      <point x="440" y="133"/>
      <point x="393" y="73"/>
      <point x="300" y="73" type="curve" smooth="yes"/>
      <point x="253" y="73"/>
      <point x="226" y="73"/>
      <point x="205" y="73" type="curve"/>
      <point x="205" y="23"/>
      <point x="220" y="-20"/>
    </contour>
    <contour>
      <point x="300" y="711" type="move" name="top"/>
    </contour>
    <contour>
      <point x="407" y="9" type="move" name="ogonek"/>
    </contour>
    <contour>
      <point x="300" y="-1" type="move" name="bottom"/>
    </contour>
  </outline>
</glyph>
<glyph name="P" format="1">
  <advance width="600"/>
  <unicode hex="0050"/>
  <outline>
    <contour>
      <point x="189" y="0" type="curve"/>
      <point x="189" y="32"/>
      <point x="189" y="66"/>
      <point x="189" y="100" type="curve" smooth="yes"/>
      <point x="189" y="654" type="line" smooth="yes"/>
      <point x="189" y="660"/>
      <point x="184" y="665"/>
      <point x="88" y="665" type="curve"/>
      <point x="88" y="11" type="line" smooth="yes"/>
      <point x="88" y="8"/>
      <point x="89" y="5"/>
      <point x="91" y="3" type="curve" smooth="yes"/>
      <point x="93" y="1"/>
      <point x="96" y="0"/>
      <point x="99" y="0" type="curve" smooth="yes"/>
      <point x="129" y="0"/>
      <point x="159" y="0"/>
    </contour>
    <contour>
      <point x="35" y="700" type="curve"/>
      <point x="35" y="671"/>
      <point x="35" y="647"/>
      <point x="35" y="618" type="curve"/>
      <point x="35" y="615"/>
      <point x="36" y="612"/>
      <point x="38" y="610" type="curve" smooth="yes"/>
      <point x="40" y="608"/>
      <point x="43" y="607"/>
      <point x="46" y="607" type="curve" smooth="yes"/>
      <point x="64" y="607"/>
      <point x="86" y="607"/>
      <point x="110" y="607" type="curve" smooth="yes"/>
      <point x="167" y="607"/>
      <point x="257" y="607"/>
      <point x="310" y="607" type="curve" smooth="yes"/>
      <point x="362" y="607"/>
      <point x="378" y="607"/>
      <point x="405" y="607" type="curve"/>
      <point x="405" y="661"/>
      <point x="375" y="700"/>
      <point x="308" y="700" type="curve" smooth="yes"/>
      <point x="235" y="700"/>
      <point x="121" y="700"/>
    </contour>
    <contour>
      <point x="540" y="434" type="curve" smooth="yes"/>
      <point x="540" y="502" type="line" smooth="yes"/>
      <point x="540" y="644"/>
      <point x="451" y="700"/>
      <point x="308" y="700" type="curve"/>
      <point x="305" y="700"/>
      <point x="289" y="685"/>
      <point x="310" y="607" type="curve"/>
      <point x="399" y="607"/>
      <point x="436" y="578"/>
      <point x="436" y="504" type="curve" smooth="yes"/>
      <point x="436" y="436" type="line" smooth="yes"/>
      <point x="436" y="370"/>
      <point x="395" y="331"/>
      <point x="320" y="331" type="curve" smooth="yes"/>
      <point x="276" y="331"/>
      <point x="209" y="331"/>
      <point x="158" y="331" type="curve"/>
      <point x="158" y="300"/>
      <point x="158" y="283"/>
      <point x="158" y="248" type="curve" smooth="yes"/>
      <point x="158" y="242"/>
      <point x="163" y="237"/>
      <point x="169" y="237" type="curve" smooth="yes"/>
      <point x="326" y="237" type="line" smooth="yes"/>
      <point x="459" y="237"/>
      <point x="540" y="311"/>
    </contour>
  </outline>
</glyph>
<glyph name="Q" format="1">
  <advance width="600"/>
  <unicode hex="0051"/>
  <outline>
    <contour>
      <point x="298" y="720" type="curve" smooth="yes"/>
      <point x="164" y="720"/>
      <point x="61" y="633"/>
      <point x="61" y="467" type="curve" smooth="yes"/>
      <point x="61" y="223" type="line" smooth="yes"/>
      <point x="61" y="63"/>
      <point x="151" y="-20"/>
      <point x="302" y="-20" type="curve" smooth="yes"/>
      <point x="316" y="-20"/>
      <point x="326" y="-5"/>
      <point x="300" y="73" type="curve"/>
      <point x="187" y="73"/>
      <point x="160" y="144"/>
      <point x="160" y="226" type="curve" smooth="yes"/>
      <point x="160" y="466" type="line" smooth="yes"/>
      <point x="160" y="567"/>
      <point x="206" y="627"/>
      <point x="300" y="627" type="curve" smooth="yes"/>
      <point x="347" y="627"/>
      <point x="374" y="627"/>
      <point x="395" y="627" type="curve"/>
      <point x="395" y="677"/>
      <point x="379" y="720"/>
    </contour>
    <contour>
      <point x="302" y="-20" type="curve" smooth="yes"/>
      <point x="435" y="-20"/>
      <point x="538" y="67"/>
      <point x="538" y="233" type="curve" smooth="yes"/>
      <point x="538" y="477" type="line" smooth="yes"/>
      <point x="538" y="637"/>
      <point x="448" y="720"/>
      <point x="298" y="720" type="curve" smooth="yes"/>
      <point x="284" y="720"/>
      <point x="274" y="705"/>
      <point x="300" y="627" type="curve"/>
      <point x="413" y="627"/>
      <point x="440" y="556"/>
      <point x="440" y="474" type="curve" smooth="yes"/>
      <point x="440" y="234" type="line" smooth="yes"/>
      <point x="440" y="133"/>
      <point x="393" y="73"/>
      <point x="300" y="73" type="curve" smooth="yes"/>
      <point x="253" y="73"/>
      <point x="226" y="73"/>
      <point x="205" y="73" type="curve"/>
      <point x="205" y="23"/>
      <point x="220" y="-20"/>
    </contour>
    <contour>
      <point x="420" y="82" type="line"/>
      <point x="340" y="47"/>
      <point x="330" y="40"/>
      <point x="340" y="25" type="curve" smooth="yes"/>
      <point x="417" y="-90" type="line" smooth="yes"/>
      <point x="448" y="-136"/>
      <point x="473" y="-155"/>
      <point x="530" y="-155" type="curve" smooth="yes"/>
      <point x="558" y="-155" type="line" smooth="yes"/>
      <point x="565" y="-155"/>
      <point x="569" y="-151"/>
      <point x="569" y="-144" type="curve" smooth="yes"/>
      <point x="569" y="-113"/>
      <point x="569" y="-82"/>
      <point x="569" y="-52" type="curve"/>
      <point x="561" y="-52" type="line"/>
      <point x="556" y="-52"/>
      <point x="551" y="-52"/>
      <point x="544" y="-52" type="curve" smooth="yes"/>
      <point x="517" y="-52"/>
      <point x="506" y="-47"/>
      <point x="490" y="-23" type="curve" smooth="yes"/>
    </contour>
  </outline>
</glyph>
<glyph name="T" format="1">
  <advance width="600"/>
  <unicode hex="0054"/>
  <outline>
    <contour>
      <point x="55" y="700" type="line"/>
      <point x="55" y="672"/>
      <point x="55" y="646"/>
      <point x="55" y="618" type="curve" smooth="yes"/>
      <point x="55" y="615"/>
      <point x="56" y="612"/>
      <point x="58" y="610" type="curve" smooth="yes"/>
      <point x="60" y="608"/>
      <point x="63" y="607"/>
      <point x="66" y="607" type="curve" smooth="yes"/>
      <point x="545" y="607" type="line"/>
      <point x="545" y="635"/>
      <point x="545" y="661"/>
      <point x="545" y="689" type="curve" smooth="yes"/>
      <point x="545" y="695"/>
      <point x="540" y="700"/>
      <point x="534" y="700" type="curve" smooth="yes"/>
    </contour>
    <contour>
      <point x="352" y="0" type="curve"/>
      <point x="352" y="32"/>
      <point x="352" y="66"/>
      <point x="352" y="100" type="curve" smooth="yes"/>
      <point x="352" y="654" type="line" smooth="yes"/>
      <point x="352" y="660"/>
      <point x="347" y="665"/>
      <point x="248" y="665" type="curve"/>
      <point x="248" y="11" type="line" smooth="yes"/>
      <point x="248" y="8"/>
      <point x="249" y="5"/>
      <point x="251" y="3" type="curve" smooth="yes"/>
      <point x="253" y="1"/>
      <point x="256" y="0"/>
      <point x="259" y="0" type="curve" smooth="yes"/>
      <point x="290" y="0"/>
      <point x="321" y="0"/>
    </contour>
    <contour>
      <point x="300" y="711" type="move" name="top"/>
    </contour>
    <contour>
      <point x="300" y="-1" type="move" name="bottom"/>
    </contour>
  </outline>
</glyph>
<glyph name="U" format="1">
  <advance width="600"/>
  <unicode hex="0055"/>
  <outline>
    <contour>
      <point x="69" y="700" type="curve"/>
      <point x="69" y="667"/>
      <point x="69" y="633"/>
      <point x="69" y="600" type="curve" smooth="yes"/>
      <point x="69" y="148" type="line"/>
      <point x="69" y="120"/>
      <point x="107" y="106"/>
      <point x="172" y="106" type="curve"/>
      <point x="172" y="134"/>
      <point x="172" y="145"/>
      <point x="172" y="178" type="curve" smooth="yes"/>
      <point x="172" y="689" type="line"/>
      <point x="172" y="695"/>
      <point x="167" y="700"/>
      <point x="161" y="700" type="curve"/>
      <point x="130" y="700"/>
      <point x="100" y="700"/>
    </contour>
    <contour>
      <point x="224" y="-15" type="curve" smooth="yes"/>
      <point x="293" y="-15"/>
      <point x="371" y="24"/>
      <point x="417" y="79" type="curve" smooth="yes"/>
      <point x="454" y="119"/>
      <point x="470" y="161"/>
      <point x="457" y="213" type="curve"/>
      <point x="374" y="117"/>
      <point x="316" y="87"/>
      <point x="250" y="87" type="curve" smooth="yes"/>
      <point x="203" y="87"/>
      <point x="172" y="120"/>
      <point x="172" y="178" type="curve"/>
      <point x="92" y="177"/>
      <point x="69" y="162"/>
      <point x="69" y="148" type="curve" smooth="yes"/>
      <point x="69" y="61"/>
      <point x="123" y="-15"/>
    </contour>
    <contour>
      <point x="529" y="0" type="curve"/>
      <point x="529" y="33"/>
      <point x="529" y="68"/>
      <point x="529" y="105" type="curve" smooth="yes"/>
      <point x="529" y="689" type="line" smooth="yes"/>
      <point x="529" y="695"/>
      <point x="524" y="700"/>
      <point x="518" y="700" type="curve" smooth="yes"/>
      <point x="487" y="700"/>
      <point x="456" y="700"/>
      <point x="425" y="700" type="curve"/>
      <point x="425" y="11" type="line" smooth="yes"/>
      <point x="425" y="8"/>
      <point x="426" y="5"/>
      <point x="428" y="3" type="curve" smooth="yes"/>
      <point x="430" y="1"/>
      <point x="433" y="0"/>
      <point x="436" y="0" type="curve" smooth="yes"/>
      <point x="467" y="0"/>
      <point x="498" y="0"/>
    </contour>
    <contour>
      <point x="300" y="711" type="move" name="top"/>
    </contour>
    <contour>
      <point x="530" y="0" type="move" name="ogonek"/>
    </contour>
    <contour>
      <point x="298" y="686" type="move" name="ring"/>
    </contour>
    <contour>
      <point x="273" y="-1" type="move" name="bottom"/>
    </contour>
  </outline>
</glyph>
<glyph name="V" format="1">
  <advance width="600"/>
  <unicode hex="0056"/>
  <outline>
    <contour>
      <point x="127" y="700" type="curve"/>
      <point x="34" y="700" type="line"/>
      <point x="95" y="469"/>
      <point x="156" y="238"/>
      <point x="217" y="8" type="curve" smooth="yes"/>
      <point x="220" y="-1"/>
      <point x="227" y="-5"/>
      <point x="234" y="-5" type="curve" smooth="yes"/>
      <point x="262" y="-5" type="line" smooth="yes"/>
      <point x="293" y="-5"/>
      <point x="339" y="22"/>
      <point x="348" y="84" type="curve"/>
      <point x="329" y="84"/>
      <point x="318" y="84"/>
      <point x="304" y="84" type="curve" smooth="yes"/>
      <point x="297" y="84"/>
      <point x="296" y="85"/>
      <point x="292" y="96" type="curve"/>
      <point x="241" y="293"/>
      <point x="190" y="492"/>
      <point x="139" y="689" type="curve"/>
      <point x="137" y="697"/>
      <point x="133" y="700"/>
    </contour>
    <contour>
      <point x="553" y="700" type="curve"/>
      <point x="464" y="700" type="line"/>
      <point x="409" y="485"/>
      <point x="354" y="269"/>
      <point x="301" y="62" type="curve"/>
      <point x="291" y="17"/>
      <point x="268" y="3"/>
      <point x="249" y="-5" type="curve"/>
      <point x="381" y="-5" type="line"/>
      <point x="441" y="225"/>
      <point x="502" y="455"/>
      <point x="562" y="685" type="curve"/>
      <point x="564" y="694"/>
      <point x="561" y="700"/>
    </contour>
  </outline>
</glyph>
<glyph name="W" format="1">
  <advance width="600"/>
  <unicode hex="0057"/>
  <outline>
    <contour>
      <point x="28" y="700" type="curve"/>
      <point x="56" y="469"/>
      <point x="85" y="238"/>
      <point x="114" y="8" type="curve"/>
      <point x="115" y="-1"/>
      <point x="123" y="-5"/>
      <point x="131" y="-5" type="curve"/>
      <point x="151" y="-5" type="line" smooth="yes"/>
      <point x="168" y="-5"/>
      <point x="185" y="10"/>
      <point x="189" y="25" type="curve"/>
      <point x="168" y="245"/>
      <point x="147" y="466"/>
      <point x="126" y="686" type="curve"/>
      <point x="125" y="694"/>
      <point x="124" y="696"/>
      <point x="122" y="698" type="curve" smooth="yes"/>
      <point x="121" y="699"/>
      <point x="118" y="700"/>
      <point x="115" y="700" type="curve"/>
      <point x="86" y="700"/>
      <point x="57" y="700"/>
    </contour>
    <contour>
      <point x="477" y="700" type="curve"/>
      <point x="456" y="486"/>
      <point x="435" y="271"/>
      <point x="414" y="57" type="curve"/>
      <point x="410" y="19"/>
      <point x="403" y="7"/>
      <point x="394" y="-5" type="curve"/>
      <point x="483" y="-5" type="line"/>
      <point x="512" y="225"/>
      <point x="541" y="457"/>
      <point x="570" y="688" type="curve"/>
      <point x="571" y="693"/>
      <point x="571" y="696"/>
      <point x="569" y="698" type="curve" smooth="yes"/>
      <point x="567" y="699"/>
      <point x="566" y="700"/>
      <point x="562" y="700" type="curve"/>
      <point x="533" y="700"/>
      <point x="505" y="700"/>
    </contour>
    <contour>
      <point x="312" y="586" type="curve"/>
      <point x="263" y="586" type="line"/>
      <point x="234" y="410"/>
      <point x="205" y="233"/>
      <point x="176" y="57" type="curve"/>
      <point x="166" y="16"/>
      <point x="151" y="6"/>
      <point x="131" y="-5" type="curve"/>
      <point x="229" y="-5" type="line"/>
      <point x="260" y="185"/>
      <point x="292" y="376"/>
      <point x="323" y="566" type="curve"/>
      <point x="325" y="579"/>
      <point x="322" y="586"/>
    </contour>
    <contour>
      <point x="332" y="586" type="curve"/>
      <point x="275" y="586" type="line"/>
      <point x="306" y="394"/>
      <point x="337" y="200"/>
      <point x="369" y="8" type="curve"/>
      <point x="371" y="-1"/>
      <point x="378" y="-5"/>
      <point x="386" y="-5" type="curve"/>
      <point x="411" y="-5" type="line"/>
      <point x="421" y="-5"/>
      <point x="432" y="5"/>
      <point x="432" y="20" type="curve"/>
      <point x="402" y="205"/>
      <point x="372" y="391"/>
      <point x="342" y="575" type="curve"/>
      <point x="340" y="583"/>
      <point x="337" y="586"/>
    </contour>
    <contour>
      <point x="298" y="711" type="move" name="top"/>
    </contour>
  </outline>
</glyph>
<glyph name="X" format="1">
  <advance width="600"/>
  <unicode hex="0058"/>
  <outline>
    <contour>
      <point x="474" y="0" type="curve" smooth="yes"/>
      <point x="506" y="0"/>
      <point x="542" y="0"/>
      <point x="575" y="0" type="curve"/>
      <point x="501" y="125"/>
      <point x="425" y="250"/>
      <point x="353" y="371" type="curve" smooth="yes"/>
      <point x="342" y="390"/>
      <point x="326" y="398"/>
      <point x="316" y="414" type="curve" smooth="yes"/>
      <point x="262" y="503"/>
      <point x="207" y="597"/>
      <point x="151" y="688" type="curve" smooth="yes"/>
      <point x="146" y="695"/>
      <point x="140" y="700"/>
      <point x="131" y="700" type="curve" smooth="yes"/>
      <point x="28" y="700" type="line"/>
      <point x="101" y="578"/>
      <point x="176" y="454"/>
      <point x="247" y="334" type="curve" smooth="yes"/>
      <point x="257" y="318"/>
      <point x="276" y="308"/>
      <point x="286" y="290" type="curve" smooth="yes"/>
      <point x="340" y="200"/>
      <point x="395" y="105"/>
      <point x="452" y="12" type="curve" smooth="yes"/>
      <point x="457" y="4"/>
      <point x="465" y="0"/>
    </contour>
    <contour>
      <point x="554" y="700" type="curve"/>
      <point x="462" y="700" type="line"/>
      <point x="399" y="591"/>
      <point x="335" y="483"/>
      <point x="271" y="374" type="curve"/>
      <point x="260" y="357"/>
      <point x="274" y="342"/>
      <point x="340" y="318" type="curve"/>
      <point x="414" y="439"/>
      <point x="489" y="560"/>
      <point x="563" y="681" type="curve"/>
      <point x="567" y="687"/>
      <point x="567" y="693"/>
      <point x="564" y="697" type="curve" smooth="yes"/>
      <point x="562" y="699"/>
      <point x="558" y="700"/>
    </contour>
    <contour>
      <point x="41" y="0" type="curve" smooth="yes"/>
      <point x="134" y="0" type="line"/>
      <point x="197" y="109"/>
      <point x="260" y="217"/>
      <point x="324" y="326" type="curve"/>
      <point x="335" y="343"/>
      <point x="320" y="358"/>
      <point x="255" y="382" type="curve"/>
      <point x="180" y="261"/>
      <point x="106" y="140"/>
      <point x="32" y="19" type="curve"/>
      <point x="28" y="13"/>
      <point x="28" y="6"/>
      <point x="32" y="3" type="curve" smooth="yes"/>
      <point x="34" y="1"/>
      <point x="37" y="0"/>
    </contour>
  </outline>
</glyph>
<glyph name="Y" format="1">
  <advance width="600"/>
  <unicode hex="0059"/>
  <outline>
    <contour>
      <point x="28" y="700" type="line"/>
      <point x="103" y="554"/>
      <point x="179" y="407"/>
      <point x="253" y="261" type="curve"/>
      <point x="257" y="254"/>
      <point x="264" y="252"/>
      <point x="271" y="252" type="curve"/>
      <point x="308" y="252"/>
      <point x="327" y="300"/>
      <point x="319" y="329" type="curve"/>
      <point x="261" y="448"/>
      <point x="203" y="568"/>
      <point x="145" y="687" type="curve"/>
      <point x="142" y="695"/>
      <point x="138" y="700"/>
      <point x="128" y="700" type="curve" smooth="yes"/>
    </contour>
    <contour>
      <point x="462" y="700" type="line"/>
      <point x="403" y="575"/>
      <point x="345" y="452"/>
      <point x="286" y="327" type="curve"/>
      <point x="269" y="287"/>
      <point x="274" y="264"/>
      <point x="271" y="252" type="curve"/>
      <point x="342" y="252" type="line"/>
      <point x="416" y="396"/>
      <point x="491" y="540"/>
      <point x="566" y="684" type="curve"/>
      <point x="569" y="693"/>
      <point x="564" y="700"/>
      <point x="556" y="700" type="curve"/>
    </contour>
    <contour>
      <point x="352" y="0" type="curve"/>
      <point x="352" y="32"/>
      <point x="352" y="66"/>
      <point x="352" y="100" type="curve" smooth="yes"/>
      <point x="352" y="299" type="line" smooth="yes"/>
      <point x="352" y="305"/>
      <point x="347" y="310"/>
      <point x="248" y="310" type="curve"/>
      <point x="248" y="11" type="line" smooth="yes"/>
      <point x="248" y="8"/>
      <point x="249" y="5"/>
      <point x="251" y="3" type="curve" smooth="yes"/>
      <point x="253" y="1"/>
      <point x="256" y="0"/>
      <point x="259" y="0" type="curve" smooth="yes"/>
      <point x="290" y="0"/>
      <point x="321" y="0"/>
    </contour>
    <contour>
      <point x="300" y="711" type="move" name="top"/>
    </contour>
  </outline>
</glyph>
<glyph name="Z" format="1">
  <advance width="600"/>
  <unicode hex="005A"/>
  <outline>
    <contour>
      <point x="95" y="700" type="line"/>
      <point x="95" y="671"/>
      <point x="95" y="647"/>
      <point x="95" y="618" type="curve" smooth="yes"/>
      <point x="95" y="615"/>
      <point x="96" y="612"/>
      <point x="98" y="610" type="curve" smooth="yes"/>
      <point x="100" y="608"/>
      <point x="103" y="607"/>
      <point x="106" y="607" type="curve" smooth="yes"/>
      <point x="424" y="607" type="line" smooth="yes"/>
      <point x="453" y="607"/>
      <point x="497" y="608"/>
      <point x="530" y="613" type="curve" smooth="yes"/>
      <point x="536" y="614"/>
      <point x="542" y="614"/>
      <point x="545" y="615" type="curve"/>
      <point x="545" y="689" type="line" smooth="yes"/>
      <point x="545" y="695"/>
      <point x="540" y="700"/>
      <point x="534" y="700" type="curve" smooth="yes"/>
    </contour>
    <contour>
      <point x="448" y="645" type="curve"/>
      <point x="318" y="460"/>
      <point x="186" y="271"/>
      <point x="55" y="85" type="curve"/>
      <point x="142" y="53"/>
      <point x="153" y="55"/>
      <point x="159" y="63" type="curve" smooth="yes"/>
      <point x="348" y="329"/>
      <point x="545" y="613"/>
      <point x="545" y="615" type="curve"/>
      <point x="466" y="653"/>
      <point x="456" y="655"/>
    </contour>
    <contour>
      <point x="547" y="0" type="line"/>
      <point x="547" y="29"/>
      <point x="547" y="53"/>
      <point x="547" y="82" type="curve" smooth="yes"/>
      <point x="547" y="85"/>
      <point x="546" y="88"/>
      <point x="544" y="90" type="curve" smooth="yes"/>
      <point x="542" y="92"/>
      <point x="539" y="93"/>
      <point x="536" y="93" type="curve" smooth="yes"/>
      <point x="178" y="93" type="line" smooth="yes"/>
      <point x="141" y="93"/>
      <point x="93" y="93"/>
      <point x="55" y="85" type="curve"/>
      <point x="55" y="11" type="line" smooth="yes"/>
      <point x="55" y="5"/>
      <point x="60" y="0"/>
      <point x="66" y="0" type="curve" smooth="yes"/>
    </contour>
    <contour>
      <point x="164" y="526" type="curve"/>
      <point x="164" y="577"/>
      <point x="164" y="627"/>
      <point x="164" y="679" type="curve"/>
      <point x="164" y="694"/>
      <point x="157" y="700"/>
      <point x="143" y="700" type="curve" smooth="yes"/>
      <point x="65" y="700" type="line"/>
      <point x="65" y="645"/>
      <point x="65" y="591"/>
      <point x="65" y="537" type="curve"/>
      <point x="65" y="531"/>
      <point x="70" y="526"/>
      <point x="76" y="526" type="curve" smooth="yes"/>
      <point x="105" y="526"/>
      <point x="135" y="526"/>
    </contour>
    <contour>
      <point x="300" y="711" type="move" name="top"/>
    </contour>
  </outline>
</glyph>
<glyph name="bracketleft" format="1">
  <advance width="600"/>
  <unicode hex="005B"/>
  <outline>
    <contour>
      <point x="205" y="648" type="curve" smooth="yes"/>
      <point x="205" y="-52" type="line" smooth="yes"/>
      <point x="205" y="-62"/>
      <point x="228" y="-63"/>
      <point x="308" y="-63" type="curve"/>
      <point x="308" y="744" type="line" smooth="yes"/>
      <point x="308" y="750"/>
      <point x="300" y="755"/>
      <point x="273" y="755" type="curve" smooth="yes"/>
      <point x="246" y="755"/>
      <point x="232" y="755"/>
      <point x="205" y="755" type="curve"/>
      <point x="205" y="719"/>
      <point x="205" y="684"/>
    </contour>
    <contour>
      <point x="520" y="661" type="line"/>
      <point x="520" y="690"/>
      <point x="520" y="715"/>
      <point x="520" y="744" type="curve" smooth="yes"/>
      <point x="520" y="747"/>
      <point x="519" y="750"/>
      <point x="517" y="752" type="curve" smooth="yes"/>
      <point x="515" y="754"/>
      <point x="512" y="755"/>
      <point x="509" y="755" type="curve" smooth="yes"/>
      <point x="273" y="755" type="line"/>
      <point x="273" y="666"/>
      <point x="279" y="661"/>
      <point x="284" y="661" type="curve"/>
    </contour>
    <contour>
      <point x="520" y="-146" type="line"/>
      <point x="520" y="-116"/>
      <point x="520" y="-92"/>
      <point x="520" y="-62" type="curve" smooth="yes"/>
      <point x="520" y="-56"/>
      <point x="515" y="-51"/>
      <point x="509" y="-51" type="curve" smooth="yes"/>
      <point x="205" y="-51" type="line"/>
      <point x="205" y="-135" type="line" smooth="yes"/>
      <point x="205" y="-141"/>
      <point x="210" y="-146"/>
      <point x="216" y="-146" type="curve" smooth="yes"/>
    </contour>
  </outline>
</glyph>
<glyph name="backslash" format="1">
  <advance width="600"/>
  <unicode hex="005C"/>
  <outline>
    <contour>
      <point x="78" y="750" type="curve"/>
      <point x="192" y="461"/>
      <point x="306" y="170"/>
      <point x="420" y="-119" type="curve" smooth="yes"/>
      <point x="423" y="-127"/>
      <point x="429" y="-130"/>
      <point x="435" y="-130" type="curve" smooth="yes"/>
      <point x="468" y="-130"/>
      <point x="494" y="-130"/>
      <point x="528" y="-130" type="curve"/>
      <point x="513" y="-94"/>
      <point x="499" y="-57"/>
      <point x="485" y="-21" type="curve"/>
      <point x="385" y="233"/>
      <point x="284" y="489"/>
      <point x="184" y="743" type="curve"/>
      <point x="182" y="748"/>
      <point x="178" y="750"/>
      <point x="172" y="750" type="curve" smooth="yes"/>
      <point x="139" y="750"/>
      <point x="111" y="750"/>
    </contour>
  </outline>
</glyph>
<glyph name="bracketright" format="1">
  <advance width="600"/>
  <unicode hex="005D"/>
  <outline>
    <contour>
      <point x="395" y="-38" type="curve" smooth="yes"/>
      <point x="395" y="662" type="line" smooth="yes"/>
      <point x="395" y="672"/>
      <point x="372" y="673"/>
      <point x="292" y="673" type="curve"/>
      <point x="292" y="-134" type="line" smooth="yes"/>
      <point x="292" y="-140"/>
      <point x="300" y="-145"/>
      <point x="327" y="-145" type="curve" smooth="yes"/>
      <point x="354" y="-145"/>
      <point x="368" y="-145"/>
      <point x="395" y="-145" type="curve"/>
      <point x="395" y="-109"/>
      <point x="395" y="-74"/>
    </contour>
    <contour>
      <point x="80" y="-51" type="line"/>
      <point x="80" y="-80"/>
      <point x="80" y="-105"/>
      <point x="80" y="-134" type="curve" smooth="yes"/>
      <point x="80" y="-137"/>
      <point x="81" y="-140"/>
      <point x="83" y="-142" type="curve" smooth="yes"/>
      <point x="85" y="-144"/>
      <point x="88" y="-145"/>
      <point x="91" y="-145" type="curve" smooth="yes"/>
      <point x="327" y="-145" type="line"/>
      <point x="327" y="-56"/>
      <point x="321" y="-51"/>
      <point x="316" y="-51" type="curve"/>
    </contour>
    <contour>
      <point x="80" y="756" type="line"/>
      <point x="80" y="726"/>
      <point x="80" y="702"/>
      <point x="80" y="672" type="curve" smooth="yes"/>
      <point x="80" y="666"/>
      <point x="85" y="661"/>
      <point x="91" y="661" type="curve" smooth="yes"/>
      <point x="395" y="661" type="line"/>
      <point x="395" y="745" type="line" smooth="yes"/>
      <point x="395" y="751"/>
      <point x="390" y="756"/>
      <point x="384" y="756" type="curve" smooth="yes"/>
    </contour>
  </outline>
</glyph>
<glyph name="grave" format="1">
  <advance width="600"/>
  <unicode hex="0060"/>
  <outline>
    <contour>
      <point x="395" y="411" type="curve"/>
      <point x="369" y="517"/>
      <point x="347" y="610"/>
      <point x="321" y="716" type="curve"/>
      <point x="259" y="716"/>
      <point x="229" y="716"/>
      <point x="176" y="716" type="curve" smooth="yes"/>
      <point x="168" y="716"/>
      <point x="163" y="710"/>
      <point x="167" y="702" type="curve" smooth="yes"/>
      <point x="208" y="613"/>
      <point x="252" y="519"/>
      <point x="297" y="420" type="curve" smooth="yes"/>
      <point x="300" y="414"/>
      <point x="305" y="411"/>
      <point x="313" y="411" type="curve" smooth="yes"/>
      <point x="352" y="411"/>
      <point x="370" y="411"/>
    </contour>
  </outline>
</glyph>
<glyph name="b" format="1">
  <advance width="600"/>
  <unicode hex="0062"/>
  <outline>
    <contour>
      <point x="91" y="0" type="line"/>
      <point x="108" y="0"/>
      <point x="126" y="0"/>
      <point x="143" y="0" type="curve" smooth="yes"/>
      <point x="156" y="0"/>
      <point x="191" y="71"/>
      <point x="191" y="99" type="curve" smooth="yes"/>
      <point x="191" y="739" type="line"/>
      <point x="191" y="745"/>
      <point x="186" y="750"/>
      <point x="180" y="750" type="curve" smooth="yes"/>
      <point x="151" y="750"/>
      <point x="121" y="750"/>
      <point x="91" y="750" type="curve"/>
      <point x="91" y="710"/>
      <point x="91" y="668"/>
      <point x="91" y="627" type="curve" smooth="yes"/>
    </contour>
    <contour>
      <point x="367" y="544" type="curve" smooth="yes"/>
      <point x="303" y="544"/>
      <point x="243" y="519"/>
      <point x="188" y="465" type="curve" smooth="yes"/>
      <point x="154" y="430"/>
      <point x="146" y="394"/>
      <point x="157" y="360" type="curve"/>
      <point x="228" y="424"/>
      <point x="278" y="447"/>
      <point x="340" y="447" type="curve" smooth="yes"/>
      <point x="399" y="447"/>
      <point x="434" y="409"/>
      <point x="434" y="336" type="curve"/>
      <point x="484" y="335"/>
      <point x="535" y="343"/>
      <point x="535" y="352" type="curve" smooth="yes"/>
      <point x="535" y="468"/>
      <point x="468" y="544"/>
    </contour>
    <contour>
      <point x="343" y="-10" type="curve" smooth="yes"/>
      <point x="464" y="-10"/>
      <point x="535" y="70"/>
      <point x="535" y="216" type="curve" smooth="yes"/>
      <point x="535" y="352" type="line" smooth="yes"/>
      <point x="535" y="409"/>
      <point x="489" y="469"/>
      <point x="440" y="469" type="curve"/>
      <point x="419" y="469"/>
      <point x="407" y="462"/>
      <point x="406" y="448" type="curve"/>
      <point x="425" y="416"/>
      <point x="434" y="391"/>
      <point x="434" y="336" type="curve" smooth="yes"/>
      <point x="434" y="212" type="line" smooth="yes"/>
      <point x="434" y="125"/>
      <point x="398" y="84"/>
      <point x="332" y="84" type="curve" smooth="yes"/>
      <point x="272" y="84"/>
      <point x="221" y="111"/>
      <point x="169" y="171" type="curve"/>
      <point x="165" y="166"/>
      <point x="153" y="130"/>
      <point x="158" y="115" type="curve" smooth="yes"/>
      <point x="179" y="45"/>
      <point x="253" y="-10"/>
    </contour>
  </outline>
</glyph>
<glyph name="d" format="1">
  <advance width="600"/>
  <unicode hex="0064"/>
  <outline>
    <contour>
      <point x="256" y="544" type="curve" smooth="yes"/>
      <point x="137" y="544"/>
      <point x="65" y="461"/>
      <point x="65" y="319" type="curve" smooth="yes"/>
      <point x="65" y="184" type="line" smooth="yes"/>
      <point x="65" y="131"/>
      <point x="111" y="72"/>
      <point x="161" y="72" type="curve" smooth="yes"/>
      <point x="182" y="72"/>
      <point x="193" y="79"/>
      <point x="194" y="93" type="curve"/>
      <point x="178" y="124"/>
      <point x="166" y="146"/>
      <point x="166" y="192" type="curve" smooth="yes"/>
      <point x="166" y="315" type="line" smooth="yes"/>
      <point x="166" y="402"/>
      <point x="199" y="449"/>
      <point x="277" y="449" type="curve" smooth="yes"/>
      <point x="336" y="449"/>
      <point x="378" y="422"/>
      <point x="423" y="374" type="curve"/>
      <point x="438" y="380"/>
      <point x="440" y="408"/>
      <point x="436" y="424" type="curve" smooth="yes"/>
      <point x="422" y="481"/>
      <point x="349" y="544"/>
    </contour>
    <contour>
      <point x="231" y="-10" type="curve" smooth="yes"/>
      <point x="303" y="-10"/>
      <point x="359" y="22"/>
      <point x="410" y="83" type="curve" smooth="yes"/>
      <point x="443" y="122"/>
      <point x="446" y="162"/>
      <point x="435" y="190" type="curve"/>
      <point x="364" y="113"/>
      <point x="319" y="84"/>
      <point x="259" y="84" type="curve" smooth="yes"/>
      <point x="201" y="84"/>
      <point x="166" y="120"/>
      <point x="166" y="192" type="curve"/>
      <point x="108" y="206"/>
      <point x="65" y="187"/>
      <point x="65" y="184" type="curve" smooth="yes"/>
      <point x="65" y="65"/>
      <point x="135" y="-10"/>
    </contour>
    <contour>
      <point x="409" y="750" type="curve"/>
      <point x="409" y="716"/>
      <point x="409" y="682"/>
      <point x="409" y="650" type="curve" smooth="yes"/>
      <point x="409" y="11" type="line"/>
      <point x="409" y="8"/>
      <point x="410" y="5"/>
      <point x="412" y="3" type="curve" smooth="yes"/>
      <point x="414" y="1"/>
      <point x="417" y="0"/>
      <point x="420" y="0" type="curve" smooth="yes"/>
      <point x="449" y="0"/>
      <point x="479" y="0"/>
      <point x="509" y="0" type="curve"/>
      <point x="509" y="35"/>
      <point x="509" y="77"/>
      <point x="509" y="124" type="curve" smooth="yes"/>
      <point x="509" y="739" type="line"/>
      <point x="509" y="742"/>
      <point x="508" y="745"/>
      <point x="506" y="747" type="curve" smooth="yes"/>
      <point x="504" y="749"/>
      <point x="501" y="750"/>
      <point x="498" y="750" type="curve" smooth="yes"/>
      <point x="468" y="750"/>
      <point x="438" y="750"/>
    </contour>
    <contour>
      <point x="514" y="711" type="move" name="caronslovak"/>
    </contour>
  </outline>
</glyph>
<glyph name="f" format="1">
  <advance width="600"/>
  <unicode hex="0066"/>
  <outline>
    <contour>
      <point x="288" y="637" type="curve"/>
      <point x="324" y="664"/>
      <point x="345" y="673"/>
      <point x="402" y="673" type="curve" smooth="yes"/>
      <point x="449" y="673"/>
      <point x="496" y="667"/>
      <point x="534" y="655" type="curve"/>
      <point x="550" y="655" type="line"/>
      <point x="550" y="681"/>
      <point x="550" y="704"/>
      <point x="550" y="733" type="curve"/>
      <point x="550" y="736"/>
      <point x="549" y="739"/>
      <point x="547" y="741" type="curve" smooth="yes"/>
      <point x="536" y="751"/>
      <point x="481" y="765"/>
      <point x="406" y="765" type="curve" smooth="yes"/>
      <point x="309" y="765"/>
      <point x="238" y="699"/>
    </contour>
    <contour>
      <point x="297" y="29" type="curve"/>
      <point x="297" y="530" type="line" smooth="yes"/>
      <point x="297" y="538"/>
      <point x="297" y="546"/>
      <point x="297" y="554" type="curve" smooth="yes"/>
      <point x="297" y="642"/>
      <point x="322" y="673"/>
      <point x="402" y="673" type="curve"/>
      <point x="429" y="750"/>
      <point x="421" y="765"/>
      <point x="406" y="765" type="curve" smooth="yes"/>
      <point x="261" y="765"/>
      <point x="198" y="683"/>
      <point x="198" y="557" type="curve" smooth="yes"/>
      <point x="198" y="40" type="line" smooth="yes"/>
      <point x="198" y="34"/>
      <point x="203" y="29"/>
    </contour>
    <contour>
      <point x="75" y="92" type="line"/>
      <point x="75" y="63"/>
      <point x="75" y="40"/>
      <point x="75" y="11" type="curve" smooth="yes"/>
      <point x="75" y="8"/>
      <point x="76" y="5"/>
      <point x="78" y="3" type="curve" smooth="yes"/>
      <point x="80" y="1"/>
      <point x="83" y="0"/>
      <point x="86" y="0" type="curve"/>
      <point x="494" y="0" type="line"/>
      <point x="494" y="29"/>
      <point x="494" y="52"/>
      <point x="494" y="81" type="curve" smooth="yes"/>
      <point x="494" y="87"/>
      <point x="489" y="92"/>
      <point x="483" y="92" type="curve"/>
    </contour>
    <contour>
      <point x="75" y="523" type="line"/>
      <point x="75" y="494"/>
      <point x="75" y="472"/>
      <point x="75" y="443" type="curve" smooth="yes"/>
      <point x="75" y="440"/>
      <point x="76" y="437"/>
      <point x="78" y="435" type="curve" smooth="yes"/>
      <point x="80" y="433"/>
      <point x="83" y="432"/>
      <point x="86" y="432" type="curve"/>
      <point x="510" y="432" type="line"/>
      <point x="510" y="461"/>
      <point x="510" y="483"/>
      <point x="510" y="512" type="curve" smooth="yes"/>
      <point x="510" y="518"/>
      <point x="505" y="523"/>
      <point x="499" y="523" type="curve"/>
    </contour>
  </outline>
</glyph>
<glyph name="h" format="1">
  <advance width="600"/>
  <unicode hex="0068"/>
  <outline>
    <contour>
      <point x="194" y="0" type="curve"/>
      <point x="194" y="739" type="line" smooth="yes"/>
      <point x="194" y="742"/>
      <point x="193" y="745"/>
      <point x="191" y="747" type="curve" smooth="yes"/>
      <point x="189" y="749"/>
      <point x="186" y="750"/>
      <point x="183" y="750" type="curve" smooth="yes"/>
      <point x="154" y="750"/>
      <point x="124" y="750"/>
      <point x="91" y="750" type="curve"/>
      <point x="91" y="728"/>
      <point x="91" y="693"/>
      <point x="91" y="651" type="curve" smooth="yes"/>
      <point x="91" y="11" type="line" smooth="yes"/>
      <point x="91" y="5"/>
      <point x="96" y="0"/>
      <point x="102" y="0" type="curve" smooth="yes"/>
      <point x="133" y="0"/>
      <point x="163" y="0"/>
    </contour>
    <contour>
      <point x="374" y="544" type="curve" smooth="yes"/>
      <point x="308" y="544"/>
      <point x="251" y="511"/>
      <point x="192" y="444" type="curve" smooth="yes"/>
      <point x="169" y="418"/>
      <point x="149" y="377"/>
      <point x="162" y="325" type="curve"/>
      <point x="239" y="411"/>
      <point x="288" y="442"/>
      <point x="346" y="442" type="curve" smooth="yes"/>
      <point x="385" y="442"/>
      <point x="409" y="417"/>
      <point x="409" y="364" type="curve"/>
      <point x="497" y="365"/>
      <point x="512" y="381"/>
      <point x="512" y="397" type="curve" smooth="yes"/>
      <point x="512" y="476"/>
      <point x="459" y="544"/>
    </contour>
    <contour>
      <point x="512" y="0" type="curve"/>
      <point x="512" y="32"/>
      <point x="512" y="65"/>
      <point x="512" y="98" type="curve" smooth="yes"/>
      <point x="512" y="397" type="line"/>
      <point x="512" y="434"/>
      <point x="456" y="459"/>
      <point x="403" y="437" type="curve"/>
      <point x="408" y="415"/>
      <point x="409" y="401"/>
      <point x="409" y="364" type="curve" smooth="yes"/>
      <point x="409" y="11" type="line" smooth="yes"/>
      <point x="409" y="5"/>
      <point x="414" y="0"/>
      <point x="420" y="0" type="curve" smooth="yes"/>
      <point x="451" y="0"/>
      <point x="481" y="0"/>
    </contour>
    <contour>
      <point x="141" y="730" type="move" name="top"/>
    </contour>
  </outline>
</glyph>
<glyph name="i" format="1">
  <advance width="600"/>
  <unicode hex="0069"/>
  <outline>
    <contour>
      <point x="85" y="533" type="curve"/>
      <point x="85" y="504"/>
      <point x="85" y="480"/>
      <point x="85" y="451" type="curve" smooth="yes"/>
      <point x="85" y="445"/>
      <point x="90" y="440"/>
      <point x="96" y="440" type="curve" smooth="yes"/>
      <point x="157" y="440"/>
      <point x="213" y="440"/>
      <point x="274" y="440" type="curve"/>
      <point x="274" y="514"/>
      <point x="269" y="533"/>
      <point x="261" y="533" type="curve" smooth="yes"/>
      <point x="194" y="533"/>
      <point x="151" y="533"/>
    </contour>
    <contour>
      <point x="356" y="530" type="curve" smooth="yes"/>
      <point x="354" y="532"/>
      <point x="351" y="533"/>
      <point x="348" y="533" type="curve" smooth="yes"/>
      <point x="261" y="533" type="line"/>
      <point x="261" y="64" type="line" smooth="yes"/>
      <point x="261" y="49"/>
      <point x="297" y="45"/>
      <point x="359" y="45" type="curve"/>
      <point x="359" y="522" type="line" smooth="yes"/>
      <point x="359" y="525"/>
      <point x="358" y="528"/>
    </contour>
    <contour>
      <point x="70" y="93" type="line"/>
      <point x="70" y="64"/>
      <point x="70" y="39"/>
      <point x="70" y="11" type="curve" smooth="yes"/>
      <point x="70" y="8"/>
      <point x="71" y="5"/>
      <point x="73" y="3" type="curve" smooth="yes"/>
      <point x="75" y="1"/>
      <point x="78" y="0"/>
      <point x="81" y="0" type="curve"/>
      <point x="535" y="0" type="line"/>
      <point x="535" y="28"/>
      <point x="535" y="53"/>
      <point x="535" y="82" type="curve" smooth="yes"/>
      <point x="535" y="88"/>
      <point x="530" y="93"/>
      <point x="524" y="93" type="curve"/>
    </contour>
    <contour>
      <point x="369" y="663" type="curve"/>
      <point x="369" y="766" type="line" smooth="yes"/>
      <point x="369" y="772"/>
      <point x="364" y="777"/>
      <point x="358" y="777" type="curve" smooth="yes"/>
      <point x="319" y="777"/>
      <point x="279" y="777"/>
      <point x="240" y="777" type="curve"/>
      <point x="240" y="674" type="line" smooth="yes"/>
      <point x="240" y="668"/>
      <point x="245" y="663"/>
      <point x="251" y="663" type="curve" smooth="yes"/>
      <point x="290" y="663"/>
      <point x="330" y="663"/>
    </contour>
    <contour>
      <point x="536" y="0" type="move" name="ogonek"/>
    </contour>
    <contour>
      <point x="303" y="-1" type="move" name="bottom"/>
    </contour>
  </outline>
</glyph>
<glyph name="j" format="1">
  <advance width="600"/>
  <unicode hex="006A"/>
  <outline>
    <contour>
      <point x="75" y="533" type="curve"/>
      <point x="75" y="504"/>
      <point x="75" y="480"/>
      <point x="75" y="451" type="curve" smooth="yes"/>
      <point x="75" y="445"/>
      <point x="80" y="440"/>
      <point x="86" y="440" type="curve" smooth="yes"/>
      <point x="187" y="440"/>
      <point x="297" y="440"/>
      <point x="398" y="440" type="curve"/>
      <point x="398" y="483"/>
      <point x="385" y="533"/>
      <point x="356" y="533" type="curve" smooth="yes"/>
      <point x="266" y="533"/>
      <point x="165" y="533"/>
    </contour>
    <contour>
      <point x="437" y="-3" type="curve" smooth="yes"/>
      <point x="437" y="522" type="line" smooth="yes"/>
      <point x="437" y="525"/>
      <point x="436" y="528"/>
      <point x="434" y="530" type="curve" smooth="yes"/>
      <point x="432" y="532"/>
      <point x="429" y="533"/>
      <point x="426" y="533" type="curve" smooth="yes"/>
      <point x="338" y="533" type="line"/>
      <point x="338" y="9" type="line" smooth="yes"/>
      <point x="338" y="-82"/>
      <point x="327" y="-120"/>
      <point x="274" y="-172" type="curve"/>
      <point x="344" y="-213"/>
      <point x="437" y="-118"/>
    </contour>
    <contour>
      <point x="197" y="-153" type="curve" smooth="yes"/>
      <point x="143" y="-153"/>
      <point x="99" y="-145"/>
      <point x="56" y="-126" type="curve"/>
      <point x="41" y="-126" type="line"/>
      <point x="41" y="-155"/>
      <point x="41" y="-184"/>
      <point x="41" y="-213" type="curve" smooth="yes"/>
      <point x="41" y="-216"/>
      <point x="42" y="-219"/>
      <point x="44" y="-221" type="curve" smooth="yes"/>
      <point x="58" y="-235"/>
      <point x="123" y="-250"/>
      <point x="193" y="-250" type="curve" smooth="yes"/>
      <point x="356" y="-250"/>
      <point x="437" y="-165"/>
      <point x="437" y="-3" type="curve" smooth="yes"/>
      <point x="437" y="17"/>
      <point x="411" y="15"/>
      <point x="338" y="9" type="curve"/>
      <point x="338" y="-102"/>
      <point x="294" y="-153"/>
    </contour>
    <contour>
      <point x="447" y="663" type="curve"/>
      <point x="447" y="766" type="line" smooth="yes"/>
      <point x="447" y="772"/>
      <point x="442" y="777"/>
      <point x="436" y="777" type="curve" smooth="yes"/>
      <point x="397" y="777"/>
      <point x="357" y="777"/>
      <point x="318" y="777" type="curve"/>
      <point x="318" y="674" type="line" smooth="yes"/>
      <point x="318" y="668"/>
      <point x="323" y="663"/>
      <point x="329" y="663" type="curve" smooth="yes"/>
      <point x="368" y="663"/>
      <point x="408" y="663"/>
    </contour>
  </outline>
</glyph>
<glyph name="l" format="1">
  <advance width="600"/>
  <unicode hex="006C"/>
  <outline>
    <contour>
      <point x="85" y="750" type="curve"/>
      <point x="85" y="722"/>
      <point x="85" y="697"/>
      <point x="85" y="668" type="curve" smooth="yes"/>
      <point x="85" y="662"/>
      <point x="90" y="657"/>
      <point x="96" y="657" type="curve" smooth="yes"/>
      <point x="157" y="657"/>
      <point x="213" y="657"/>
      <point x="274" y="657" type="curve"/>
      <point x="274" y="731"/>
      <point x="269" y="750"/>
      <point x="261" y="750" type="curve" smooth="yes"/>
      <point x="194" y="750"/>
      <point x="151" y="750"/>
    </contour>
    <contour>
      <point x="356" y="747" type="curve" smooth="yes"/>
      <point x="354" y="749"/>
      <point x="351" y="750"/>
      <point x="348" y="750" type="curve" smooth="yes"/>
      <point x="261" y="750" type="line"/>
      <point x="261" y="64" type="line" smooth="yes"/>
      <point x="261" y="49"/>
      <point x="297" y="45"/>
      <point x="359" y="45" type="curve"/>
      <point x="359" y="739" type="line" smooth="yes"/>
      <point x="359" y="742"/>
      <point x="358" y="745"/>
    </contour>
    <contour>
      <point x="70" y="93" type="line"/>
      <point x="70" y="64"/>
      <point x="70" y="39"/>
      <point x="70" y="11" type="curve" smooth="yes"/>
      <point x="70" y="8"/>
      <point x="71" y="5"/>
      <point x="73" y="3" type="curve" smooth="yes"/>
      <point x="75" y="1"/>
      <point x="78" y="0"/>
      <point x="81" y="0" type="curve"/>
      <point x="535" y="0" type="line"/>
      <point x="535" y="28"/>
      <point x="535" y="53"/>
      <point x="535" y="82" type="curve" smooth="yes"/>
      <point x="535" y="88"/>
      <point x="530" y="93"/>
      <point x="524" y="93" type="curve"/>
    </contour>
    <contour>
      <point x="507" y="671" type="move" name="caronslovak"/>
    </contour>
    <contour>
      <point x="303" y="730" type="move" name="top"/>
    </contour>
    <contour>
      <point x="497" y="400" type="move" name="dot"/>
    </contour>
    <contour>
      <point x="303" y="-1" type="move" name="bottom"/>
    </contour>
  </outline>
</glyph>
<glyph name="m" format="1">
  <advance width="600"/>
  <unicode hex="006D"/>
  <outline>
    <contour>
      <point x="134" y="0" type="curve"/>
      <point x="134" y="480" type="line" smooth="yes"/>
      <point x="134" y="504"/>
      <point x="124" y="527"/>
      <point x="122" y="529" type="curve" smooth="yes"/>
      <point x="119" y="532"/>
      <point x="115" y="533"/>
      <point x="112" y="533" type="curve" smooth="yes"/>
      <point x="90" y="533"/>
      <point x="67" y="533"/>
      <point x="45" y="533" type="curve"/>
      <point x="45" y="509"/>
      <point x="45" y="474"/>
      <point x="45" y="433" type="curve" smooth="yes"/>
      <point x="45" y="11" type="line" smooth="yes"/>
      <point x="45" y="5"/>
      <point x="50" y="0"/>
      <point x="56" y="0" type="curve" smooth="yes"/>
      <point x="82" y="0"/>
      <point x="108" y="0"/>
    </contour>
    <contour>
      <point x="253" y="544" type="curve" smooth="yes"/>
      <point x="209" y="544"/>
      <point x="174" y="520"/>
      <point x="141" y="475" type="curve" smooth="yes"/>
      <point x="119" y="449"/>
      <point x="96" y="403"/>
      <point x="104" y="358" type="curve"/>
      <point x="147" y="419"/>
      <point x="185" y="442"/>
      <point x="222" y="442" type="curve" smooth="yes"/>
      <point x="246" y="442"/>
      <point x="258" y="429"/>
      <point x="258" y="400" type="curve"/>
      <point x="338" y="435"/>
      <point x="342" y="443"/>
      <point x="342" y="446" type="curve" smooth="yes"/>
      <point x="342" y="505"/>
      <point x="304" y="544"/>
    </contour>
    <contour>
      <point x="342" y="0" type="curve"/>
      <point x="342" y="446" type="line" smooth="yes"/>
      <point x="342" y="479"/>
      <point x="305" y="474"/>
      <point x="244" y="451" type="curve"/>
      <point x="253" y="436"/>
      <point x="258" y="428"/>
      <point x="258" y="400" type="curve" smooth="yes"/>
      <point x="258" y="11" type="line" smooth="yes"/>
      <point x="258" y="5"/>
      <point x="263" y="0"/>
      <point x="269" y="0" type="curve" smooth="yes"/>
      <point x="293" y="0"/>
      <point x="318" y="0"/>
    </contour>
    <contour>
      <point x="470" y="544" type="curve" smooth="yes"/>
      <point x="420" y="544"/>
      <point x="386" y="520"/>
      <point x="351" y="473" type="curve" smooth="yes"/>
      <point x="328" y="446"/>
      <point x="306" y="398"/>
      <point x="313" y="356" type="curve"/>
      <point x="358" y="418"/>
      <point x="394" y="442"/>
      <point x="430" y="442" type="curve" smooth="yes"/>
      <point x="454" y="442"/>
      <point x="466" y="429"/>
      <point x="466" y="399" type="curve"/>
      <point x="550" y="431"/>
      <point x="555" y="440"/>
      <point x="555" y="445" type="curve" smooth="yes"/>
      <point x="555" y="504"/>
      <point x="523" y="544"/>
    </contour>
    <contour>
      <point x="555" y="0" type="curve"/>
      <point x="555" y="35"/>
      <point x="555" y="68"/>
      <point x="555" y="99" type="curve" smooth="yes"/>
      <point x="555" y="445" type="line" smooth="yes"/>
      <point x="555" y="484"/>
      <point x="524" y="479"/>
      <point x="452" y="455" type="curve"/>
      <point x="461" y="439"/>
      <point x="466" y="430"/>
      <point x="466" y="400" type="curve" smooth="yes"/>
      <point x="466" y="11" type="line" smooth="yes"/>
      <point x="466" y="5"/>
      <point x="471" y="0"/>
      <point x="477" y="0" type="curve" smooth="yes"/>
      <point x="503" y="0"/>
      <point x="528" y="0"/>
    </contour>
  </outline>
</glyph>
<glyph name="n" format="1">
  <advance width="600"/>
  <unicode hex="006E"/>
  <outline>
    <contour>
      <point x="194" y="0" type="curve"/>
      <point x="194" y="522" type="line" smooth="yes"/>
      <point x="194" y="525"/>
      <point x="193" y="528"/>
      <point x="191" y="530" type="curve" smooth="yes"/>
      <point x="189" y="532"/>
      <point x="186" y="533"/>
      <point x="183" y="533" type="curve" smooth="yes"/>
      <point x="154" y="533"/>
      <point x="124" y="533"/>
      <point x="91" y="533" type="curve"/>
      <point x="91" y="511"/>
      <point x="91" y="476"/>
      <point x="91" y="434" type="curve" smooth="yes"/>
      <point x="91" y="11" type="line" smooth="yes"/>
      <point x="91" y="5"/>
      <point x="96" y="0"/>
      <point x="102" y="0" type="curve" smooth="yes"/>
      <point x="133" y="0"/>
      <point x="163" y="0"/>
    </contour>
    <contour>
      <point x="374" y="544" type="curve" smooth="yes"/>
      <point x="308" y="544"/>
      <point x="251" y="511"/>
      <point x="192" y="444" type="curve" smooth="yes"/>
      <point x="169" y="418"/>
      <point x="149" y="377"/>
      <point x="162" y="325" type="curve"/>
      <point x="239" y="411"/>
      <point x="288" y="442"/>
      <point x="345" y="442" type="curve" smooth="yes"/>
      <point x="384" y="442"/>
      <point x="409" y="417"/>
      <point x="409" y="368" type="curve"/>
      <point x="499" y="368"/>
      <point x="512" y="383"/>
      <point x="512" y="397" type="curve" smooth="yes"/>
      <point x="512" y="477"/>
      <point x="460" y="544"/>
    </contour>
    <contour>
      <point x="512" y="0" type="curve"/>
      <point x="512" y="32"/>
      <point x="512" y="65"/>
      <point x="512" y="98" type="curve" smooth="yes"/>
      <point x="512" y="397" type="line"/>
      <point x="512" y="434"/>
      <point x="456" y="459"/>
      <point x="403" y="437" type="curve"/>
      <point x="407" y="417"/>
      <point x="409" y="403"/>
      <point x="409" y="368" type="curve" smooth="yes"/>
      <point x="409" y="11" type="line" smooth="yes"/>
      <point x="409" y="5"/>
      <point x="414" y="0"/>
      <point x="420" y="0" type="curve" smooth="yes"/>
      <point x="451" y="0"/>
      <point x="481" y="0"/>
    </contour>
    <contour>
      <point x="81" y="692" type="move" name="caronslovak"/>
    </contour>
    <contour>
      <point x="300" y="544" type="move" name="top"/>
    </contour>
    <contour>
      <point x="301" y="-1" type="move" name="bottom"/>
    </contour>
  </outline>
</glyph>
<glyph name="p" format="1">
  <advance width="600"/>
  <unicode hex="0070"/>
  <outline>
    <contour>
      <point x="191" y="-210" type="curve"/>
      <point x="191" y="522" type="line" smooth="yes"/>
      <point x="191" y="525"/>
      <point x="190" y="528"/>
      <point x="188" y="530" type="curve" smooth="yes"/>
      <point x="186" y="532"/>
      <point x="183" y="533"/>
      <point x="180" y="533" type="curve"/>
      <point x="151" y="533"/>
      <point x="121" y="533"/>
      <point x="91" y="533" type="curve"/>
      <point x="91" y="501"/>
      <point x="91" y="467"/>
      <point x="91" y="432" type="curve" smooth="yes"/>
      <point x="91" y="-199" type="line" smooth="yes"/>
      <point x="91" y="-205"/>
      <point x="96" y="-210"/>
      <point x="102" y="-210" type="curve"/>
      <point x="132" y="-210"/>
      <point x="162" y="-210"/>
    </contour>
    <contour>
      <point x="366" y="544" type="curve" smooth="yes"/>
      <point x="305" y="544"/>
      <point x="245" y="517"/>
      <point x="191" y="462" type="curve" smooth="yes"/>
      <point x="159" y="428"/>
      <point x="151" y="390"/>
      <point x="162" y="359" type="curve"/>
      <point x="235" y="424"/>
      <point x="283" y="448"/>
      <point x="338" y="448" type="curve" smooth="yes"/>
      <point x="401" y="448"/>
      <point x="434" y="404"/>
      <point x="434" y="326" type="curve"/>
      <point x="482" y="328"/>
      <point x="535" y="332"/>
      <point x="535" y="346" type="curve" smooth="yes"/>
      <point x="535" y="465"/>
      <point x="471" y="544"/>
    </contour>
    <contour>
      <point x="344" y="-10" type="curve" smooth="yes"/>
      <point x="464" y="-10"/>
      <point x="535" y="71"/>
      <point x="535" y="213" type="curve" smooth="yes"/>
      <point x="535" y="346" type="line" smooth="yes"/>
      <point x="535" y="404"/>
      <point x="487" y="469"/>
      <point x="436" y="469" type="curve" smooth="yes"/>
      <point x="415" y="469"/>
      <point x="404" y="462"/>
      <point x="403" y="448" type="curve"/>
      <point x="424" y="412"/>
      <point x="434" y="379"/>
      <point x="434" y="326" type="curve" smooth="yes"/>
      <point x="434" y="215" type="line" smooth="yes"/>
      <point x="434" y="127"/>
      <point x="397" y="84"/>
      <point x="323" y="84" type="curve" smooth="yes"/>
      <point x="269" y="84"/>
      <point x="225" y="101"/>
      <point x="173" y="154" type="curve"/>
      <point x="161" y="147"/>
      <point x="157" y="120"/>
      <point x="160" y="105" type="curve" smooth="yes"/>
      <point x="176" y="45"/>
      <point x="254" y="-10"/>
    </contour>
  </outline>
</glyph>
<glyph name="r" format="1">
  <advance width="600"/>
  <unicode hex="0072"/>
  <outline>
    <contour>
      <point x="78" y="533" type="curve"/>
      <point x="78" y="504"/>
      <point x="78" y="480"/>
      <point x="78" y="451" type="curve" smooth="yes"/>
      <point x="78" y="445"/>
      <point x="83" y="440"/>
      <point x="89" y="440" type="curve" smooth="yes"/>
      <point x="137" y="440"/>
      <point x="211" y="440"/>
      <point x="259" y="440" type="curve"/>
      <point x="259" y="489"/>
      <point x="253" y="533"/>
      <point x="242" y="533" type="curve" smooth="yes"/>
      <point x="195" y="533"/>
      <point x="125" y="533"/>
    </contour>
    <contour>
      <point x="296" y="46" type="curve"/>
      <point x="296" y="414" type="line" smooth="yes"/>
      <point x="296" y="439"/>
      <point x="262" y="533"/>
      <point x="242" y="533" type="curve" smooth="yes"/>
      <point x="234" y="533"/>
      <point x="217" y="529"/>
      <point x="198" y="524" type="curve"/>
      <point x="198" y="57" type="line" smooth="yes"/>
      <point x="198" y="50"/>
      <point x="204" y="46"/>
    </contour>
    <contour>
      <point x="70" y="93" type="line"/>
      <point x="70" y="64"/>
      <point x="70" y="39"/>
      <point x="70" y="11" type="curve" smooth="yes"/>
      <point x="70" y="8"/>
      <point x="71" y="5"/>
      <point x="73" y="3" type="curve" smooth="yes"/>
      <point x="75" y="1"/>
      <point x="78" y="0"/>
      <point x="81" y="0" type="curve"/>
      <point x="490" y="0" type="line"/>
      <point x="490" y="28"/>
      <point x="490" y="53"/>
      <point x="490" y="82" type="curve" smooth="yes"/>
      <point x="490" y="88"/>
      <point x="485" y="93"/>
      <point x="479" y="93" type="curve"/>
    </contour>
    <contour>
      <point x="261" y="342" type="curve"/>
      <point x="345" y="422"/>
      <point x="396" y="438"/>
      <point x="456" y="438" type="curve" smooth="yes"/>
      <point x="482" y="438"/>
      <point x="507" y="436"/>
      <point x="533" y="432" type="curve"/>
      <point x="546" y="432" type="line"/>
      <point x="546" y="459"/>
      <point x="546" y="518"/>
      <point x="546" y="529" type="curve"/>
      <point x="546" y="536"/>
      <point x="542" y="540"/>
      <point x="535" y="540" type="curve" smooth="yes"/>
      <point x="481" y="540" type="line" smooth="yes"/>
      <point x="393" y="540"/>
      <point x="335" y="514"/>
      <point x="277" y="442" type="curve" smooth="yes"/>
      <point x="263" y="425"/>
      <point x="260" y="406"/>
    </contour>
    <contour>
      <point x="308" y="544" type="move" name="top"/>
    </contour>
    <contour>
      <point x="308" y="-1" type="move" name="bottom"/>
    </contour>
  </outline>
</glyph>
<glyph name="s" format="1">
  <advance width="600"/>
  <unicode hex="0073"/>
  <outline>
    <contour>
      <point x="332" y="541" type="curve" smooth="yes"/>
      <point x="316" y="541" type="line" smooth="yes"/>
      <point x="175" y="541"/>
      <point x="94" y="473"/>
      <point x="94" y="380" type="curve" smooth="yes"/>
      <point x="94" y="342"/>
      <point x="142" y="326"/>
      <point x="193" y="326" type="curve"/>
      <point x="193" y="342"/>
      <point x="193" y="367"/>
      <point x="193" y="382" type="curve" smooth="yes"/>
      <point x="193" y="422"/>
      <point x="237" y="447"/>
      <point x="320" y="447" type="curve" smooth="yes"/>
      <point x="385" y="447"/>
      <point x="422" y="439"/>
      <point x="474" y="419" type="curve"/>
      <point x="490" y="419" type="line"/>
      <point x="490" y="447"/>
      <point x="490" y="475"/>
      <point x="490" y="503" type="curve"/>
      <point x="490" y="507"/>
      <point x="490" y="510"/>
      <point x="487" y="512" type="curve" smooth="yes"/>
      <point x="477" y="522"/>
      <point x="415" y="541"/>
    </contour>
    <contour>
      <point x="368" y="301" type="curve" smooth="yes"/>
      <point x="276" y="319" type="line" smooth="yes"/>
      <point x="209" y="333"/>
      <point x="193" y="348"/>
      <point x="193" y="382" type="curve" smooth="yes"/>
      <point x="193" y="399"/>
      <point x="193" y="421"/>
      <point x="193" y="446" type="curve"/>
      <point x="137" y="446"/>
      <point x="94" y="416"/>
      <point x="94" y="380" type="curve"/>
      <point x="94" y="303"/>
      <point x="135" y="262"/>
      <point x="240" y="241" type="curve" smooth="yes"/>
      <point x="331" y="223" type="line" smooth="yes"/>
      <point x="406" y="207"/>
      <point x="423" y="189"/>
      <point x="423" y="155" type="curve" smooth="yes"/>
      <point x="423" y="136"/>
      <point x="423" y="118"/>
      <point x="423" y="99" type="curve"/>
      <point x="485" y="100"/>
      <point x="520" y="125"/>
      <point x="520" y="154" type="curve" smooth="yes"/>
      <point x="520" y="226"/>
      <point x="482" y="280"/>
    </contour>
    <contour>
      <point x="292" y="86" type="curve" smooth="yes"/>
      <point x="198" y="86"/>
      <point x="153" y="99"/>
      <point x="95" y="132" type="curve"/>
      <point x="79" y="132" type="line"/>
      <point x="79" y="109"/>
      <point x="79" y="78"/>
      <point x="79" y="44" type="curve" smooth="yes"/>
      <point x="79" y="41"/>
      <point x="80" y="39"/>
      <point x="82" y="37" type="curve" smooth="yes"/>
      <point x="101" y="18"/>
      <point x="184" y="-8"/>
      <point x="277" y="-8" type="curve" smooth="yes"/>
      <point x="290" y="-8" type="line" smooth="yes"/>
      <point x="435" y="-8"/>
      <point x="520" y="50"/>
      <point x="520" y="154" type="curve" smooth="yes"/>
      <point x="520" y="195"/>
      <point x="476" y="218"/>
      <point x="423" y="218" type="curve"/>
      <point x="423" y="193"/>
      <point x="423" y="175"/>
      <point x="423" y="155" type="curve" smooth="yes"/>
      <point x="423" y="114"/>
      <point x="389" y="86"/>
    </contour>
    <contour>
      <point x="309" y="544" type="move" name="top"/>
    </contour>
    <contour>
      <point x="305" y="-1" type="move" name="bottom"/>
    </contour>
  </outline>
</glyph>
<glyph name="t" format="1">
  <advance width="600"/>
  <unicode hex="0074"/>
  <outline>
    <contour>
      <point x="198" y="700" type="curve"/>
      <point x="198" y="203" type="line" smooth="yes"/>
      <point x="198" y="103"/>
      <point x="257" y="46"/>
      <point x="352" y="56" type="curve"/>
      <point x="309" y="102"/>
      <point x="297" y="135"/>
      <point x="297" y="214" type="curve" smooth="yes"/>
      <point x="297" y="689" type="line" smooth="yes"/>
      <point x="297" y="695"/>
      <point x="292" y="700"/>
      <point x="286" y="700" type="curve" smooth="yes"/>
      <point x="258" y="700"/>
      <point x="228" y="700"/>
    </contour>
    <contour>
      <point x="500" y="94" type="curve"/>
      <point x="485" y="94" type="line"/>
      <point x="454" y="94"/>
      <point x="447" y="94"/>
      <point x="408" y="94" type="curve" smooth="yes"/>
      <point x="327" y="94"/>
      <point x="297" y="121"/>
      <point x="297" y="214" type="curve"/>
      <point x="219" y="234"/>
      <point x="198" y="221"/>
      <point x="198" y="203" type="curve" smooth="yes"/>
      <point x="198" y="51"/>
      <point x="285" y="0"/>
      <point x="402" y="0" type="curve" smooth="yes"/>
      <point x="489" y="0" type="line" smooth="yes"/>
      <point x="493" y="0"/>
      <point x="495" y="1"/>
      <point x="497" y="3" type="curve" smooth="yes"/>
      <point x="499" y="5"/>
      <point x="500" y="7"/>
      <point x="500" y="11" type="curve" smooth="yes"/>
      <point x="500" y="40"/>
      <point x="500" y="65"/>
    </contour>
    <contour>
      <point x="70" y="533" type="line"/>
      <point x="70" y="504"/>
      <point x="70" y="481"/>
      <point x="70" y="452" type="curve" smooth="yes"/>
      <point x="70" y="449"/>
      <point x="71" y="446"/>
      <point x="73" y="444" type="curve" smooth="yes"/>
      <point x="75" y="442"/>
      <point x="78" y="441"/>
      <point x="81" y="441" type="curve" smooth="yes"/>
      <point x="500" y="441" type="line"/>
      <point x="500" y="470"/>
      <point x="500" y="493"/>
      <point x="500" y="522" type="curve" smooth="yes"/>
      <point x="500" y="528"/>
      <point x="495" y="533"/>
      <point x="489" y="533" type="curve" smooth="yes"/>
    </contour>
    <contour>
      <point x="442" y="700" type="move" name="caronslovak"/>
    </contour>
    <contour>
      <point x="370" y="-1" type="move" name="bottom"/>
    </contour>
  </outline>
</glyph>
<glyph name="u" format="1">
  <advance width="600"/>
  <unicode hex="0075"/>
  <outline>
    <contour>
      <point x="408" y="533" type="curve"/>
      <point x="408" y="11" type="line" smooth="yes"/>
      <point x="408" y="8"/>
      <point x="409" y="5"/>
      <point x="411" y="3" type="curve" smooth="yes"/>
      <point x="413" y="1"/>
      <point x="416" y="0"/>
      <point x="419" y="0" type="curve" smooth="yes"/>
      <point x="448" y="0"/>
      <point x="478" y="0"/>
      <point x="511" y="0" type="curve"/>
      <point x="511" y="22"/>
      <point x="511" y="57"/>
      <point x="511" y="99" type="curve" smooth="yes"/>
      <point x="511" y="522" type="line" smooth="yes"/>
      <point x="511" y="528"/>
      <point x="506" y="533"/>
      <point x="500" y="533" type="curve" smooth="yes"/>
      <point x="470" y="533"/>
      <point x="439" y="533"/>
    </contour>
    <contour>
      <point x="228" y="-11" type="curve" smooth="yes"/>
      <point x="293" y="-11"/>
      <point x="353" y="23"/>
      <point x="412" y="92" type="curve" smooth="yes"/>
      <point x="435" y="118"/>
      <point x="453" y="156"/>
      <point x="440" y="208" type="curve"/>
      <point x="364" y="122"/>
      <point x="314" y="91"/>
      <point x="256" y="91" type="curve" smooth="yes"/>
      <point x="216" y="91"/>
      <point x="193" y="114"/>
      <point x="193" y="170" type="curve"/>
      <point x="103" y="170"/>
      <point x="90" y="157"/>
      <point x="90" y="144" type="curve" smooth="yes"/>
      <point x="90" y="53"/>
      <point x="140" y="-11"/>
    </contour>
    <contour>
      <point x="90" y="533" type="curve"/>
      <point x="90" y="501"/>
      <point x="90" y="468"/>
      <point x="90" y="435" type="curve" smooth="yes"/>
      <point x="90" y="144" type="line"/>
      <point x="90" y="105"/>
      <point x="146" y="74"/>
      <point x="199" y="96" type="curve"/>
      <point x="194" y="118"/>
      <point x="193" y="132"/>
      <point x="193" y="170" type="curve" smooth="yes"/>
      <point x="193" y="522" type="line" smooth="yes"/>
      <point x="193" y="528"/>
      <point x="188" y="533"/>
      <point x="182" y="533" type="curve" smooth="yes"/>
      <point x="151" y="533"/>
      <point x="121" y="533"/>
    </contour>
    <contour>
      <point x="300" y="544" type="move" name="top"/>
    </contour>
    <contour>
      <point x="512" y="0" type="move" name="ogonek"/>
    </contour>
    <contour>
      <point x="280" y="-1" type="move" name="bottom"/>
    </contour>
  </outline>
</glyph>
<glyph name="v" format="1">
  <advance width="600"/>
  <unicode hex="0076"/>
  <outline>
    <contour>
      <point x="540" y="533" type="curve" smooth="yes"/>
      <point x="450" y="533" type="line"/>
      <point x="401" y="375"/>
      <point x="350" y="220"/>
      <point x="298" y="62" type="curve"/>
      <point x="287" y="22"/>
      <point x="278" y="11"/>
      <point x="257" y="0" type="curve"/>
      <point x="373" y="0" type="line"/>
      <point x="433" y="173"/>
      <point x="492" y="345"/>
      <point x="550" y="518" type="curve"/>
      <point x="553" y="526"/>
      <point x="548" y="533"/>
    </contour>
    <contour>
      <point x="141" y="533" type="curve" smooth="yes"/>
      <point x="45" y="533" type="line"/>
      <point x="104" y="359"/>
      <point x="163" y="186"/>
      <point x="222" y="13" type="curve"/>
      <point x="225" y="4"/>
      <point x="231" y="0"/>
      <point x="239" y="0" type="curve" smooth="yes"/>
      <point x="265" y="0" type="line" smooth="yes"/>
      <point x="302" y="0"/>
      <point x="371" y="22"/>
      <point x="373" y="95" type="curve"/>
      <point x="346" y="95"/>
      <point x="325" y="95"/>
      <point x="302" y="95" type="curve" smooth="yes"/>
      <point x="296" y="95"/>
      <point x="293" y="98"/>
      <point x="291" y="104" type="curve"/>
      <point x="245" y="244"/>
      <point x="200" y="382"/>
      <point x="154" y="521" type="curve"/>
      <point x="151" y="529"/>
      <point x="148" y="533"/>
    </contour>
  </outline>
</glyph>
<glyph name="w" format="1">
  <advance width="600"/>
  <unicode hex="0077"/>
  <outline>
    <contour>
      <point x="38" y="533" type="curve"/>
      <point x="63" y="360"/>
      <point x="89" y="186"/>
      <point x="114" y="13" type="curve" smooth="yes"/>
      <point x="115" y="4"/>
      <point x="122" y="0"/>
      <point x="131" y="0" type="curve" smooth="yes"/>
      <point x="155" y="0" type="line" smooth="yes"/>
      <point x="168" y="0"/>
      <point x="183" y="13"/>
      <point x="188" y="30" type="curve" smooth="yes"/>
      <point x="169" y="193"/>
      <point x="152" y="356"/>
      <point x="133" y="519" type="curve"/>
      <point x="132" y="526"/>
      <point x="131" y="529"/>
      <point x="130" y="530" type="curve" smooth="yes"/>
      <point x="129" y="532"/>
      <point x="126" y="533"/>
      <point x="123" y="533" type="curve"/>
      <point x="93" y="533"/>
      <point x="65" y="533"/>
    </contour>
    <contour>
      <point x="308" y="424" type="curve" smooth="yes"/>
      <point x="264" y="424" type="line"/>
      <point x="235" y="304"/>
      <point x="205" y="183"/>
      <point x="176" y="62" type="curve"/>
      <point x="167" y="21"/>
      <point x="160" y="10"/>
      <point x="146" y="0" type="curve"/>
      <point x="225" y="0" type="line"/>
      <point x="256" y="135"/>
      <point x="287" y="270"/>
      <point x="318" y="404" type="curve" smooth="yes"/>
      <point x="321" y="417"/>
      <point x="317" y="424"/>
    </contour>
    <contour>
      <point x="330" y="424" type="curve" smooth="yes"/>
      <point x="279" y="424" type="line"/>
      <point x="310" y="288"/>
      <point x="341" y="150"/>
      <point x="373" y="13" type="curve" smooth="yes"/>
      <point x="375" y="4"/>
      <point x="382" y="0"/>
      <point x="389" y="0" type="curve" smooth="yes"/>
      <point x="411" y="0" type="line" smooth="yes"/>
      <point x="422" y="0"/>
      <point x="433" y="10"/>
      <point x="433" y="25" type="curve" smooth="yes"/>
      <point x="400" y="165"/>
      <point x="370" y="289"/>
      <point x="341" y="413" type="curve" smooth="yes"/>
      <point x="339" y="422"/>
      <point x="335" y="424"/>
    </contour>
    <contour>
      <point x="468" y="533" type="curve"/>
      <point x="451" y="376"/>
      <point x="433" y="219"/>
      <point x="416" y="62" type="curve"/>
      <point x="411" y="24"/>
      <point x="408" y="12"/>
      <point x="402" y="0" type="curve"/>
      <point x="483" y="0" type="line"/>
      <point x="509" y="173"/>
      <point x="535" y="348"/>
      <point x="560" y="520" type="curve"/>
      <point x="561" y="526"/>
      <point x="561" y="528"/>
      <point x="559" y="530" type="curve" smooth="yes"/>
      <point x="557" y="532"/>
      <point x="556" y="533"/>
      <point x="552" y="533" type="curve"/>
      <point x="524" y="533"/>
      <point x="496" y="533"/>
    </contour>
    <contour>
      <point x="298" y="544" type="move" name="top"/>
    </contour>
  </outline>
</glyph>
<glyph name="x" format="1">
  <advance width="600"/>
  <unicode hex="0078"/>
  <outline>
    <contour>
      <point x="437" y="0" type="curve" smooth="yes"/>
      <point x="471" y="0"/>
      <point x="507" y="0"/>
      <point x="541" y="0" type="curve"/>
      <point x="477" y="97"/>
      <point x="412" y="194"/>
      <point x="348" y="291" type="curve" smooth="yes"/>
      <point x="342" y="301"/>
      <point x="330" y="306"/>
      <point x="323" y="316" type="curve" smooth="yes"/>
      <point x="278" y="384"/>
      <point x="233" y="453"/>
      <point x="188" y="521" type="curve" smooth="yes"/>
      <point x="183" y="528"/>
      <point x="177" y="533"/>
      <point x="168" y="533" type="curve" smooth="yes"/>
      <point x="134" y="533"/>
      <point x="98" y="533"/>
      <point x="64" y="533" type="curve"/>
      <point x="126" y="438"/>
      <point x="188" y="345"/>
      <point x="250" y="250" type="curve" smooth="yes"/>
      <point x="258" y="239"/>
      <point x="269" y="234"/>
      <point x="277" y="224" type="curve" smooth="yes"/>
      <point x="323" y="153"/>
      <point x="370" y="82"/>
      <point x="416" y="12" type="curve" smooth="yes"/>
      <point x="421" y="4"/>
      <point x="428" y="0"/>
    </contour>
    <contour>
      <point x="518" y="533" type="curve" smooth="yes"/>
      <point x="424" y="533" type="line"/>
      <point x="379" y="458"/>
      <point x="334" y="385"/>
      <point x="289" y="310" type="curve" smooth="yes"/>
      <point x="281" y="296"/>
      <point x="261" y="310"/>
      <point x="252" y="297" type="curve" smooth="yes"/>
      <point x="192" y="207"/>
      <point x="133" y="117"/>
      <point x="73" y="27" type="curve" smooth="yes"/>
      <point x="67" y="19"/>
      <point x="65" y="14"/>
      <point x="65" y="10" type="curve" smooth="yes"/>
      <point x="65" y="3"/>
      <point x="69" y="0"/>
      <point x="77" y="0" type="curve" smooth="yes"/>
      <point x="172" y="0" type="line"/>
      <point x="220" y="76"/>
      <point x="265" y="151"/>
      <point x="313" y="227" type="curve" smooth="yes"/>
      <point x="322" y="244"/>
      <point x="338" y="229"/>
      <point x="348" y="244" type="curve" smooth="yes"/>
      <point x="408" y="334"/>
      <point x="467" y="423"/>
      <point x="526" y="512" type="curve" smooth="yes"/>
      <point x="529" y="517"/>
      <point x="530" y="520"/>
      <point x="530" y="523" type="curve" smooth="yes"/>
      <point x="530" y="530"/>
      <point x="525" y="533"/>
    </contour>
  </outline>
</glyph>
<glyph name="y" format="1">
  <advance width="600"/>
  <unicode hex="0079"/>
  <outline>
    <contour>
      <point x="541" y="533" type="curve" smooth="yes"/>
      <point x="510" y="533"/>
      <point x="481" y="532"/>
      <point x="455" y="532" type="curve"/>
      <point x="395" y="324"/>
      <point x="297" y="-11"/>
      <point x="274" y="-90" type="curve" smooth="yes"/>
      <point x="261" y="-136"/>
      <point x="231" y="-156"/>
      <point x="186" y="-156" type="curve" smooth="yes"/>
      <point x="89" y="-156" type="line"/>
      <point x="89" y="-239" type="line" smooth="yes"/>
      <point x="89" y="-247"/>
      <point x="93" y="-250"/>
      <point x="100" y="-250" type="curve" smooth="yes"/>
      <point x="194" y="-250" type="line" smooth="yes"/>
      <point x="286" y="-250"/>
      <point x="335" y="-206"/>
      <point x="363" y="-110" type="curve" smooth="yes"/>
      <point x="417" y="80"/>
      <point x="491" y="315"/>
      <point x="553" y="517" type="curve" smooth="yes"/>
      <point x="556" y="527"/>
      <point x="548" y="533"/>
    </contour>
    <contour>
      <point x="138" y="533" type="curve" smooth="yes"/>
      <point x="104" y="533"/>
      <point x="74" y="533"/>
      <point x="45" y="533" type="curve"/>
      <point x="106" y="361"/>
      <point x="230" y="18"/>
      <point x="233" y="9" type="curve" smooth="yes"/>
      <point x="235" y="3"/>
      <point x="239" y="0"/>
      <point x="245" y="0" type="curve" smooth="yes"/>
      <point x="333" y="0" type="line" smooth="yes"/>
      <point x="355" y="0"/>
      <point x="370" y="19"/>
      <point x="372" y="85" type="curve"/>
      <point x="314" y="85" type="line"/>
      <point x="310" y="85"/>
      <point x="307" y="87"/>
      <point x="305" y="93" type="curve" smooth="yes"/>
      <point x="299" y="108"/>
      <point x="181" y="436"/>
      <point x="157" y="520" type="curve" smooth="yes"/>
      <point x="153" y="530"/>
      <point x="149" y="533"/>
    </contour>
    <contour>
      <point x="310" y="544" type="move" name="top"/>
    </contour>
  </outline>
</glyph>
<glyph name="z" format="1">
  <advance width="600"/>
  <unicode hex="007A"/>
  <outline>
    <contour>
      <point x="76" y="533" type="line"/>
      <point x="76" y="505"/>
      <point x="76" y="479"/>
      <point x="76" y="451" type="curve" smooth="yes"/>
      <point x="76" y="448"/>
      <point x="77" y="445"/>
      <point x="79" y="443" type="curve" smooth="yes"/>
      <point x="81" y="441"/>
      <point x="84" y="440"/>
      <point x="87" y="440" type="curve" smooth="yes"/>
      <point x="415" y="440" type="line" smooth="yes"/>
      <point x="448" y="440"/>
      <point x="497" y="442"/>
      <point x="526" y="446" type="curve"/>
      <point x="526" y="522" type="line" smooth="yes"/>
      <point x="526" y="525"/>
      <point x="525" y="528"/>
      <point x="523" y="530" type="curve" smooth="yes"/>
      <point x="521" y="532"/>
      <point x="518" y="533"/>
      <point x="515" y="533" type="curve" smooth="yes"/>
    </contour>
    <contour>
      <point x="433" y="478" type="curve"/>
      <point x="313" y="347"/>
      <point x="196" y="218"/>
      <point x="76" y="87" type="curve"/>
      <point x="76" y="17"/>
      <point x="154" y="35"/>
      <point x="181" y="63" type="curve" smooth="yes"/>
      <point x="305" y="200"/>
      <point x="526" y="444"/>
      <point x="526" y="446" type="curve"/>
      <point x="526" y="468"/>
      <point x="496" y="478"/>
    </contour>
    <contour>
      <point x="526" y="0" type="line"/>
      <point x="526" y="28"/>
      <point x="526" y="54"/>
      <point x="526" y="82" type="curve"/>
      <point x="526" y="88"/>
      <point x="521" y="93"/>
      <point x="515" y="93" type="curve" smooth="yes"/>
      <point x="190" y="93" type="line" smooth="yes"/>
      <point x="153" y="93"/>
      <point x="114" y="91"/>
      <point x="76" y="87" type="curve"/>
      <point x="76" y="11" type="line" smooth="yes"/>
      <point x="76" y="8"/>
      <point x="77" y="5"/>
      <point x="79" y="3" type="curve" smooth="yes"/>
      <point x="81" y="1"/>
      <point x="84" y="0"/>
      <point x="87" y="0" type="curve" smooth="yes"/>
    </contour>
    <contour>
      <point x="300" y="544" type="move" name="top"/>
    </contour>
  </outline>
</glyph>
<glyph name="braceleft" format="1">
  <advance width="600"/>
  <unicode hex="007B"/>
  <outline>
    <contour>
      <point x="366" y="665" type="curve" smooth="yes"/>
      <point x="428" y="665"/>
      <point x="440" y="665"/>
      <point x="495" y="665" type="curve"/>
      <point x="515" y="665" type="line"/>
      <point x="515" y="693"/>
      <point x="515" y="721"/>
      <point x="515" y="749" type="curve"/>
      <point x="515" y="756"/>
      <point x="511" y="760"/>
      <point x="504" y="760" type="curve" smooth="yes"/>
      <point x="332" y="760" type="line" smooth="yes"/>
      <point x="252" y="760"/>
      <point x="224" y="699"/>
      <point x="224" y="662" type="curve" smooth="yes"/>
      <point x="224" y="658" type="line" smooth="yes"/>
      <point x="224" y="649"/>
      <point x="232" y="645"/>
      <point x="321" y="622" type="curve"/>
      <point x="324" y="654"/>
      <point x="336" y="665"/>
    </contour>
    <contour>
      <point x="389" y="446" type="curve" smooth="yes"/>
      <point x="389" y="531"/>
      <point x="323" y="561"/>
      <point x="323" y="608" type="curve" smooth="yes"/>
      <point x="323" y="620"/>
      <point x="323" y="659"/>
      <point x="323" y="679" type="curve"/>
      <point x="228" y="672"/>
      <point x="224" y="668"/>
      <point x="224" y="662" type="curve" smooth="yes"/>
      <point x="224" y="614" type="line" smooth="yes"/>
      <point x="224" y="532"/>
      <point x="291" y="511"/>
      <point x="291" y="445" type="curve" smooth="yes"/>
      <point x="291" y="383"/>
      <point x="222" y="347"/>
      <point x="105" y="347" type="curve" smooth="yes"/>
      <point x="73" y="347" type="line"/>
      <point x="73" y="286" type="line" smooth="yes"/>
      <point x="73" y="277"/>
      <point x="79" y="272"/>
      <point x="87" y="272" type="curve" smooth="yes"/>
      <point x="105" y="272" type="line" smooth="yes"/>
      <point x="297" y="272"/>
      <point x="389" y="347"/>
    </contour>
    <contour>
      <point x="389" y="153" type="curve" smooth="yes"/>
      <point x="389" y="254"/>
      <point x="299" y="328"/>
      <point x="105" y="328" type="curve" smooth="yes"/>
      <point x="94" y="328"/>
      <point x="84" y="328"/>
      <point x="73" y="328" type="curve"/>
      <point x="73" y="264" type="line" smooth="yes"/>
      <point x="73" y="257"/>
      <point x="77" y="253"/>
      <point x="84" y="253" type="curve" smooth="yes"/>
      <point x="105" y="253" type="line" smooth="yes"/>
      <point x="222" y="253"/>
      <point x="291" y="214"/>
      <point x="291" y="153" type="curve" smooth="yes"/>
      <point x="291" y="88"/>
      <point x="224" y="67"/>
      <point x="224" y="-15" type="curve" smooth="yes"/>
      <point x="224" y="-63" type="line" smooth="yes"/>
      <point x="224" y="-69"/>
      <point x="229" y="-73"/>
      <point x="323" y="-78" type="curve"/>
      <point x="323" y="-55"/>
      <point x="323" y="-32"/>
      <point x="323" y="-9" type="curve" smooth="yes"/>
      <point x="323" y="38"/>
      <point x="389" y="68"/>
    </contour>
    <contour>
      <point x="366" y="-66" type="curve" smooth="yes"/>
      <point x="336" y="-66"/>
      <point x="324" y="-55"/>
      <point x="321" y="-23" type="curve"/>
      <point x="233" y="-46"/>
      <point x="224" y="-50"/>
      <point x="224" y="-59" type="curve" smooth="yes"/>
      <point x="224" y="-63" type="line" smooth="yes"/>
      <point x="224" y="-100"/>
      <point x="252" y="-161"/>
      <point x="332" y="-161" type="curve" smooth="yes"/>
      <point x="504" y="-161" type="line" smooth="yes"/>
      <point x="511" y="-161"/>
      <point x="515" y="-157"/>
      <point x="515" y="-150" type="curve"/>
      <point x="515" y="-66" type="line"/>
      <point x="495" y="-66" type="line"/>
      <point x="440" y="-66"/>
      <point x="428" y="-66"/>
    </contour>
  </outline>
</glyph>
<glyph name="bar" format="1">
  <advance width="600"/>
  <unicode hex="007C"/>
  <outline>
    <contour>
      <point x="248" y="760" type="curve"/>
      <point x="248" y="726"/>
      <point x="248" y="692"/>
      <point x="248" y="657" type="curve" smooth="yes"/>
      <point x="248" y="-150" type="line" smooth="yes"/>
      <point x="248" y="-156"/>
      <point x="253" y="-161"/>
      <point x="259" y="-161" type="curve" smooth="yes"/>
      <point x="290" y="-161"/>
      <point x="321" y="-161"/>
      <point x="352" y="-161" type="curve"/>
      <point x="352" y="749" type="line" smooth="yes"/>
      <point x="352" y="752"/>
      <point x="351" y="755"/>
      <point x="349" y="757" type="curve" smooth="yes"/>
      <point x="347" y="759"/>
      <point x="344" y="760"/>
      <point x="341" y="760" type="curve" smooth="yes"/>
      <point x="310" y="760"/>
      <point x="279" y="760"/>
    </contour>
  </outline>
</glyph>
<glyph name="braceright" format="1">
  <advance width="600"/>
  <unicode hex="007D"/>
  <outline>
    <contour>
      <point x="234" y="-66" type="curve" smooth="yes"/>
      <point x="172" y="-66"/>
      <point x="160" y="-66"/>
      <point x="105" y="-66" type="curve"/>
      <point x="85" y="-66" type="line"/>
      <point x="85" y="-94"/>
      <point x="85" y="-122"/>
      <point x="85" y="-150" type="curve"/>
      <point x="85" y="-157"/>
      <point x="89" y="-161"/>
      <point x="96" y="-161" type="curve" smooth="yes"/>
      <point x="268" y="-161" type="line" smooth="yes"/>
      <point x="348" y="-161"/>
      <point x="376" y="-100"/>
      <point x="376" y="-63" type="curve" smooth="yes"/>
      <point x="376" y="-59" type="line" smooth="yes"/>
      <point x="376" y="-50"/>
      <point x="368" y="-46"/>
      <point x="279" y="-23" type="curve"/>
      <point x="276" y="-55"/>
      <point x="264" y="-66"/>
    </contour>
    <contour>
      <point x="211" y="153" type="curve" smooth="yes"/>
      <point x="211" y="68"/>
      <point x="277" y="38"/>
      <point x="277" y="-9" type="curve" smooth="yes"/>
      <point x="277" y="-21"/>
      <point x="277" y="-60"/>
      <point x="277" y="-80" type="curve"/>
      <point x="372" y="-73"/>
      <point x="376" y="-69"/>
      <point x="376" y="-63" type="curve" smooth="yes"/>
      <point x="376" y="-15" type="line" smooth="yes"/>
      <point x="376" y="67"/>
      <point x="309" y="88"/>
      <point x="309" y="154" type="curve" smooth="yes"/>
      <point x="309" y="216"/>
      <point x="378" y="252"/>
      <point x="495" y="252" type="curve" smooth="yes"/>
      <point x="527" y="252" type="line"/>
      <point x="527" y="313" type="line" smooth="yes"/>
      <point x="527" y="322"/>
      <point x="521" y="327"/>
      <point x="513" y="327" type="curve" smooth="yes"/>
      <point x="495" y="327" type="line" smooth="yes"/>
      <point x="303" y="327"/>
      <point x="211" y="252"/>
    </contour>
    <contour>
      <point x="211" y="446" type="curve" smooth="yes"/>
      <point x="211" y="345"/>
      <point x="301" y="271"/>
      <point x="495" y="271" type="curve" smooth="yes"/>
      <point x="506" y="271"/>
      <point x="516" y="271"/>
      <point x="527" y="271" type="curve"/>
      <point x="527" y="335" type="line" smooth="yes"/>
      <point x="527" y="342"/>
      <point x="523" y="346"/>
      <point x="516" y="346" type="curve" smooth="yes"/>
      <point x="495" y="346" type="line" smooth="yes"/>
      <point x="378" y="346"/>
      <point x="309" y="385"/>
      <point x="309" y="446" type="curve" smooth="yes"/>
      <point x="309" y="511"/>
      <point x="376" y="532"/>
      <point x="376" y="614" type="curve" smooth="yes"/>
      <point x="376" y="662" type="line" smooth="yes"/>
      <point x="376" y="668"/>
      <point x="371" y="672"/>
      <point x="277" y="677" type="curve"/>
      <point x="277" y="654"/>
      <point x="277" y="631"/>
      <point x="277" y="608" type="curve" smooth="yes"/>
      <point x="277" y="561"/>
      <point x="211" y="531"/>
    </contour>
    <contour>
      <point x="234" y="665" type="curve" smooth="yes"/>
      <point x="264" y="665"/>
      <point x="276" y="654"/>
      <point x="279" y="622" type="curve"/>
      <point x="367" y="645"/>
      <point x="376" y="649"/>
      <point x="376" y="658" type="curve" smooth="yes"/>
      <point x="376" y="662" type="line" smooth="yes"/>
      <point x="376" y="699"/>
      <point x="348" y="760"/>
      <point x="268" y="760" type="curve" smooth="yes"/>
      <point x="96" y="760" type="line" smooth="yes"/>
      <point x="89" y="760"/>
      <point x="85" y="756"/>
      <point x="85" y="749" type="curve"/>
      <point x="85" y="665" type="line"/>
      <point x="105" y="665" type="line"/>
      <point x="160" y="665"/>
      <point x="172" y="665"/>
    </contour>
  </outline>
</glyph>
<glyph name="asciitilde" format="1">
  <advance width="600"/>
  <unicode hex="007E"/>
  <outline>
    <contour>
      <point x="426" y="297" type="curve" smooth="yes"/>
      <point x="343" y="297"/>
      <point x="278" y="397"/>
      <point x="176" y="397" type="curve" smooth="yes"/>
      <point x="123" y="397"/>
      <point x="90" y="380"/>
      <point x="65" y="354" type="curve" smooth="yes"/>
      <point x="57" y="345"/>
      <point x="57" y="340"/>
      <point x="57" y="332" type="curve" smooth="yes"/>
      <point x="57" y="308"/>
      <point x="57" y="280"/>
      <point x="57" y="253" type="curve"/>
      <point x="73" y="253" type="line"/>
      <point x="104" y="289"/>
      <point x="132" y="304"/>
      <point x="174" y="304" type="curve" smooth="yes"/>
      <point x="257" y="304"/>
      <point x="322" y="204"/>
      <point x="424" y="204" type="curve" smooth="yes"/>
      <point x="477" y="204"/>
      <point x="510" y="221"/>
      <point x="535" y="247" type="curve" smooth="yes"/>
      <point x="543" y="256"/>
      <point x="543" y="261"/>
      <point x="543" y="269" type="curve" smooth="yes"/>
      <point x="543" y="293"/>
      <point x="543" y="321"/>
      <point x="543" y="348" type="curve"/>
      <point x="527" y="348" type="line"/>
      <point x="496" y="312"/>
      <point x="468" y="297"/>
    </contour>
  </outline>
</glyph>
<glyph name="exclamdown" format="1">
  <advance width="600"/>
  <unicode hex="00A1"/>
  <outline>
    <contour>
      <point x="262" y="269" type="line"/>
      <point x="254" y="189"/>
      <point x="246" y="110"/>
      <point x="238" y="31" type="curve"/>
      <point x="238" y="-156" type="line" smooth="yes"/>
      <point x="238" y="-163"/>
      <point x="243" y="-167"/>
      <point x="249" y="-167" type="curve" smooth="yes"/>
      <point x="295" y="-167"/>
      <point x="331" y="-167"/>
      <point x="362" y="-167" type="curve"/>
      <point x="362" y="-129"/>
      <point x="362" y="-94"/>
      <point x="362" y="-57" type="curve" smooth="yes"/>
      <point x="362" y="31" type="line"/>
      <point x="341" y="257"/>
      <point x="340" y="262"/>
      <point x="336" y="266" type="curve" smooth="yes"/>
      <point x="334" y="268"/>
      <point x="332" y="269"/>
      <point x="328" y="269" type="curve"/>
    </contour>
    <contour>
      <point x="220" y="540" type="curve"/>
      <point x="220" y="392" type="line" smooth="yes"/>
      <point x="220" y="386"/>
      <point x="225" y="381"/>
      <point x="231" y="381" type="curve" smooth="yes"/>
      <point x="277" y="381"/>
      <point x="334" y="381"/>
      <point x="380" y="381" type="curve"/>
      <point x="380" y="529" type="line" smooth="yes"/>
      <point x="380" y="535"/>
      <point x="375" y="540"/>
      <point x="369" y="540" type="curve" smooth="yes"/>
      <point x="323" y="540"/>
      <point x="266" y="540"/>
    </contour>
  </outline>
</glyph>
<glyph name="cent" format="1">
  <advance width="600"/>
  <unicode hex="00A2"/>
  <outline>
    <contour>
      <point x="372" y="394" type="line"/>
      <point x="415" y="759" type="line" smooth="yes"/>
      <point x="416" y="768"/>
      <point x="411" y="772"/>
      <point x="405" y="772" type="curve" smooth="yes"/>
      <point x="368" y="772"/>
      <point x="352" y="772"/>
      <point x="314" y="772" type="curve"/>
      <point x="314" y="741"/>
      <point x="314" y="711"/>
      <point x="314" y="681" type="curve"/>
      <point x="314" y="419" type="line" smooth="yes"/>
      <point x="314" y="411"/>
      <point x="318" y="407"/>
      <point x="325" y="405" type="curve" smooth="yes"/>
    </contour>
    <contour>
      <point x="315" y="306" type="line"/>
      <point x="272" y="-59" type="line" smooth="yes"/>
      <point x="271" y="-68"/>
      <point x="276" y="-72"/>
      <point x="282" y="-72" type="curve" smooth="yes"/>
      <point x="319" y="-72"/>
      <point x="335" y="-72"/>
      <point x="373" y="-72" type="curve"/>
      <point x="373" y="-42"/>
      <point x="373" y="-11"/>
      <point x="373" y="19" type="curve"/>
      <point x="373" y="280" type="line" smooth="yes"/>
      <point x="373" y="288"/>
      <point x="369" y="293"/>
      <point x="362" y="294" type="curve" smooth="yes"/>
    </contour>
    <contour>
      <point x="341" y="628" type="curve" smooth="yes"/>
      <point x="189" y="628"/>
      <point x="83" y="539"/>
      <point x="83" y="388" type="curve" smooth="yes"/>
      <point x="83" y="309" type="line" smooth="yes"/>
      <point x="83" y="158"/>
      <point x="173" y="74"/>
      <point x="339" y="74" type="curve" smooth="yes"/>
      <point x="351" y="74"/>
      <point x="358" y="94"/>
      <point x="337" y="171" type="curve"/>
      <point x="232" y="171"/>
      <point x="184" y="219"/>
      <point x="184" y="316" type="curve" smooth="yes"/>
      <point x="184" y="383" type="line" smooth="yes"/>
      <point x="184" y="486"/>
      <point x="240" y="531"/>
      <point x="340" y="531" type="curve" smooth="yes"/>
      <point x="401" y="531"/>
      <point x="445" y="516"/>
      <point x="493" y="492" type="curve"/>
      <point x="509" y="492" type="line"/>
      <point x="509" y="518"/>
      <point x="509" y="546"/>
      <point x="509" y="576" type="curve" smooth="yes"/>
      <point x="509" y="580"/>
      <point x="508" y="583"/>
      <point x="504" y="586" type="curve" smooth="yes"/>
      <point x="489" y="602"/>
      <point x="431" y="628"/>
    </contour>
    <contour>
      <point x="151" y="245" type="curve"/>
      <point x="130" y="141"/>
      <point x="204" y="74"/>
      <point x="339" y="74" type="curve" smooth="yes"/>
      <point x="423" y="74"/>
      <point x="486" y="96"/>
      <point x="506" y="116" type="curve" smooth="yes"/>
      <point x="508" y="118"/>
      <point x="509" y="121"/>
      <point x="509" y="124" type="curve"/>
      <point x="509" y="152"/>
      <point x="509" y="180"/>
      <point x="509" y="209" type="curve"/>
      <point x="493" y="209" type="line"/>
      <point x="443" y="185"/>
      <point x="400" y="171"/>
      <point x="337" y="171" type="curve" smooth="yes"/>
      <point x="251" y="171"/>
      <point x="202" y="196"/>
    </contour>
  </outline>
</glyph>
<glyph name="sterling" format="1">
  <advance width="600"/>
  <unicode hex="00A3"/>
  <outline>
    <contour>
      <point x="369" y="623" type="curve" smooth="yes"/>
      <point x="426" y="623"/>
      <point x="460" y="609"/>
      <point x="506" y="581" type="curve"/>
      <point x="522" y="581" type="line"/>
      <point x="522" y="602"/>
      <point x="522" y="632"/>
      <point x="522" y="669" type="curve" smooth="yes"/>
      <point x="522" y="672"/>
      <point x="521" y="674"/>
      <point x="519" y="676" type="curve" smooth="yes"/>
      <point x="499" y="696"/>
      <point x="445" y="720"/>
      <point x="369" y="720" type="curve" smooth="yes"/>
      <point x="230" y="720"/>
      <point x="153" y="641"/>
      <point x="153" y="541" type="curve" smooth="yes"/>
      <point x="153" y="520" type="line" smooth="yes"/>
      <point x="153" y="505"/>
      <point x="164" y="504"/>
      <point x="251" y="523" type="curve"/>
      <point x="251" y="591"/>
      <point x="290" y="623"/>
    </contour>
    <contour>
      <point x="153" y="520" type="curve" smooth="yes"/>
      <point x="153" y="405"/>
      <point x="153" y="312"/>
      <point x="153" y="189" type="curve" smooth="yes"/>
      <point x="153" y="126"/>
      <point x="116" y="91"/>
      <point x="64" y="91" type="curve" smooth="yes"/>
      <point x="59" y="91"/>
      <point x="54" y="91"/>
      <point x="49" y="91" type="curve"/>
      <point x="45" y="91" type="line"/>
      <point x="45" y="64"/>
      <point x="45" y="43"/>
      <point x="45" y="11" type="curve" smooth="yes"/>
      <point x="45" y="3"/>
      <point x="49" y="0"/>
      <point x="56" y="0" type="curve" smooth="yes"/>
      <point x="61" y="0" type="line" smooth="yes"/>
      <point x="168" y="0"/>
      <point x="251" y="58"/>
      <point x="251" y="205" type="curve" smooth="yes"/>
      <point x="251" y="317"/>
      <point x="251" y="418"/>
      <point x="251" y="523" type="curve" smooth="yes"/>
      <point x="251" y="552"/>
      <point x="251" y="580"/>
      <point x="251" y="608" type="curve"/>
      <point x="196" y="608"/>
      <point x="153" y="576"/>
    </contour>
    <contour>
      <point x="61" y="0" type="curve"/>
      <point x="235" y="0"/>
      <point x="337" y="0"/>
      <point x="469" y="0" type="curve" smooth="yes"/>
      <point x="534" y="0" type="line" smooth="yes"/>
      <point x="542" y="0"/>
      <point x="545" y="3"/>
      <point x="545" y="11" type="curve"/>
      <point x="545" y="38"/>
      <point x="545" y="64"/>
      <point x="545" y="91" type="curve"/>
      <point x="525" y="91" type="line"/>
      <point x="500" y="91"/>
      <point x="482" y="91"/>
      <point x="451" y="91" type="curve" smooth="yes"/>
      <point x="353" y="91"/>
      <point x="281" y="91"/>
      <point x="130" y="91" type="curve"/>
      <point x="55" y="7"/>
      <point x="56" y="0"/>
    </contour>
    <contour>
      <point x="65" y="389" type="line"/>
      <point x="65" y="361"/>
      <point x="65" y="353"/>
      <point x="65" y="325" type="curve" smooth="yes"/>
      <point x="65" y="322"/>
      <point x="66" y="319"/>
      <point x="68" y="317" type="curve" smooth="yes"/>
      <point x="70" y="315"/>
      <point x="73" y="314"/>
      <point x="76" y="314" type="curve" smooth="yes"/>
      <point x="450" y="314" type="line"/>
      <point x="450" y="342"/>
      <point x="450" y="350"/>
      <point x="450" y="378" type="curve" smooth="yes"/>
      <point x="450" y="384"/>
      <point x="445" y="389"/>
      <point x="439" y="389" type="curve" smooth="yes"/>
    </contour>
  </outline>
</glyph>
<glyph name="yen" format="1">
  <advance width="600"/>
  <unicode hex="00A5"/>
  <outline>
    <contour>
      <point x="34" y="459" type="line"/>
      <point x="34" y="431"/>
      <point x="34" y="422"/>
      <point x="34" y="394" type="curve" smooth="yes"/>
      <point x="34" y="391"/>
      <point x="35" y="388"/>
      <point x="37" y="386" type="curve" smooth="yes"/>
      <point x="39" y="384"/>
      <point x="42" y="383"/>
      <point x="45" y="383" type="curve"/>
      <point x="217" y="383" type="line"/>
      <point x="217" y="411"/>
      <point x="217" y="420"/>
      <point x="217" y="448" type="curve" smooth="yes"/>
      <point x="217" y="454"/>
      <point x="212" y="459"/>
      <point x="206" y="459" type="curve"/>
    </contour>
    <contour>
      <point x="383" y="459" type="line"/>
      <point x="383" y="431"/>
      <point x="383" y="422"/>
      <point x="383" y="394" type="curve" smooth="yes"/>
      <point x="383" y="388"/>
      <point x="388" y="383"/>
      <point x="394" y="383" type="curve"/>
      <point x="566" y="383" type="line"/>
      <point x="566" y="411"/>
      <point x="566" y="420"/>
      <point x="566" y="448" type="curve" smooth="yes"/>
      <point x="566" y="454"/>
      <point x="561" y="459"/>
      <point x="555" y="459" type="curve"/>
    </contour>
    <contour>
      <point x="566" y="144" type="line"/>
      <point x="566" y="172"/>
      <point x="566" y="181"/>
      <point x="566" y="208" type="curve" smooth="yes"/>
      <point x="566" y="211"/>
      <point x="565" y="214"/>
      <point x="563" y="216" type="curve" smooth="yes"/>
      <point x="561" y="218"/>
      <point x="558" y="219"/>
      <point x="555" y="219" type="curve"/>
      <point x="34" y="219" type="line"/>
      <point x="34" y="192"/>
      <point x="34" y="183"/>
      <point x="34" y="155" type="curve" smooth="yes"/>
      <point x="34" y="149"/>
      <point x="39" y="144"/>
      <point x="45" y="144" type="curve"/>
    </contour>
    <contour>
      <point x="28" y="700" type="line"/>
      <point x="103" y="554"/>
      <point x="179" y="407"/>
      <point x="253" y="261" type="curve"/>
      <point x="257" y="254"/>
      <point x="264" y="252"/>
      <point x="271" y="252" type="curve"/>
      <point x="308" y="252"/>
      <point x="327" y="300"/>
      <point x="319" y="329" type="curve"/>
      <point x="261" y="448"/>
      <point x="203" y="568"/>
      <point x="145" y="687" type="curve"/>
      <point x="142" y="695"/>
      <point x="138" y="700"/>
      <point x="128" y="700" type="curve" smooth="yes"/>
    </contour>
    <contour>
      <point x="462" y="700" type="line"/>
      <point x="403" y="575"/>
      <point x="345" y="452"/>
      <point x="286" y="327" type="curve"/>
      <point x="269" y="287"/>
      <point x="274" y="264"/>
      <point x="271" y="252" type="curve"/>
      <point x="342" y="252" type="line"/>
      <point x="416" y="396"/>
      <point x="491" y="540"/>
      <point x="566" y="684" type="curve"/>
      <point x="569" y="693"/>
      <point x="564" y="700"/>
      <point x="556" y="700" type="curve"/>
    </contour>
    <contour>
      <point x="352" y="0" type="curve"/>
      <point x="352" y="32"/>
      <point x="352" y="66"/>
      <point x="352" y="100" type="curve" smooth="yes"/>
      <point x="352" y="299" type="line" smooth="yes"/>
      <point x="352" y="305"/>
      <point x="347" y="310"/>
      <point x="248" y="310" type="curve"/>
      <point x="248" y="11" type="line" smooth="yes"/>
      <point x="248" y="8"/>
      <point x="249" y="5"/>
      <point x="251" y="3" type="curve" smooth="yes"/>
      <point x="253" y="1"/>
      <point x="256" y="0"/>
      <point x="259" y="0" type="curve" smooth="yes"/>
      <point x="290" y="0"/>
      <point x="321" y="0"/>
    </contour>
  </outline>
</glyph>
<glyph name="brokenbar" format="1">
  <advance width="600"/>
  <unicode hex="00A6"/>
  <outline>
    <contour>
      <point x="248" y="760" type="curve"/>
      <point x="248" y="727"/>
      <point x="248" y="694"/>
      <point x="248" y="661" type="curve" smooth="yes"/>
      <point x="248" y="380" type="line" smooth="yes"/>
      <point x="248" y="374"/>
      <point x="253" y="369"/>
      <point x="259" y="369" type="curve" smooth="yes"/>
      <point x="290" y="369"/>
      <point x="320" y="369"/>
      <point x="352" y="369" type="curve"/>
      <point x="352" y="749" type="line" smooth="yes"/>
      <point x="352" y="752"/>
      <point x="351" y="755"/>
      <point x="349" y="757" type="curve" smooth="yes"/>
      <point x="347" y="759"/>
      <point x="344" y="760"/>
      <point x="341" y="760" type="curve" smooth="yes"/>
      <point x="309" y="760"/>
      <point x="279" y="760"/>
    </contour>
    <contour>
      <point x="248" y="231" type="curve"/>
      <point x="248" y="-149" type="line"/>
      <point x="248" y="-155"/>
      <point x="253" y="-160"/>
      <point x="259" y="-160" type="curve" smooth="yes"/>
      <point x="290" y="-160"/>
      <point x="320" y="-160"/>
      <point x="352" y="-160" type="curve"/>
      <point x="352" y="220" type="line" smooth="yes"/>
      <point x="352" y="227"/>
      <point x="348" y="231"/>
      <point x="341" y="231" type="curve" smooth="yes"/>
      <point x="309" y="231"/>
      <point x="279" y="231"/>
    </contour>
  </outline>
</glyph>
<glyph name="section" format="1">
  <advance width="600"/>
  <unicode hex="00A7"/>
  <outline>
    <contour>
      <point x="318" y="718" type="curve" smooth="yes"/>
      <point x="179" y="718"/>
      <point x="79" y="639"/>
      <point x="79" y="534" type="curve" smooth="yes"/>
      <point x="79" y="489" type="line" smooth="yes"/>
      <point x="79" y="465"/>
      <point x="123" y="437"/>
      <point x="175" y="431" type="curve"/>
      <point x="175" y="454"/>
      <point x="175" y="504"/>
      <point x="175" y="528" type="curve" smooth="yes"/>
      <point x="175" y="592"/>
      <point x="230" y="627"/>
      <point x="319" y="627" type="curve" smooth="yes"/>
      <point x="384" y="627"/>
      <point x="446" y="611"/>
      <point x="484" y="583" type="curve"/>
      <point x="517" y="638"/>
      <point x="519" y="643"/>
      <point x="519" y="649" type="curve" smooth="yes"/>
      <point x="519" y="660"/>
      <point x="517" y="663"/>
      <point x="512" y="668" type="curve" smooth="yes"/>
      <point x="485" y="695"/>
      <point x="413" y="718"/>
    </contour>
    <contour>
      <point x="382" y="381" type="curve" smooth="yes"/>
      <point x="286" y="410" type="line" smooth="yes"/>
      <point x="201" y="435"/>
      <point x="175" y="456"/>
      <point x="175" y="504" type="curve" smooth="yes"/>
      <point x="175" y="525"/>
      <point x="175" y="553"/>
      <point x="175" y="568" type="curve"/>
      <point x="125" y="568"/>
      <point x="79" y="559"/>
      <point x="79" y="489" type="curve" smooth="yes"/>
      <point x="79" y="423"/>
      <point x="117" y="363"/>
      <point x="246" y="324" type="curve" smooth="yes"/>
      <point x="343" y="295" type="line" smooth="yes"/>
      <point x="422" y="271"/>
      <point x="439" y="244"/>
      <point x="439" y="196" type="curve" smooth="yes"/>
      <point x="439" y="173" type="line" smooth="yes"/>
      <point x="439" y="136"/>
      <point x="426" y="114"/>
      <point x="386" y="79" type="curve"/>
      <point x="414" y="74"/>
      <point x="433" y="73"/>
      <point x="450" y="73" type="curve" smooth="yes"/>
      <point x="492" y="73"/>
      <point x="536" y="128"/>
      <point x="536" y="186" type="curve" smooth="yes"/>
      <point x="536" y="211" type="line" smooth="yes"/>
      <point x="536" y="291"/>
      <point x="501" y="346"/>
    </contour>
    <contour>
      <point x="377" y="119" type="curve" smooth="yes"/>
      <point x="280" y="148" type="line" smooth="yes"/>
      <point x="196" y="172"/>
      <point x="175" y="198"/>
      <point x="175" y="246" type="curve" smooth="yes"/>
      <point x="175" y="266" type="line" smooth="yes"/>
      <point x="175" y="315"/>
      <point x="186" y="337"/>
      <point x="235" y="365" type="curve"/>
      <point x="199" y="368"/>
      <point x="183" y="370"/>
      <point x="168" y="370" type="curve" smooth="yes"/>
      <point x="122" y="370"/>
      <point x="79" y="313"/>
      <point x="79" y="249" type="curve" smooth="yes"/>
      <point x="79" y="226" type="line" smooth="yes"/>
      <point x="79" y="160"/>
      <point x="114" y="101"/>
      <point x="243" y="62" type="curve" smooth="yes"/>
      <point x="339" y="33" type="line" smooth="yes"/>
      <point x="419" y="9"/>
      <point x="439" y="-9"/>
      <point x="439" y="-53" type="curve" smooth="yes"/>
      <point x="439" y="-77"/>
      <point x="439" y="-103"/>
      <point x="439" y="-124" type="curve"/>
      <point x="480" y="-124"/>
      <point x="536" y="-88"/>
      <point x="536" y="-51" type="curve"/>
      <point x="536" y="34"/>
      <point x="496" y="84"/>
    </contour>
    <contour>
      <point x="289" y="-250" type="curve" smooth="yes"/>
      <point x="443" y="-250"/>
      <point x="536" y="-176"/>
      <point x="536" y="-69" type="curve" smooth="yes"/>
      <point x="536" y="-51" type="line" smooth="yes"/>
      <point x="536" y="-34"/>
      <point x="494" y="-19"/>
      <point x="439" y="-19" type="curve"/>
      <point x="439" y="-39"/>
      <point x="439" y="-48"/>
      <point x="439" y="-67" type="curve" smooth="yes"/>
      <point x="439" y="-119"/>
      <point x="390" y="-156"/>
      <point x="295" y="-156" type="curve" smooth="yes"/>
      <point x="205" y="-156"/>
      <point x="146" y="-135"/>
      <point x="85" y="-86" type="curve"/>
      <point x="69" y="-86" type="line"/>
      <point x="69" y="-105"/>
      <point x="69" y="-138"/>
      <point x="69" y="-178" type="curve" smooth="yes"/>
      <point x="69" y="-181"/>
      <point x="70" y="-184"/>
      <point x="72" y="-186" type="curve" smooth="yes"/>
      <point x="112" y="-226"/>
      <point x="195" y="-250"/>
    </contour>
    <contour>
      <point x="519" y="516" type="curve"/>
      <point x="519" y="649" type="line" smooth="yes"/>
      <point x="519" y="661"/>
      <point x="511" y="666"/>
      <point x="423" y="666" type="curve"/>
      <point x="423" y="657"/>
      <point x="423" y="647"/>
      <point x="423" y="635" type="curve" smooth="yes"/>
      <point x="423" y="527" type="line" smooth="yes"/>
      <point x="423" y="522"/>
      <point x="424" y="520"/>
      <point x="426" y="519" type="curve" smooth="yes"/>
      <point x="427" y="517"/>
      <point x="430" y="516"/>
      <point x="433" y="516" type="curve" smooth="yes"/>
      <point x="462" y="516"/>
      <point x="490" y="516"/>
    </contour>
  </outline>
</glyph>
<glyph name="copyright" format="1">
  <advance width="600"/>
  <unicode hex="00A9"/>
  <outline>
    <contour>
      <point x="300" y="715" type="curve" smooth="yes"/>
      <point x="129" y="715"/>
      <point x="18" y="615"/>
      <point x="18" y="434" type="curve" smooth="yes"/>
      <point x="18" y="271" type="line" smooth="yes"/>
      <point x="18" y="85"/>
      <point x="123" y="-15"/>
      <point x="300" y="-15" type="curve" smooth="yes"/>
      <point x="303" y="-5"/>
      <point x="313" y="21"/>
      <point x="300" y="39" type="curve"/>
      <point x="158" y="39"/>
      <point x="75" y="120"/>
      <point x="75" y="255" type="curve" smooth="yes"/>
      <point x="75" y="446" type="line" smooth="yes"/>
      <point x="75" y="580"/>
      <point x="158" y="661"/>
      <point x="300" y="661" type="curve" smooth="yes"/>
      <point x="353" y="661"/>
      <point x="387" y="657"/>
      <point x="431" y="644" type="curve"/>
      <point x="445" y="682"/>
      <point x="389" y="715"/>
    </contour>
    <contour>
      <point x="300" y="-15" type="curve" smooth="yes"/>
      <point x="471" y="-15"/>
      <point x="582" y="85"/>
      <point x="582" y="266" type="curve" smooth="yes"/>
      <point x="582" y="429" type="line" smooth="yes"/>
      <point x="582" y="615"/>
      <point x="477" y="715"/>
      <point x="300" y="715" type="curve" smooth="yes"/>
      <point x="297" y="705"/>
      <point x="287" y="679"/>
      <point x="300" y="661" type="curve"/>
      <point x="442" y="661"/>
      <point x="525" y="580"/>
      <point x="525" y="445" type="curve" smooth="yes"/>
      <point x="525" y="254" type="line" smooth="yes"/>
      <point x="525" y="120"/>
      <point x="442" y="39"/>
      <point x="300" y="39" type="curve" smooth="yes"/>
      <point x="247" y="39"/>
      <point x="213" y="43"/>
      <point x="169" y="56" type="curve"/>
      <point x="155" y="18"/>
      <point x="211" y="-15"/>
    </contour>
    <contour>
      <point x="308" y="503" type="curve" smooth="yes"/>
      <point x="349" y="503"/>
      <point x="365" y="487"/>
      <point x="384" y="459" type="curve"/>
      <point x="415" y="497"/>
      <point x="420" y="504"/>
      <point x="420" y="511" type="curve" smooth="yes"/>
      <point x="420" y="516"/>
      <point x="419" y="518"/>
      <point x="415" y="522" type="curve" smooth="yes"/>
      <point x="391" y="549"/>
      <point x="356" y="566"/>
      <point x="308" y="566" type="curve" smooth="yes"/>
      <point x="221" y="566"/>
      <point x="170" y="517"/>
      <point x="170" y="429" type="curve" smooth="yes"/>
      <point x="170" y="273" type="line" smooth="yes"/>
      <point x="170" y="244"/>
      <point x="197" y="211"/>
      <point x="238" y="211" type="curve"/>
      <point x="238" y="234"/>
      <point x="238" y="250"/>
      <point x="238" y="275" type="curve" smooth="yes"/>
      <point x="238" y="430" type="line" smooth="yes"/>
      <point x="238" y="478"/>
      <point x="261" y="503"/>
    </contour>
    <contour>
      <point x="306" y="134" type="curve" smooth="yes"/>
      <point x="353" y="134"/>
      <point x="397" y="148"/>
      <point x="416" y="172" type="curve"/>
      <point x="420" y="177"/>
      <point x="421" y="178"/>
      <point x="421" y="188" type="curve" smooth="yes"/>
      <point x="421" y="206"/>
      <point x="421" y="225"/>
      <point x="421" y="247" type="curve"/>
      <point x="411" y="247" type="line"/>
      <point x="383" y="213"/>
      <point x="354" y="199"/>
      <point x="310" y="199" type="curve" smooth="yes"/>
      <point x="258" y="199"/>
      <point x="238" y="220"/>
      <point x="238" y="275" type="curve"/>
      <point x="182" y="285"/>
      <point x="170" y="279"/>
      <point x="170" y="273" type="curve" smooth="yes"/>
      <point x="170" y="186"/>
      <point x="213" y="134"/>
    </contour>
    <contour>
      <point x="420" y="424" type="curve"/>
      <point x="420" y="511" type="line" smooth="yes"/>
      <point x="420" y="519"/>
      <point x="405" y="522"/>
      <point x="356" y="522" type="curve"/>
      <point x="356" y="515"/>
      <point x="356" y="511"/>
      <point x="356" y="506" type="curve" smooth="yes"/>
      <point x="356" y="435" type="line" smooth="yes"/>
      <point x="356" y="428"/>
      <point x="359" y="424"/>
      <point x="367" y="424" type="curve" smooth="yes"/>
      <point x="385" y="424"/>
      <point x="399" y="424"/>
    </contour>
  </outline>
</glyph>
<glyph name="ordfeminine" format="1">
  <advance width="600"/>
  <unicode hex="00AA"/>
  <outline>
    <contour>
      <point x="272" y="759" type="curve" smooth="yes"/>
      <point x="214" y="759"/>
      <point x="142" y="743"/>
      <point x="131" y="732" type="curve" smooth="yes"/>
      <point x="129" y="731"/>
      <point x="129" y="728"/>
      <point x="129" y="726" type="curve" smooth="yes"/>
      <point x="129" y="703"/>
      <point x="129" y="681"/>
      <point x="129" y="658" type="curve"/>
      <point x="142" y="658" type="line"/>
      <point x="184" y="673"/>
      <point x="226" y="680"/>
      <point x="275" y="680" type="curve" smooth="yes"/>
      <point x="356" y="680"/>
      <point x="383" y="659"/>
      <point x="383" y="586" type="curve"/>
      <point x="458" y="566"/>
      <point x="468" y="569"/>
      <point x="468" y="580" type="curve"/>
      <point x="468" y="709"/>
      <point x="410" y="759"/>
    </contour>
    <contour>
      <point x="373" y="684" type="curve"/>
      <point x="381" y="657"/>
      <point x="383" y="637"/>
      <point x="383" y="594" type="curve" smooth="yes"/>
      <point x="383" y="523"/>
      <point x="383" y="462"/>
      <point x="383" y="394" type="curve" smooth="yes"/>
      <point x="383" y="357"/>
      <point x="428" y="321"/>
      <point x="480" y="329" type="curve"/>
      <point x="470" y="347"/>
      <point x="468" y="366"/>
      <point x="468" y="398" type="curve" smooth="yes"/>
      <point x="468" y="458"/>
      <point x="468" y="492"/>
      <point x="468" y="580" type="curve" smooth="yes"/>
      <point x="468" y="642"/>
      <point x="444" y="688"/>
    </contour>
    <contour>
      <point x="522" y="372" type="line"/>
      <point x="510" y="372" type="line"/>
      <point x="507" y="372"/>
      <point x="505" y="372"/>
      <point x="501" y="372" type="curve" smooth="yes"/>
      <point x="480" y="372"/>
      <point x="469" y="386"/>
      <point x="468" y="416" type="curve"/>
      <point x="391" y="419"/>
      <point x="383" y="407"/>
      <point x="383" y="394" type="curve" smooth="yes"/>
      <point x="383" y="334"/>
      <point x="428" y="295"/>
      <point x="495" y="295" type="curve" smooth="yes"/>
      <point x="513" y="295" type="line" smooth="yes"/>
      <point x="519" y="295"/>
      <point x="522" y="298"/>
      <point x="522" y="304" type="curve"/>
    </contour>
    <contour>
      <point x="189" y="422" type="curve" smooth="yes"/>
      <point x="189" y="443" type="line" smooth="yes"/>
      <point x="189" y="475"/>
      <point x="191" y="498"/>
      <point x="203" y="519" type="curve"/>
      <point x="153" y="525"/>
      <point x="106" y="486"/>
      <point x="106" y="439" type="curve" smooth="yes"/>
      <point x="106" y="414" type="line" smooth="yes"/>
      <point x="106" y="338"/>
      <point x="155" y="295"/>
      <point x="235" y="295" type="curve" smooth="yes"/>
      <point x="308" y="295"/>
      <point x="363" y="331"/>
      <point x="400" y="385" type="curve" smooth="yes"/>
      <point x="407" y="395"/>
      <point x="410" y="413"/>
      <point x="405" y="452" type="curve"/>
      <point x="354" y="391"/>
      <point x="314" y="371"/>
      <point x="251" y="371" type="curve" smooth="yes"/>
      <point x="246" y="371" type="line" smooth="yes"/>
      <point x="209" y="371"/>
      <point x="189" y="388"/>
    </contour>
    <contour>
      <point x="399" y="540" type="curve" smooth="yes"/>
      <point x="379" y="552"/>
      <point x="321" y="563"/>
      <point x="244" y="563" type="curve" smooth="yes"/>
      <point x="158" y="563"/>
      <point x="106" y="513"/>
      <point x="106" y="439" type="curve" smooth="yes"/>
      <point x="106" y="431"/>
      <point x="113" y="424"/>
      <point x="189" y="443" type="curve"/>
      <point x="189" y="473"/>
      <point x="204" y="500"/>
      <point x="254" y="500" type="curve" smooth="yes"/>
      <point x="317" y="500"/>
      <point x="373" y="497"/>
      <point x="415" y="491" type="curve"/>
      <point x="415" y="512"/>
      <point x="413" y="530"/>
    </contour>
  </outline>
</glyph>
<glyph name="guillemotleft" format="1">
  <advance width="600"/>
  <unicode hex="00AB"/>
  <outline>
    <contour>
      <point x="322" y="522" type="line"/>
      <point x="292" y="522"/>
      <point x="270" y="522"/>
      <point x="248" y="522" type="curve" smooth="yes"/>
      <point x="236" y="522"/>
      <point x="231" y="521"/>
      <point x="222" y="512" type="curve" smooth="yes"/>
      <point x="193" y="482"/>
      <point x="107" y="391"/>
      <point x="45" y="325" type="curve"/>
      <point x="45" y="305" type="line"/>
      <point x="45" y="294"/>
      <point x="51" y="291"/>
      <point x="100" y="271" type="curve"/>
      <point x="169" y="344"/>
      <point x="224" y="402"/>
      <point x="322" y="505" type="curve"/>
    </contour>
    <contour>
      <point x="322" y="95" type="line"/>
      <point x="223" y="198"/>
      <point x="174" y="249"/>
      <point x="110" y="318" type="curve"/>
      <point x="52" y="318"/>
      <point x="45" y="316"/>
      <point x="45" y="309" type="curve"/>
      <point x="45" y="285" type="line" smooth="yes"/>
      <point x="45" y="277"/>
      <point x="46" y="273"/>
      <point x="55" y="263" type="curve" smooth="yes"/>
      <point x="75" y="242"/>
      <point x="206" y="105"/>
      <point x="220" y="90" type="curve"/>
      <point x="231" y="79"/>
      <point x="233" y="78"/>
      <point x="246" y="78" type="curve" smooth="yes"/>
      <point x="283" y="78"/>
      <point x="301" y="78"/>
      <point x="322" y="78" type="curve"/>
    </contour>
    <contour>
      <point x="552" y="522" type="line"/>
      <point x="522" y="522"/>
      <point x="500" y="522"/>
      <point x="478" y="522" type="curve" smooth="yes"/>
      <point x="466" y="522"/>
      <point x="461" y="521"/>
      <point x="452" y="512" type="curve" smooth="yes"/>
      <point x="423" y="482"/>
      <point x="337" y="391"/>
      <point x="275" y="325" type="curve"/>
      <point x="275" y="305" type="line"/>
      <point x="275" y="294"/>
      <point x="281" y="291"/>
      <point x="330" y="271" type="curve"/>
      <point x="399" y="344"/>
      <point x="454" y="402"/>
      <point x="552" y="505" type="curve"/>
    </contour>
    <contour>
      <point x="552" y="95" type="line"/>
      <point x="453" y="198"/>
      <point x="404" y="249"/>
      <point x="340" y="318" type="curve"/>
      <point x="282" y="318"/>
      <point x="275" y="316"/>
      <point x="275" y="309" type="curve"/>
      <point x="275" y="285" type="line" smooth="yes"/>
      <point x="275" y="277"/>
      <point x="276" y="273"/>
      <point x="285" y="263" type="curve" smooth="yes"/>
      <point x="305" y="242"/>
      <point x="436" y="105"/>
      <point x="450" y="90" type="curve"/>
      <point x="461" y="79"/>
      <point x="463" y="78"/>
      <point x="476" y="78" type="curve" smooth="yes"/>
      <point x="513" y="78"/>
      <point x="531" y="78"/>
      <point x="552" y="78" type="curve"/>
    </contour>
  </outline>
</glyph>
<glyph name="logicalnot" format="1">
  <advance width="600"/>
  <unicode hex="00AC"/>
  <outline>
    <contour>
      <point x="68" y="434" type="line"/>
      <point x="68" y="405"/>
      <point x="68" y="383"/>
      <point x="68" y="354" type="curve" smooth="yes"/>
      <point x="68" y="351"/>
      <point x="69" y="348"/>
      <point x="71" y="346" type="curve" smooth="yes"/>
      <point x="73" y="344"/>
      <point x="76" y="343"/>
      <point x="79" y="343" type="curve"/>
      <point x="532" y="343" type="line"/>
      <point x="532" y="423" type="line"/>
      <point x="532" y="429"/>
      <point x="527" y="434"/>
      <point x="521" y="434" type="curve"/>
    </contour>
    <contour>
      <point x="532" y="140" type="curve"/>
      <point x="532" y="382" type="line" smooth="yes"/>
      <point x="532" y="388"/>
      <point x="527" y="393"/>
      <point x="521" y="393" type="curve"/>
      <point x="433" y="393" type="line"/>
      <point x="433" y="151" type="line" smooth="yes"/>
      <point x="433" y="145"/>
      <point x="438" y="140"/>
      <point x="444" y="140" type="curve" smooth="yes"/>
      <point x="475" y="140"/>
      <point x="501" y="140"/>
    </contour>
  </outline>
</glyph>
<glyph name="uni00AD" format="1">
  <advance width="600"/>
  <unicode hex="00AD"/>
  <outline>
    <contour>
      <point x="118" y="347" type="line"/>
      <point x="118" y="318"/>
      <point x="118" y="292"/>
      <point x="118" y="263" type="curve" smooth="yes"/>
      <point x="118" y="260"/>
      <point x="119" y="257"/>
      <point x="121" y="255" type="curve" smooth="yes"/>
      <point x="123" y="253"/>
      <point x="126" y="252"/>
      <point x="129" y="252" type="curve"/>
      <point x="482" y="252" type="line"/>
      <point x="482" y="281"/>
      <point x="482" y="307"/>
      <point x="482" y="336" type="curve" smooth="yes"/>
      <point x="482" y="342"/>
      <point x="477" y="347"/>
      <point x="471" y="347" type="curve"/>
    </contour>
  </outline>
</glyph>
